<?xml version="1.0" encoding="utf-8" standalone="no"?>
<!DOCTYPE svg PUBLIC "-//W3C//DTD SVG 1.1//EN"
  "http://www.w3.org/Graphics/SVG/1.1/DTD/svg11.dtd">
<svg xmlns:xlink="http://www.w3.org/1999/xlink" width="418.12392pt" height="327.78825pt" viewBox="0 0 418.12392 327.78825" xmlns="http://www.w3.org/2000/svg" version="1.1">
 <metadata>
  <rdf:RDF xmlns:dc="http://purl.org/dc/elements/1.1/" xmlns:cc="http://creativecommons.org/ns#" xmlns:rdf="http://www.w3.org/1999/02/22-rdf-syntax-ns#">
   <cc:Work>
    <dc:type rdf:resource="http://purl.org/dc/dcmitype/StillImage"/>
    <dc:date>2025-11-20T19:20:33.862487</dc:date>
    <dc:format>image/svg+xml</dc:format>
    <dc:creator>
     <cc:Agent>
      <dc:title>Matplotlib v3.10.7, https://matplotlib.org/</dc:title>
     </cc:Agent>
    </dc:creator>
   </cc:Work>
  </rdf:RDF>
 </metadata>
 <defs>
  <style type="text/css">*{stroke-linejoin: round; stroke-linecap: butt}</style>
 </defs>
 <g id="figure_1">
  <g id="patch_1">
   <path d="M 0 327.78825 
L 418.12392 327.78825 
L 418.12392 0 
L 0 0 
z
" style="fill: #ffffff"/>
  </g>
  <g id="axes_1">
   <g id="patch_2">
    <path d="M 46.965625 290.232 
L 404.085625 290.232 
L 404.085625 24.12 
L 46.965625 24.12 
z
" style="fill: #ffffff"/>
   </g>
   <g id="PathCollection_1">
    <defs>
     <path id="m1cb8d39988" d="M 0 3.535534 
C 0.937635 3.535534 1.836992 3.163008 2.5 2.5 
C 3.163008 1.836992 3.535534 0.937635 3.535534 0 
C 3.535534 -0.937635 3.163008 -1.836992 2.5 -2.5 
C 1.836992 -3.163008 0.937635 -3.535534 0 -3.535534 
C -0.937635 -3.535534 -1.836992 -3.163008 -2.5 -2.5 
C -3.163008 -1.836992 -3.535534 -0.937635 -3.535534 0 
C -3.535534 0.937635 -3.163008 1.836992 -2.5 2.5 
C -1.836992 3.163008 -0.937635 3.535534 0 3.535534 
z
" style="stroke: #1f77b4"/>
    </defs>
    <g clip-path="url(#pde3298767c)">
     <use xlink:href="#m1cb8d39988" x="66.58017" y="212.957771" style="fill: #1f77b4; stroke: #1f77b4"/>
     <use xlink:href="#m1cb8d39988" x="66.58017" y="107.55897" style="fill: #1f77b4; stroke: #1f77b4"/>
     <use xlink:href="#m1cb8d39988" x="80.107443" y="192.392151" style="fill: #1f77b4; stroke: #1f77b4"/>
     <use xlink:href="#m1cb8d39988" x="80.107443" y="128.124589" style="fill: #1f77b4; stroke: #1f77b4"/>
     <use xlink:href="#m1cb8d39988" x="103.78017" y="187.250746" style="fill: #1f77b4; stroke: #1f77b4"/>
     <use xlink:href="#m1cb8d39988" x="103.78017" y="133.265994" style="fill: #1f77b4; stroke: #1f77b4"/>
     <use xlink:href="#m1cb8d39988" x="107.161989" y="236.094093" style="fill: #1f77b4; stroke: #1f77b4"/>
     <use xlink:href="#m1cb8d39988" x="107.161989" y="84.422648" style="fill: #1f77b4; stroke: #1f77b4"/>
     <use xlink:href="#m1cb8d39988" x="110.543807" y="192.392151" style="fill: #1f77b4; stroke: #1f77b4"/>
     <use xlink:href="#m1cb8d39988" x="110.543807" y="128.124589" style="fill: #1f77b4; stroke: #1f77b4"/>
     <use xlink:href="#m1cb8d39988" x="120.689261" y="236.094093" style="fill: #1f77b4; stroke: #1f77b4"/>
     <use xlink:href="#m1cb8d39988" x="120.689261" y="84.422648" style="fill: #1f77b4; stroke: #1f77b4"/>
     <use xlink:href="#m1cb8d39988" x="130.834716" y="230.952688" style="fill: #1f77b4; stroke: #1f77b4"/>
     <use xlink:href="#m1cb8d39988" x="130.834716" y="89.564053" style="fill: #1f77b4; stroke: #1f77b4"/>
     <use xlink:href="#m1cb8d39988" x="134.216534" y="230.952688" style="fill: #1f77b4; stroke: #1f77b4"/>
     <use xlink:href="#m1cb8d39988" x="134.216534" y="89.564053" style="fill: #1f77b4; stroke: #1f77b4"/>
     <use xlink:href="#m1cb8d39988" x="140.98017" y="266.942522" style="fill: #1f77b4; stroke: #1f77b4"/>
     <use xlink:href="#m1cb8d39988" x="140.98017" y="53.574218" style="fill: #1f77b4; stroke: #1f77b4"/>
     <use xlink:href="#m1cb8d39988" x="154.507443" y="228.381985" style="fill: #1f77b4; stroke: #1f77b4"/>
     <use xlink:href="#m1cb8d39988" x="154.507443" y="92.134755" style="fill: #1f77b4; stroke: #1f77b4"/>
     <use xlink:href="#m1cb8d39988" x="161.27108" y="266.942522" style="fill: #1f77b4; stroke: #1f77b4"/>
     <use xlink:href="#m1cb8d39988" x="161.27108" y="53.574218" style="fill: #1f77b4; stroke: #1f77b4"/>
     <use xlink:href="#m1cb8d39988" x="171.416534" y="187.250746" style="fill: #1f77b4; stroke: #1f77b4"/>
     <use xlink:href="#m1cb8d39988" x="171.416534" y="133.265994" style="fill: #1f77b4; stroke: #1f77b4"/>
     <use xlink:href="#m1cb8d39988" x="174.798352" y="202.674961" style="fill: #1f77b4; stroke: #1f77b4"/>
     <use xlink:href="#m1cb8d39988" x="174.798352" y="117.84178" style="fill: #1f77b4; stroke: #1f77b4"/>
     <use xlink:href="#m1cb8d39988" x="181.561989" y="212.957771" style="fill: #1f77b4; stroke: #1f77b4"/>
     <use xlink:href="#m1cb8d39988" x="181.561989" y="107.55897" style="fill: #1f77b4; stroke: #1f77b4"/>
     <use xlink:href="#m1cb8d39988" x="184.943807" y="174.397234" style="fill: #1f77b4; stroke: #1f77b4"/>
     <use xlink:href="#m1cb8d39988" x="184.943807" y="146.119507" style="fill: #1f77b4; stroke: #1f77b4"/>
     <use xlink:href="#m1cb8d39988" x="211.998352" y="272.083927" style="fill: #1f77b4; stroke: #1f77b4"/>
     <use xlink:href="#m1cb8d39988" x="211.998352" y="48.432813" style="fill: #1f77b4; stroke: #1f77b4"/>
     <use xlink:href="#m1cb8d39988" x="215.38017" y="266.942522" style="fill: #1f77b4; stroke: #1f77b4"/>
     <use xlink:href="#m1cb8d39988" x="215.38017" y="53.574218" style="fill: #1f77b4; stroke: #1f77b4"/>
     <use xlink:href="#m1cb8d39988" x="239.052898" y="243.8062" style="fill: #1f77b4; stroke: #1f77b4"/>
     <use xlink:href="#m1cb8d39988" x="239.052898" y="76.71054" style="fill: #1f77b4; stroke: #1f77b4"/>
     <use xlink:href="#m1cb8d39988" x="242.434716" y="187.250746" style="fill: #1f77b4; stroke: #1f77b4"/>
     <use xlink:href="#m1cb8d39988" x="242.434716" y="133.265994" style="fill: #1f77b4; stroke: #1f77b4"/>
     <use xlink:href="#m1cb8d39988" x="249.198352" y="207.816366" style="fill: #1f77b4; stroke: #1f77b4"/>
     <use xlink:href="#m1cb8d39988" x="249.198352" y="112.700375" style="fill: #1f77b4; stroke: #1f77b4"/>
     <use xlink:href="#m1cb8d39988" x="252.58017" y="230.952688" style="fill: #1f77b4; stroke: #1f77b4"/>
     <use xlink:href="#m1cb8d39988" x="252.58017" y="89.564053" style="fill: #1f77b4; stroke: #1f77b4"/>
     <use xlink:href="#m1cb8d39988" x="255.961989" y="207.816366" style="fill: #1f77b4; stroke: #1f77b4"/>
     <use xlink:href="#m1cb8d39988" x="255.961989" y="112.700375" style="fill: #1f77b4; stroke: #1f77b4"/>
     <use xlink:href="#m1cb8d39988" x="266.107443" y="169.255829" style="fill: #1f77b4; stroke: #1f77b4"/>
     <use xlink:href="#m1cb8d39988" x="266.107443" y="151.260912" style="fill: #1f77b4; stroke: #1f77b4"/>
     <use xlink:href="#m1cb8d39988" x="269.489261" y="212.957771" style="fill: #1f77b4; stroke: #1f77b4"/>
     <use xlink:href="#m1cb8d39988" x="269.489261" y="107.55897" style="fill: #1f77b4; stroke: #1f77b4"/>
     <use xlink:href="#m1cb8d39988" x="272.87108" y="174.397234" style="fill: #1f77b4; stroke: #1f77b4"/>
     <use xlink:href="#m1cb8d39988" x="272.87108" y="146.119507" style="fill: #1f77b4; stroke: #1f77b4"/>
     <use xlink:href="#m1cb8d39988" x="276.252898" y="169.255829" style="fill: #1f77b4; stroke: #1f77b4"/>
     <use xlink:href="#m1cb8d39988" x="276.252898" y="151.260912" style="fill: #1f77b4; stroke: #1f77b4"/>
     <use xlink:href="#m1cb8d39988" x="283.016534" y="272.083927" style="fill: #1f77b4; stroke: #1f77b4"/>
     <use xlink:href="#m1cb8d39988" x="283.016534" y="48.432813" style="fill: #1f77b4; stroke: #1f77b4"/>
     <use xlink:href="#m1cb8d39988" x="289.78017" y="236.094093" style="fill: #1f77b4; stroke: #1f77b4"/>
     <use xlink:href="#m1cb8d39988" x="289.78017" y="84.422648" style="fill: #1f77b4; stroke: #1f77b4"/>
     <use xlink:href="#m1cb8d39988" x="293.161989" y="243.8062" style="fill: #1f77b4; stroke: #1f77b4"/>
     <use xlink:href="#m1cb8d39988" x="293.161989" y="76.71054" style="fill: #1f77b4; stroke: #1f77b4"/>
     <use xlink:href="#m1cb8d39988" x="303.307443" y="169.255829" style="fill: #1f77b4; stroke: #1f77b4"/>
     <use xlink:href="#m1cb8d39988" x="303.307443" y="151.260912" style="fill: #1f77b4; stroke: #1f77b4"/>
     <use xlink:href="#m1cb8d39988" x="306.689261" y="228.381985" style="fill: #1f77b4; stroke: #1f77b4"/>
     <use xlink:href="#m1cb8d39988" x="306.689261" y="92.134755" style="fill: #1f77b4; stroke: #1f77b4"/>
     <use xlink:href="#m1cb8d39988" x="310.07108" y="202.674961" style="fill: #1f77b4; stroke: #1f77b4"/>
     <use xlink:href="#m1cb8d39988" x="310.07108" y="117.84178" style="fill: #1f77b4; stroke: #1f77b4"/>
     <use xlink:href="#m1cb8d39988" x="313.452898" y="243.8062" style="fill: #1f77b4; stroke: #1f77b4"/>
     <use xlink:href="#m1cb8d39988" x="313.452898" y="76.71054" style="fill: #1f77b4; stroke: #1f77b4"/>
     <use xlink:href="#m1cb8d39988" x="326.98017" y="192.392151" style="fill: #1f77b4; stroke: #1f77b4"/>
     <use xlink:href="#m1cb8d39988" x="326.98017" y="128.124589" style="fill: #1f77b4; stroke: #1f77b4"/>
     <use xlink:href="#m1cb8d39988" x="340.507443" y="207.816366" style="fill: #1f77b4; stroke: #1f77b4"/>
     <use xlink:href="#m1cb8d39988" x="340.507443" y="112.700375" style="fill: #1f77b4; stroke: #1f77b4"/>
     <use xlink:href="#m1cb8d39988" x="350.652898" y="272.083927" style="fill: #1f77b4; stroke: #1f77b4"/>
     <use xlink:href="#m1cb8d39988" x="350.652898" y="48.432813" style="fill: #1f77b4; stroke: #1f77b4"/>
     <use xlink:href="#m1cb8d39988" x="360.798352" y="202.674961" style="fill: #1f77b4; stroke: #1f77b4"/>
     <use xlink:href="#m1cb8d39988" x="360.798352" y="117.84178" style="fill: #1f77b4; stroke: #1f77b4"/>
     <use xlink:href="#m1cb8d39988" x="384.47108" y="228.381985" style="fill: #1f77b4; stroke: #1f77b4"/>
     <use xlink:href="#m1cb8d39988" x="384.47108" y="92.134755" style="fill: #1f77b4; stroke: #1f77b4"/>
     <use xlink:href="#m1cb8d39988" x="387.852898" y="174.397234" style="fill: #1f77b4; stroke: #1f77b4"/>
     <use xlink:href="#m1cb8d39988" x="387.852898" y="146.119507" style="fill: #1f77b4; stroke: #1f77b4"/>
    </g>
   </g>
   <g id="matplotlib.axis_1">
    <g id="xtick_1">
     <g id="line2d_1">
      <path d="M 63.198352 290.232 
L 63.198352 24.12 
" clip-path="url(#pde3298767c)" style="fill: none; stroke: #b0b0b0; stroke-width: 0.8; stroke-linecap: square"/>
     </g>
     <g id="line2d_2">
      <defs>
       <path id="mb6318b3eed" d="M 0 0 
L 0 3.5 
" style="stroke: #000000; stroke-width: 0.8"/>
      </defs>
      <g>
       <use xlink:href="#mb6318b3eed" x="63.198352" y="290.232" style="stroke: #000000; stroke-width: 0.8"/>
      </g>
     </g>
     <g id="text_1">
      <!-- 0 -->
      <g transform="translate(60.017102 304.830437) scale(0.1 -0.1)">
       <defs>
        <path id="DejaVuSans-30" d="M 2034 4250 
Q 1547 4250 1301 3770 
Q 1056 3291 1056 2328 
Q 1056 1369 1301 889 
Q 1547 409 2034 409 
Q 2525 409 2770 889 
Q 3016 1369 3016 2328 
Q 3016 3291 2770 3770 
Q 2525 4250 2034 4250 
z
M 2034 4750 
Q 2819 4750 3233 4129 
Q 3647 3509 3647 2328 
Q 3647 1150 3233 529 
Q 2819 -91 2034 -91 
Q 1250 -91 836 529 
Q 422 1150 422 2328 
Q 422 3509 836 4129 
Q 1250 4750 2034 4750 
z
" transform="scale(0.015625)"/>
       </defs>
       <use xlink:href="#DejaVuSans-30"/>
      </g>
     </g>
    </g>
    <g id="xtick_2">
     <g id="line2d_3">
      <path d="M 130.834716 290.232 
L 130.834716 24.12 
" clip-path="url(#pde3298767c)" style="fill: none; stroke: #b0b0b0; stroke-width: 0.8; stroke-linecap: square"/>
     </g>
     <g id="line2d_4">
      <g>
       <use xlink:href="#mb6318b3eed" x="130.834716" y="290.232" style="stroke: #000000; stroke-width: 0.8"/>
      </g>
     </g>
     <g id="text_2">
      <!-- 20 -->
      <g transform="translate(124.472216 304.830437) scale(0.1 -0.1)">
       <defs>
        <path id="DejaVuSans-32" d="M 1228 531 
L 3431 531 
L 3431 0 
L 469 0 
L 469 531 
Q 828 903 1448 1529 
Q 2069 2156 2228 2338 
Q 2531 2678 2651 2914 
Q 2772 3150 2772 3378 
Q 2772 3750 2511 3984 
Q 2250 4219 1831 4219 
Q 1534 4219 1204 4116 
Q 875 4013 500 3803 
L 500 4441 
Q 881 4594 1212 4672 
Q 1544 4750 1819 4750 
Q 2544 4750 2975 4387 
Q 3406 4025 3406 3419 
Q 3406 3131 3298 2873 
Q 3191 2616 2906 2266 
Q 2828 2175 2409 1742 
Q 1991 1309 1228 531 
z
" transform="scale(0.015625)"/>
       </defs>
       <use xlink:href="#DejaVuSans-32"/>
       <use xlink:href="#DejaVuSans-30" transform="translate(63.623047 0)"/>
      </g>
     </g>
    </g>
    <g id="xtick_3">
     <g id="line2d_5">
      <path d="M 198.47108 290.232 
L 198.47108 24.12 
" clip-path="url(#pde3298767c)" style="fill: none; stroke: #b0b0b0; stroke-width: 0.8; stroke-linecap: square"/>
     </g>
     <g id="line2d_6">
      <g>
       <use xlink:href="#mb6318b3eed" x="198.47108" y="290.232" style="stroke: #000000; stroke-width: 0.8"/>
      </g>
     </g>
     <g id="text_3">
      <!-- 40 -->
      <g transform="translate(192.10858 304.830437) scale(0.1 -0.1)">
       <defs>
        <path id="DejaVuSans-34" d="M 2419 4116 
L 825 1625 
L 2419 1625 
L 2419 4116 
z
M 2253 4666 
L 3047 4666 
L 3047 1625 
L 3713 1625 
L 3713 1100 
L 3047 1100 
L 3047 0 
L 2419 0 
L 2419 1100 
L 313 1100 
L 313 1709 
L 2253 4666 
z
" transform="scale(0.015625)"/>
       </defs>
       <use xlink:href="#DejaVuSans-34"/>
       <use xlink:href="#DejaVuSans-30" transform="translate(63.623047 0)"/>
      </g>
     </g>
    </g>
    <g id="xtick_4">
     <g id="line2d_7">
      <path d="M 266.107443 290.232 
L 266.107443 24.12 
" clip-path="url(#pde3298767c)" style="fill: none; stroke: #b0b0b0; stroke-width: 0.8; stroke-linecap: square"/>
     </g>
     <g id="line2d_8">
      <g>
       <use xlink:href="#mb6318b3eed" x="266.107443" y="290.232" style="stroke: #000000; stroke-width: 0.8"/>
      </g>
     </g>
     <g id="text_4">
      <!-- 60 -->
      <g transform="translate(259.744943 304.830437) scale(0.1 -0.1)">
       <defs>
        <path id="DejaVuSans-36" d="M 2113 2584 
Q 1688 2584 1439 2293 
Q 1191 2003 1191 1497 
Q 1191 994 1439 701 
Q 1688 409 2113 409 
Q 2538 409 2786 701 
Q 3034 994 3034 1497 
Q 3034 2003 2786 2293 
Q 2538 2584 2113 2584 
z
M 3366 4563 
L 3366 3988 
Q 3128 4100 2886 4159 
Q 2644 4219 2406 4219 
Q 1781 4219 1451 3797 
Q 1122 3375 1075 2522 
Q 1259 2794 1537 2939 
Q 1816 3084 2150 3084 
Q 2853 3084 3261 2657 
Q 3669 2231 3669 1497 
Q 3669 778 3244 343 
Q 2819 -91 2113 -91 
Q 1303 -91 875 529 
Q 447 1150 447 2328 
Q 447 3434 972 4092 
Q 1497 4750 2381 4750 
Q 2619 4750 2861 4703 
Q 3103 4656 3366 4563 
z
" transform="scale(0.015625)"/>
       </defs>
       <use xlink:href="#DejaVuSans-36"/>
       <use xlink:href="#DejaVuSans-30" transform="translate(63.623047 0)"/>
      </g>
     </g>
    </g>
    <g id="xtick_5">
     <g id="line2d_9">
      <path d="M 333.743807 290.232 
L 333.743807 24.12 
" clip-path="url(#pde3298767c)" style="fill: none; stroke: #b0b0b0; stroke-width: 0.8; stroke-linecap: square"/>
     </g>
     <g id="line2d_10">
      <g>
       <use xlink:href="#mb6318b3eed" x="333.743807" y="290.232" style="stroke: #000000; stroke-width: 0.8"/>
      </g>
     </g>
     <g id="text_5">
      <!-- 80 -->
      <g transform="translate(327.381307 304.830437) scale(0.1 -0.1)">
       <defs>
        <path id="DejaVuSans-38" d="M 2034 2216 
Q 1584 2216 1326 1975 
Q 1069 1734 1069 1313 
Q 1069 891 1326 650 
Q 1584 409 2034 409 
Q 2484 409 2743 651 
Q 3003 894 3003 1313 
Q 3003 1734 2745 1975 
Q 2488 2216 2034 2216 
z
M 1403 2484 
Q 997 2584 770 2862 
Q 544 3141 544 3541 
Q 544 4100 942 4425 
Q 1341 4750 2034 4750 
Q 2731 4750 3128 4425 
Q 3525 4100 3525 3541 
Q 3525 3141 3298 2862 
Q 3072 2584 2669 2484 
Q 3125 2378 3379 2068 
Q 3634 1759 3634 1313 
Q 3634 634 3220 271 
Q 2806 -91 2034 -91 
Q 1263 -91 848 271 
Q 434 634 434 1313 
Q 434 1759 690 2068 
Q 947 2378 1403 2484 
z
M 1172 3481 
Q 1172 3119 1398 2916 
Q 1625 2713 2034 2713 
Q 2441 2713 2670 2916 
Q 2900 3119 2900 3481 
Q 2900 3844 2670 4047 
Q 2441 4250 2034 4250 
Q 1625 4250 1398 4047 
Q 1172 3844 1172 3481 
z
" transform="scale(0.015625)"/>
       </defs>
       <use xlink:href="#DejaVuSans-38"/>
       <use xlink:href="#DejaVuSans-30" transform="translate(63.623047 0)"/>
      </g>
     </g>
    </g>
    <g id="xtick_6">
     <g id="line2d_11">
      <path d="M 401.38017 290.232 
L 401.38017 24.12 
" clip-path="url(#pde3298767c)" style="fill: none; stroke: #b0b0b0; stroke-width: 0.8; stroke-linecap: square"/>
     </g>
     <g id="line2d_12">
      <g>
       <use xlink:href="#mb6318b3eed" x="401.38017" y="290.232" style="stroke: #000000; stroke-width: 0.8"/>
      </g>
     </g>
     <g id="text_6">
      <!-- 100 -->
      <g transform="translate(391.83642 304.830437) scale(0.1 -0.1)">
       <defs>
        <path id="DejaVuSans-31" d="M 794 531 
L 1825 531 
L 1825 4091 
L 703 3866 
L 703 4441 
L 1819 4666 
L 2450 4666 
L 2450 531 
L 3481 531 
L 3481 0 
L 794 0 
L 794 531 
z
" transform="scale(0.015625)"/>
       </defs>
       <use xlink:href="#DejaVuSans-31"/>
       <use xlink:href="#DejaVuSans-30" transform="translate(63.623047 0)"/>
       <use xlink:href="#DejaVuSans-30" transform="translate(127.246094 0)"/>
      </g>
     </g>
    </g>
    <g id="text_7">
     <!-- x -->
     <g transform="translate(222.56625 318.508562) scale(0.1 -0.1)">
      <defs>
       <path id="DejaVuSans-78" d="M 3513 3500 
L 2247 1797 
L 3578 0 
L 2900 0 
L 1881 1375 
L 863 0 
L 184 0 
L 1544 1831 
L 300 3500 
L 978 3500 
L 1906 2253 
L 2834 3500 
L 3513 3500 
z
" transform="scale(0.015625)"/>
      </defs>
      <use xlink:href="#DejaVuSans-78"/>
     </g>
    </g>
   </g>
   <g id="matplotlib.axis_2">
    <g id="ytick_1">
     <g id="line2d_13">
      <path d="M 46.965625 284.937439 
L 404.085625 284.937439 
" clip-path="url(#pde3298767c)" style="fill: none; stroke: #b0b0b0; stroke-width: 0.8; stroke-linecap: square"/>
     </g>
     <g id="line2d_14">
      <defs>
       <path id="mcf45ee4e58" d="M 0 0 
L -3.5 0 
" style="stroke: #000000; stroke-width: 0.8"/>
      </defs>
      <g>
       <use xlink:href="#mcf45ee4e58" x="46.965625" y="284.937439" style="stroke: #000000; stroke-width: 0.8"/>
      </g>
     </g>
     <g id="text_8">
      <!-- 0 -->
      <g transform="translate(33.603125 288.736658) scale(0.1 -0.1)">
       <use xlink:href="#DejaVuSans-30"/>
      </g>
     </g>
    </g>
    <g id="ytick_2">
     <g id="line2d_15">
      <path d="M 46.965625 233.52339 
L 404.085625 233.52339 
" clip-path="url(#pde3298767c)" style="fill: none; stroke: #b0b0b0; stroke-width: 0.8; stroke-linecap: square"/>
     </g>
     <g id="line2d_16">
      <g>
       <use xlink:href="#mcf45ee4e58" x="46.965625" y="233.52339" style="stroke: #000000; stroke-width: 0.8"/>
      </g>
     </g>
     <g id="text_9">
      <!-- 20 -->
      <g transform="translate(27.240625 237.322609) scale(0.1 -0.1)">
       <use xlink:href="#DejaVuSans-32"/>
       <use xlink:href="#DejaVuSans-30" transform="translate(63.623047 0)"/>
      </g>
     </g>
    </g>
    <g id="ytick_3">
     <g id="line2d_17">
      <path d="M 46.965625 182.109341 
L 404.085625 182.109341 
" clip-path="url(#pde3298767c)" style="fill: none; stroke: #b0b0b0; stroke-width: 0.8; stroke-linecap: square"/>
     </g>
     <g id="line2d_18">
      <g>
       <use xlink:href="#mcf45ee4e58" x="46.965625" y="182.109341" style="stroke: #000000; stroke-width: 0.8"/>
      </g>
     </g>
     <g id="text_10">
      <!-- 40 -->
      <g transform="translate(27.240625 185.90856) scale(0.1 -0.1)">
       <use xlink:href="#DejaVuSans-34"/>
       <use xlink:href="#DejaVuSans-30" transform="translate(63.623047 0)"/>
      </g>
     </g>
    </g>
    <g id="ytick_4">
     <g id="line2d_19">
      <path d="M 46.965625 130.695292 
L 404.085625 130.695292 
" clip-path="url(#pde3298767c)" style="fill: none; stroke: #b0b0b0; stroke-width: 0.8; stroke-linecap: square"/>
     </g>
     <g id="line2d_20">
      <g>
       <use xlink:href="#mcf45ee4e58" x="46.965625" y="130.695292" style="stroke: #000000; stroke-width: 0.8"/>
      </g>
     </g>
     <g id="text_11">
      <!-- 60 -->
      <g transform="translate(27.240625 134.494511) scale(0.1 -0.1)">
       <use xlink:href="#DejaVuSans-36"/>
       <use xlink:href="#DejaVuSans-30" transform="translate(63.623047 0)"/>
      </g>
     </g>
    </g>
    <g id="ytick_5">
     <g id="line2d_21">
      <path d="M 46.965625 79.281243 
L 404.085625 79.281243 
" clip-path="url(#pde3298767c)" style="fill: none; stroke: #b0b0b0; stroke-width: 0.8; stroke-linecap: square"/>
     </g>
     <g id="line2d_22">
      <g>
       <use xlink:href="#mcf45ee4e58" x="46.965625" y="79.281243" style="stroke: #000000; stroke-width: 0.8"/>
      </g>
     </g>
     <g id="text_12">
      <!-- 80 -->
      <g transform="translate(27.240625 83.080461) scale(0.1 -0.1)">
       <use xlink:href="#DejaVuSans-38"/>
       <use xlink:href="#DejaVuSans-30" transform="translate(63.623047 0)"/>
      </g>
     </g>
    </g>
    <g id="ytick_6">
     <g id="line2d_23">
      <path d="M 46.965625 27.867194 
L 404.085625 27.867194 
" clip-path="url(#pde3298767c)" style="fill: none; stroke: #b0b0b0; stroke-width: 0.8; stroke-linecap: square"/>
     </g>
     <g id="line2d_24">
      <g>
       <use xlink:href="#mcf45ee4e58" x="46.965625" y="27.867194" style="stroke: #000000; stroke-width: 0.8"/>
      </g>
     </g>
     <g id="text_13">
      <!-- 100 -->
      <g transform="translate(20.878125 31.666412) scale(0.1 -0.1)">
       <use xlink:href="#DejaVuSans-31"/>
       <use xlink:href="#DejaVuSans-30" transform="translate(63.623047 0)"/>
       <use xlink:href="#DejaVuSans-30" transform="translate(127.246094 0)"/>
      </g>
     </g>
    </g>
    <g id="text_14">
     <!-- y -->
     <g transform="translate(14.798438 160.135375) rotate(-90) scale(0.1 -0.1)">
      <defs>
       <path id="DejaVuSans-79" d="M 2059 -325 
Q 1816 -950 1584 -1140 
Q 1353 -1331 966 -1331 
L 506 -1331 
L 506 -850 
L 844 -850 
Q 1081 -850 1212 -737 
Q 1344 -625 1503 -206 
L 1606 56 
L 191 3500 
L 800 3500 
L 1894 763 
L 2988 3500 
L 3597 3500 
L 2059 -325 
z
" transform="scale(0.015625)"/>
      </defs>
      <use xlink:href="#DejaVuSans-79"/>
     </g>
    </g>
   </g>
   <g id="line2d_25">
    <path d="M 63.198352 278.136 
L 65.168541 278.040608 
L 66.153635 277.819175 
L 67.138729 277.406624 
L 68.123823 276.771855 
L 69.108917 275.907462 
L 70.422376 274.417217 
L 71.735835 272.584857 
L 73.377659 269.888139 
L 75.347847 266.157478 
L 77.6464 261.239684 
L 79.944953 255.804346 
L 82.571871 249.038859 
L 85.527154 240.796431 
L 88.810801 230.927431 
L 92.094448 220.370793 
L 95.70646 208.021106 
L 99.646837 193.724511 
L 103.915579 177.324903 
L 108.18432 160.030423 
L 112.781426 140.457233 
L 117.706897 118.44826 
L 122.632368 95.415763 
L 127.886204 69.76948 
L 133.468404 41.352066 
L 134.453498 36.216 
L 134.453498 36.216 
" clip-path="url(#pde3298767c)" style="fill: none; stroke: #0000ff; stroke-width: 1.5; stroke-linecap: square"/>
   </g>
   <g id="patch_3">
    <path d="M 46.965625 290.232 
L 46.965625 24.12 
" style="fill: none; stroke: #000000; stroke-width: 0.8; stroke-linejoin: miter; stroke-linecap: square"/>
   </g>
   <g id="patch_4">
    <path d="M 404.085625 290.232 
L 404.085625 24.12 
" style="fill: none; stroke: #000000; stroke-width: 0.8; stroke-linejoin: miter; stroke-linecap: square"/>
   </g>
   <g id="patch_5">
    <path d="M 46.965625 290.232 
L 404.085625 290.232 
" style="fill: none; stroke: #000000; stroke-width: 0.8; stroke-linejoin: miter; stroke-linecap: square"/>
   </g>
   <g id="patch_6">
    <path d="M 46.965625 24.12 
L 404.085625 24.12 
" style="fill: none; stroke: #000000; stroke-width: 0.8; stroke-linejoin: miter; stroke-linecap: square"/>
   </g>
   <g id="text_15">
    <!-- Elliptic Curve $y^2 = x^3 + 7\ (\mathrm{mod}\ 97)$ -->
    <g transform="translate(122.685625 18.12) scale(0.12 -0.12)">
     <defs>
      <path id="DejaVuSans-45" d="M 628 4666 
L 3578 4666 
L 3578 4134 
L 1259 4134 
L 1259 2753 
L 3481 2753 
L 3481 2222 
L 1259 2222 
L 1259 531 
L 3634 531 
L 3634 0 
L 628 0 
L 628 4666 
z
" transform="scale(0.015625)"/>
      <path id="DejaVuSans-6c" d="M 603 4863 
L 1178 4863 
L 1178 0 
L 603 0 
L 603 4863 
z
" transform="scale(0.015625)"/>
      <path id="DejaVuSans-69" d="M 603 3500 
L 1178 3500 
L 1178 0 
L 603 0 
L 603 3500 
z
M 603 4863 
L 1178 4863 
L 1178 4134 
L 603 4134 
L 603 4863 
z
" transform="scale(0.015625)"/>
      <path id="DejaVuSans-70" d="M 1159 525 
L 1159 -1331 
L 581 -1331 
L 581 3500 
L 1159 3500 
L 1159 2969 
Q 1341 3281 1617 3432 
Q 1894 3584 2278 3584 
Q 2916 3584 3314 3078 
Q 3713 2572 3713 1747 
Q 3713 922 3314 415 
Q 2916 -91 2278 -91 
Q 1894 -91 1617 61 
Q 1341 213 1159 525 
z
M 3116 1747 
Q 3116 2381 2855 2742 
Q 2594 3103 2138 3103 
Q 1681 3103 1420 2742 
Q 1159 2381 1159 1747 
Q 1159 1113 1420 752 
Q 1681 391 2138 391 
Q 2594 391 2855 752 
Q 3116 1113 3116 1747 
z
" transform="scale(0.015625)"/>
      <path id="DejaVuSans-74" d="M 1172 4494 
L 1172 3500 
L 2356 3500 
L 2356 3053 
L 1172 3053 
L 1172 1153 
Q 1172 725 1289 603 
Q 1406 481 1766 481 
L 2356 481 
L 2356 0 
L 1766 0 
Q 1100 0 847 248 
Q 594 497 594 1153 
L 594 3053 
L 172 3053 
L 172 3500 
L 594 3500 
L 594 4494 
L 1172 4494 
z
" transform="scale(0.015625)"/>
      <path id="DejaVuSans-63" d="M 3122 3366 
L 3122 2828 
Q 2878 2963 2633 3030 
Q 2388 3097 2138 3097 
Q 1578 3097 1268 2742 
Q 959 2388 959 1747 
Q 959 1106 1268 751 
Q 1578 397 2138 397 
Q 2388 397 2633 464 
Q 2878 531 3122 666 
L 3122 134 
Q 2881 22 2623 -34 
Q 2366 -91 2075 -91 
Q 1284 -91 818 406 
Q 353 903 353 1747 
Q 353 2603 823 3093 
Q 1294 3584 2113 3584 
Q 2378 3584 2631 3529 
Q 2884 3475 3122 3366 
z
" transform="scale(0.015625)"/>
      <path id="DejaVuSans-20" transform="scale(0.015625)"/>
      <path id="DejaVuSans-43" d="M 4122 4306 
L 4122 3641 
Q 3803 3938 3442 4084 
Q 3081 4231 2675 4231 
Q 1875 4231 1450 3742 
Q 1025 3253 1025 2328 
Q 1025 1406 1450 917 
Q 1875 428 2675 428 
Q 3081 428 3442 575 
Q 3803 722 4122 1019 
L 4122 359 
Q 3791 134 3420 21 
Q 3050 -91 2638 -91 
Q 1578 -91 968 557 
Q 359 1206 359 2328 
Q 359 3453 968 4101 
Q 1578 4750 2638 4750 
Q 3056 4750 3426 4639 
Q 3797 4528 4122 4306 
z
" transform="scale(0.015625)"/>
      <path id="DejaVuSans-75" d="M 544 1381 
L 544 3500 
L 1119 3500 
L 1119 1403 
Q 1119 906 1312 657 
Q 1506 409 1894 409 
Q 2359 409 2629 706 
Q 2900 1003 2900 1516 
L 2900 3500 
L 3475 3500 
L 3475 0 
L 2900 0 
L 2900 538 
Q 2691 219 2414 64 
Q 2138 -91 1772 -91 
Q 1169 -91 856 284 
Q 544 659 544 1381 
z
M 1991 3584 
L 1991 3584 
z
" transform="scale(0.015625)"/>
      <path id="DejaVuSans-72" d="M 2631 2963 
Q 2534 3019 2420 3045 
Q 2306 3072 2169 3072 
Q 1681 3072 1420 2755 
Q 1159 2438 1159 1844 
L 1159 0 
L 581 0 
L 581 3500 
L 1159 3500 
L 1159 2956 
Q 1341 3275 1631 3429 
Q 1922 3584 2338 3584 
Q 2397 3584 2469 3576 
Q 2541 3569 2628 3553 
L 2631 2963 
z
" transform="scale(0.015625)"/>
      <path id="DejaVuSans-76" d="M 191 3500 
L 800 3500 
L 1894 563 
L 2988 3500 
L 3597 3500 
L 2284 0 
L 1503 0 
L 191 3500 
z
" transform="scale(0.015625)"/>
      <path id="DejaVuSans-65" d="M 3597 1894 
L 3597 1613 
L 953 1613 
Q 991 1019 1311 708 
Q 1631 397 2203 397 
Q 2534 397 2845 478 
Q 3156 559 3463 722 
L 3463 178 
Q 3153 47 2828 -22 
Q 2503 -91 2169 -91 
Q 1331 -91 842 396 
Q 353 884 353 1716 
Q 353 2575 817 3079 
Q 1281 3584 2069 3584 
Q 2775 3584 3186 3129 
Q 3597 2675 3597 1894 
z
M 3022 2063 
Q 3016 2534 2758 2815 
Q 2500 3097 2075 3097 
Q 1594 3097 1305 2825 
Q 1016 2553 972 2059 
L 3022 2063 
z
" transform="scale(0.015625)"/>
      <path id="DejaVuSans-Oblique-79" d="M 1588 -325 
Q 1188 -997 936 -1164 
Q 684 -1331 294 -1331 
L -159 -1331 
L -63 -850 
L 269 -850 
Q 509 -850 678 -719 
Q 847 -588 1056 -206 
L 1234 128 
L 459 3500 
L 1069 3500 
L 1650 819 
L 3256 3500 
L 3859 3500 
L 1588 -325 
z
" transform="scale(0.015625)"/>
      <path id="DejaVuSans-3d" d="M 678 2906 
L 4684 2906 
L 4684 2381 
L 678 2381 
L 678 2906 
z
M 678 1631 
L 4684 1631 
L 4684 1100 
L 678 1100 
L 678 1631 
z
" transform="scale(0.015625)"/>
      <path id="DejaVuSans-Oblique-78" d="M 3841 3500 
L 2234 1784 
L 3219 0 
L 2559 0 
L 1819 1388 
L 531 0 
L -166 0 
L 1556 1844 
L 641 3500 
L 1300 3500 
L 1972 2234 
L 3144 3500 
L 3841 3500 
z
" transform="scale(0.015625)"/>
      <path id="DejaVuSans-33" d="M 2597 2516 
Q 3050 2419 3304 2112 
Q 3559 1806 3559 1356 
Q 3559 666 3084 287 
Q 2609 -91 1734 -91 
Q 1441 -91 1130 -33 
Q 819 25 488 141 
L 488 750 
Q 750 597 1062 519 
Q 1375 441 1716 441 
Q 2309 441 2620 675 
Q 2931 909 2931 1356 
Q 2931 1769 2642 2001 
Q 2353 2234 1838 2234 
L 1294 2234 
L 1294 2753 
L 1863 2753 
Q 2328 2753 2575 2939 
Q 2822 3125 2822 3475 
Q 2822 3834 2567 4026 
Q 2313 4219 1838 4219 
Q 1578 4219 1281 4162 
Q 984 4106 628 3988 
L 628 4550 
Q 988 4650 1302 4700 
Q 1616 4750 1894 4750 
Q 2613 4750 3031 4423 
Q 3450 4097 3450 3541 
Q 3450 3153 3228 2886 
Q 3006 2619 2597 2516 
z
" transform="scale(0.015625)"/>
      <path id="DejaVuSans-2b" d="M 2944 4013 
L 2944 2272 
L 4684 2272 
L 4684 1741 
L 2944 1741 
L 2944 0 
L 2419 0 
L 2419 1741 
L 678 1741 
L 678 2272 
L 2419 2272 
L 2419 4013 
L 2944 4013 
z
" transform="scale(0.015625)"/>
      <path id="DejaVuSans-37" d="M 525 4666 
L 3525 4666 
L 3525 4397 
L 1831 0 
L 1172 0 
L 2766 4134 
L 525 4134 
L 525 4666 
z
" transform="scale(0.015625)"/>
      <path id="DejaVuSans-28" d="M 1984 4856 
Q 1566 4138 1362 3434 
Q 1159 2731 1159 2009 
Q 1159 1288 1364 580 
Q 1569 -128 1984 -844 
L 1484 -844 
Q 1016 -109 783 600 
Q 550 1309 550 2009 
Q 550 2706 781 3412 
Q 1013 4119 1484 4856 
L 1984 4856 
z
" transform="scale(0.015625)"/>
      <path id="DejaVuSans-6d" d="M 3328 2828 
Q 3544 3216 3844 3400 
Q 4144 3584 4550 3584 
Q 5097 3584 5394 3201 
Q 5691 2819 5691 2113 
L 5691 0 
L 5113 0 
L 5113 2094 
Q 5113 2597 4934 2840 
Q 4756 3084 4391 3084 
Q 3944 3084 3684 2787 
Q 3425 2491 3425 1978 
L 3425 0 
L 2847 0 
L 2847 2094 
Q 2847 2600 2669 2842 
Q 2491 3084 2119 3084 
Q 1678 3084 1418 2786 
Q 1159 2488 1159 1978 
L 1159 0 
L 581 0 
L 581 3500 
L 1159 3500 
L 1159 2956 
Q 1356 3278 1631 3431 
Q 1906 3584 2284 3584 
Q 2666 3584 2933 3390 
Q 3200 3197 3328 2828 
z
" transform="scale(0.015625)"/>
      <path id="DejaVuSans-6f" d="M 1959 3097 
Q 1497 3097 1228 2736 
Q 959 2375 959 1747 
Q 959 1119 1226 758 
Q 1494 397 1959 397 
Q 2419 397 2687 759 
Q 2956 1122 2956 1747 
Q 2956 2369 2687 2733 
Q 2419 3097 1959 3097 
z
M 1959 3584 
Q 2709 3584 3137 3096 
Q 3566 2609 3566 1747 
Q 3566 888 3137 398 
Q 2709 -91 1959 -91 
Q 1206 -91 779 398 
Q 353 888 353 1747 
Q 353 2609 779 3096 
Q 1206 3584 1959 3584 
z
" transform="scale(0.015625)"/>
      <path id="DejaVuSans-64" d="M 2906 2969 
L 2906 4863 
L 3481 4863 
L 3481 0 
L 2906 0 
L 2906 525 
Q 2725 213 2448 61 
Q 2172 -91 1784 -91 
Q 1150 -91 751 415 
Q 353 922 353 1747 
Q 353 2572 751 3078 
Q 1150 3584 1784 3584 
Q 2172 3584 2448 3432 
Q 2725 3281 2906 2969 
z
M 947 1747 
Q 947 1113 1208 752 
Q 1469 391 1925 391 
Q 2381 391 2643 752 
Q 2906 1113 2906 1747 
Q 2906 2381 2643 2742 
Q 2381 3103 1925 3103 
Q 1469 3103 1208 2742 
Q 947 2381 947 1747 
z
" transform="scale(0.015625)"/>
      <path id="DejaVuSans-39" d="M 703 97 
L 703 672 
Q 941 559 1184 500 
Q 1428 441 1663 441 
Q 2288 441 2617 861 
Q 2947 1281 2994 2138 
Q 2813 1869 2534 1725 
Q 2256 1581 1919 1581 
Q 1219 1581 811 2004 
Q 403 2428 403 3163 
Q 403 3881 828 4315 
Q 1253 4750 1959 4750 
Q 2769 4750 3195 4129 
Q 3622 3509 3622 2328 
Q 3622 1225 3098 567 
Q 2575 -91 1691 -91 
Q 1453 -91 1209 -44 
Q 966 3 703 97 
z
M 1959 2075 
Q 2384 2075 2632 2365 
Q 2881 2656 2881 3163 
Q 2881 3666 2632 3958 
Q 2384 4250 1959 4250 
Q 1534 4250 1286 3958 
Q 1038 3666 1038 3163 
Q 1038 2656 1286 2365 
Q 1534 2075 1959 2075 
z
" transform="scale(0.015625)"/>
      <path id="DejaVuSans-29" d="M 513 4856 
L 1013 4856 
Q 1481 4119 1714 3412 
Q 1947 2706 1947 2009 
Q 1947 1309 1714 600 
Q 1481 -109 1013 -844 
L 513 -844 
Q 928 -128 1133 580 
Q 1338 1288 1338 2009 
Q 1338 2731 1133 3434 
Q 928 4138 513 4856 
z
" transform="scale(0.015625)"/>
     </defs>
     <use xlink:href="#DejaVuSans-45" transform="translate(0 0.765625)"/>
     <use xlink:href="#DejaVuSans-6c" transform="translate(63.183594 0.765625)"/>
     <use xlink:href="#DejaVuSans-6c" transform="translate(90.966797 0.765625)"/>
     <use xlink:href="#DejaVuSans-69" transform="translate(118.75 0.765625)"/>
     <use xlink:href="#DejaVuSans-70" transform="translate(146.533203 0.765625)"/>
     <use xlink:href="#DejaVuSans-74" transform="translate(210.009766 0.765625)"/>
     <use xlink:href="#DejaVuSans-69" transform="translate(249.21875 0.765625)"/>
     <use xlink:href="#DejaVuSans-63" transform="translate(277.001953 0.765625)"/>
     <use xlink:href="#DejaVuSans-20" transform="translate(331.982422 0.765625)"/>
     <use xlink:href="#DejaVuSans-43" transform="translate(363.769531 0.765625)"/>
     <use xlink:href="#DejaVuSans-75" transform="translate(433.59375 0.765625)"/>
     <use xlink:href="#DejaVuSans-72" transform="translate(496.972656 0.765625)"/>
     <use xlink:href="#DejaVuSans-76" transform="translate(538.085938 0.765625)"/>
     <use xlink:href="#DejaVuSans-65" transform="translate(597.265625 0.765625)"/>
     <use xlink:href="#DejaVuSans-20" transform="translate(658.789062 0.765625)"/>
     <use xlink:href="#DejaVuSans-Oblique-79" transform="translate(690.576172 0.765625)"/>
     <use xlink:href="#DejaVuSans-32" transform="translate(754.222005 39.046875) scale(0.7)"/>
     <use xlink:href="#DejaVuSans-3d" transform="translate(820.974935 0.765625)"/>
     <use xlink:href="#DejaVuSans-Oblique-78" transform="translate(924.246419 0.765625)"/>
     <use xlink:href="#DejaVuSans-33" transform="translate(987.892253 39.046875) scale(0.7)"/>
     <use xlink:href="#DejaVuSans-2b" transform="translate(1054.645182 0.765625)"/>
     <use xlink:href="#DejaVuSans-37" transform="translate(1157.916667 0.765625)"/>
     <use xlink:href="#DejaVuSans-28" transform="translate(1254.010092 0.765625)"/>
     <use xlink:href="#DejaVuSans-6d" transform="translate(1293.023764 0.765625)"/>
     <use xlink:href="#DejaVuSans-6f" transform="translate(1390.435873 0.765625)"/>
     <use xlink:href="#DejaVuSans-64" transform="translate(1451.617514 0.765625)"/>
     <use xlink:href="#DejaVuSans-39" transform="translate(1547.564455 0.765625)"/>
     <use xlink:href="#DejaVuSans-37" transform="translate(1611.187502 0.765625)"/>
     <use xlink:href="#DejaVuSans-29" transform="translate(1674.810549 0.765625)"/>
    </g>
   </g>
  </g>
 </g>
 <defs>
  <clipPath id="pde3298767c">
   <rect x="46.965625" y="24.12" width="357.12" height="266.112"/>
  </clipPath>
 </defs>
</svg>
