<?xml version="1.0" encoding="utf-8" standalone="no"?>
<!DOCTYPE svg PUBLIC "-//W3C//DTD SVG 1.1//EN"
  "http://www.w3.org/Graphics/SVG/1.1/DTD/svg11.dtd">
<svg xmlns:xlink="http://www.w3.org/1999/xlink" width="412.6pt" height="360pt" viewBox="0 0 412.6 360" xmlns="http://www.w3.org/2000/svg" version="1.1">
 <metadata>
  <rdf:RDF xmlns:dc="http://purl.org/dc/elements/1.1/" xmlns:cc="http://creativecommons.org/ns#" xmlns:rdf="http://www.w3.org/1999/02/22-rdf-syntax-ns#">
   <cc:Work>
    <dc:type rdf:resource="http://purl.org/dc/dcmitype/StillImage"/>
    <dc:date>2025-11-20T19:20:34.939080</dc:date>
    <dc:format>image/svg+xml</dc:format>
    <dc:creator>
     <cc:Agent>
      <dc:title>Matplotlib v3.10.7, https://matplotlib.org/</dc:title>
     </cc:Agent>
    </dc:creator>
   </cc:Work>
  </rdf:RDF>
 </metadata>
 <defs>
  <style type="text/css">*{stroke-linejoin: round; stroke-linecap: butt}</style>
 </defs>
 <g id="figure_1">
  <g id="patch_1">
   <path d="M 0 360 
L 412.6 360 
L 412.6 0 
L 0 0 
z
" style="fill: #ffffff"/>
  </g>
  <g id="patch_2">
   <path d="M 7.2 352.8 
L 352.8 352.8 
L 352.8 7.2 
L 7.2 7.2 
z
" style="fill: #ffffff"/>
  </g>
  <g id="axes_1">
   <g id="line2d_1">
    <path d="M 303.166467 119.107596 
L 283.940186 121.16146 
L 266.803146 122.772453 
L 251.905222 123.956274 
L 239.204289 124.749951 
L 228.638692 125.194199 
L 219.975659 125.341027 
L 212.835957 125.243739 
L 206.729102 124.94346 
L 200.879563 124.432341 
L 193.884802 123.579316 
L 182.949485 122.236559 
L 177.69664 121.836351 
L 173.098038 121.707988 
L 169.110642 121.81193 
L 165.685394 122.113097 
L 162.942732 122.563572 
L 161.475211 122.931003 
L 159.712583 123.624056 
L 158.951751 124.186144 
L 158.682413 124.66082 
L 158.702283 125.075116 
L 158.962933 125.501033 
L 159.528418 125.96666 
L 160.57379 126.509818 
L 162.272396 127.116582 
L 164.804048 127.770857 
L 168.53095 128.49197 
L 174.426716 129.381832 
L 186.358772 131.143056 
L 190.703467 132.038326 
L 194.166237 132.970606 
L 197.227641 134.022701 
L 199.993408 135.209135 
L 202.554235 136.551609 
L 204.927928 138.045579 
L 207.179344 139.725317 
L 209.309197 141.594993 
L 211.277662 143.61658 
L 213.128583 145.835378 
L 214.85643 148.259362 
L 216.426144 150.847817 
L 217.839305 153.604505 
L 219.095631 156.534259 
L 219.095631 156.534259 
" clip-path="url(#pa47ac0c064)" style="fill: none; stroke: #0000ff; stroke-width: 1.5; stroke-linecap: square"/>
   </g>
   <g id="line2d_2">
    <path d="M 295.369371 73.799502 
L 279.157347 74.465615 
L 265.205058 74.82195 
L 253.094986 74.91333 
L 242.58873 74.775885 
L 233.13765 74.43401 
L 224.248545 73.890445 
L 215.335953 73.12141 
L 204.573145 71.954629 
L 183.477261 69.614373 
L 175.135194 68.953179 
L 167.773042 68.591981 
L 161.168921 68.485402 
L 155.059105 68.605918 
L 149.682938 68.924947 
L 144.935127 69.420928 
L 140.902578 70.064228 
L 137.872791 70.758094 
L 135.034768 71.724074 
L 133.605433 72.493459 
L 132.870681 73.140687 
L 132.544867 73.706542 
L 132.493675 74.236894 
L 132.670896 74.747651 
L 133.099131 75.288581 
L 133.865266 75.888049 
L 135.098814 76.560441 
L 136.961355 77.309824 
L 139.638732 78.132638 
L 143.333166 79.020393 
L 148.252648 79.963306 
L 154.955875 81.008477 
L 164.902369 82.312396 
L 184.679159 84.870113 
L 192.052024 86.076518 
L 198.096369 87.287348 
L 203.336275 88.561289 
L 208.036362 89.928696 
L 212.42518 91.43621 
L 216.525525 93.07829 
L 220.441683 94.885791 
L 224.186213 96.858662 
L 227.771955 98.996904 
L 229.318584 100.000994 
L 229.318584 100.000994 
" clip-path="url(#pa47ac0c064)" style="fill: none; stroke: #008000; stroke-width: 1.5; stroke-linecap: square"/>
   </g>
   <g id="line2d_3">
    <path d="M 154.677585 191.70506 
L 155.502414 194.674829 
L 156.514734 197.482272 
L 157.684466 200.077942 
L 159.021082 202.509935 
L 160.518835 204.776417 
L 162.172925 206.875294 
L 163.979695 208.804114 
L 165.889448 210.521242 
L 167.935813 212.067382 
L 170.173619 213.474925 
L 172.549238 214.704699 
L 175.121144 215.788202 
L 178.044373 216.774735 
L 181.42483 217.675603 
L 185.642864 218.560995 
L 192.273376 219.693386 
L 200.637434 221.1627 
L 204.498792 222.068802 
L 207.083198 222.894085 
L 208.76042 223.648423 
L 209.782894 224.335612 
L 210.313593 224.938561 
L 210.504349 225.44629 
L 210.46586 225.936376 
L 210.223936 226.395365 
L 209.847125 226.788195 
L 208.858262 227.423422 
L 207.096869 228.111586 
L 204.997315 228.631915 
L 202.303118 229.045767 
L 199.129229 229.294944 
L 195.537521 229.349067 
L 191.455881 229.178954 
L 186.940677 228.759678 
L 181.591972 228.029218 
L 164.885163 225.565031 
L 159.635395 225.144448 
L 153.979396 224.923146 
L 147.509137 224.90236 
L 139.896915 225.108 
L 130.773988 225.583813 
L 119.8829 226.381076 
L 107.107265 227.544079 
L 92.322762 229.117376 
L 75.389183 231.148986 
L 63.871221 232.644483 
L 63.871221 232.644483 
" clip-path="url(#pa47ac0c064)" style="fill: none; stroke: #bfbf00; stroke-width: 1.5; stroke-linecap: square"/>
   </g>
   <g id="line2d_4">
    <path d="M 145.642622 241.175519 
L 148.229271 243.654833 
L 150.944892 245.94758 
L 153.780515 248.05275 
L 156.796487 250.014071 
L 159.996363 251.826299 
L 163.380542 253.485787 
L 167.034394 255.026874 
L 170.965113 256.443752 
L 175.376331 257.794339 
L 180.397814 259.094436 
L 186.38787 260.409575 
L 194.437192 261.933546 
L 215.125759 265.747608 
L 220.92303 267.101286 
L 225.319983 268.350106 
L 228.712563 269.538196 
L 231.26849 270.65841 
L 233.147163 271.709198 
L 234.490622 272.699702 
L 235.363504 273.591248 
L 235.925457 274.476775 
L 236.173402 275.264295 
L 236.190185 275.998562 
L 235.980209 276.769496 
L 235.587013 277.458735 
L 234.926929 278.206427 
L 234.234176 278.78594 
L 233.059183 279.544957 
L 230.424853 280.754114 
L 228.03906 281.53918 
L 225.078399 282.271052 
L 221.654633 282.885668 
L 217.615184 283.374595 
L 213.23352 283.678233 
L 208.359258 283.788701 
L 203.04714 283.677863 
L 197.483824 283.338395 
L 191.397345 282.741012 
L 184.690958 281.854348 
L 176.621501 280.550801 
L 150.633506 276.158603 
L 143.530603 275.308516 
L 136.491771 274.692292 
L 129.084353 274.273221 
L 121.136349 274.051064 
L 112.298673 274.03202 
L 102.35128 274.239419 
L 91.055244 274.704446 
L 78.339638 275.45444 
L 75.273958 275.665074 
L 75.273958 275.665074 
" clip-path="url(#pa47ac0c064)" style="fill: none; stroke: #ff0000; stroke-width: 1.5; stroke-linecap: square"/>
   </g>
   <g id="line2d_5">
    <path d="M 75.273958 275.665074 
L 295.369371 73.799502 
" clip-path="url(#pa47ac0c064)" style="fill: none; stroke-dasharray: 1.85,0.8; stroke-dashoffset: 0; stroke: #000000; stroke-width: 0.5"/>
   </g>
   <g id="line2d_6">
    <path d="M 142.150853 275.170059 
L 227.767477 74.132688 
" clip-path="url(#pa47ac0c064)" style="fill: none; stroke-dasharray: 1.85,0.8; stroke-dashoffset: 0; stroke: #000000; stroke-width: 0.5"/>
   </g>
   <g id="line2d_7">
    <path d="M 193.762407 282.998899 
L 175.690359 68.989532 
" clip-path="url(#pa47ac0c064)" style="fill: none; stroke-dasharray: 1.85,0.8; stroke-dashoffset: 0; stroke: #000000; stroke-width: 0.5"/>
   </g>
   <g id="line2d_8">
    <path d="M 222.020892 267.390488 
L 145.797887 79.518177 
" clip-path="url(#pa47ac0c064)" style="fill: none; stroke-dasharray: 1.85,0.8; stroke-dashoffset: 0; stroke: #000000; stroke-width: 0.5"/>
   </g>
   <g id="line2d_9">
    <path d="M 175.479957 257.823485 
L 194.560866 86.550126 
" clip-path="url(#pa47ac0c064)" style="fill: none; stroke-dasharray: 1.85,0.8; stroke-dashoffset: 0; stroke: #000000; stroke-width: 0.5"/>
   </g>
   <g id="line2d_10">
    <path d="M 60.031124 156.704996 
L 319.330257 195.45187 
" clip-path="url(#pa47ac0c064)" style="fill: none; stroke: #000000; stroke-width: 0.5; stroke-linecap: square"/>
   </g>
   <g id="line2d_11">
    <path d="M 104.567011 211.239039 
L 254.722622 143.92612 
" clip-path="url(#pa47ac0c064)" style="fill: none; stroke: #000000; stroke-width: 0.5; stroke-linecap: square"/>
   </g>
   <g id="line2d_12">
    <path d="M 184.67027 316.789396 
L 184.67027 27.886816 
" clip-path="url(#pa47ac0c064)" style="fill: none; stroke: #000000; stroke-width: 0.5; stroke-linecap: square"/>
   </g>
   <g id="Path3DCollection_1">
    <defs>
     <path id="m7c51f01c7c" d="M 0 2.236068 
C 0.593012 2.236068 1.161816 2.000462 1.581139 1.581139 
C 2.000462 1.161816 2.236068 0.593012 2.236068 0 
C 2.236068 -0.593012 2.000462 -1.161816 1.581139 -1.581139 
C 1.161816 -2.000462 0.593012 -2.236068 0 -2.236068 
C -0.593012 -2.236068 -1.161816 -2.000462 -1.581139 -1.581139 
C -2.000462 -1.161816 -2.236068 -0.593012 -2.236068 0 
C -2.236068 0.593012 -2.000462 1.161816 -1.581139 1.581139 
C -1.161816 2.000462 -0.593012 2.236068 0 2.236068 
z
" style="stroke: #ff0000"/>
    </defs>
    <g clip-path="url(#pa47ac0c064)">
     <use xlink:href="#m7c51f01c7c" x="175.479957" y="257.823485" style="fill: #ff0000; stroke: #ff0000"/>
    </g>
   </g>
   <g id="text_1">
    <!-- x -->
    <g transform="translate(319.330257 195.45187) scale(0.12 -0.12)">
     <defs>
      <path id="DejaVuSans-78" d="M 3513 3500 
L 2247 1797 
L 3578 0 
L 2900 0 
L 1881 1375 
L 863 0 
L 184 0 
L 1544 1831 
L 300 3500 
L 978 3500 
L 1906 2253 
L 2834 3500 
L 3513 3500 
z
" transform="scale(0.015625)"/>
     </defs>
     <use xlink:href="#DejaVuSans-78"/>
    </g>
   </g>
   <g id="text_2">
    <!-- y -->
    <g transform="translate(254.722622 143.92612) scale(0.12 -0.12)">
     <defs>
      <path id="DejaVuSans-79" d="M 2059 -325 
Q 1816 -950 1584 -1140 
Q 1353 -1331 966 -1331 
L 506 -1331 
L 506 -850 
L 844 -850 
Q 1081 -850 1212 -737 
Q 1344 -625 1503 -206 
L 1606 56 
L 191 3500 
L 800 3500 
L 1894 763 
L 2988 3500 
L 3597 3500 
L 2059 -325 
z
" transform="scale(0.015625)"/>
     </defs>
     <use xlink:href="#DejaVuSans-79"/>
    </g>
   </g>
   <g id="text_3">
    <!-- z -->
    <g transform="translate(184.67027 27.886816) scale(0.12 -0.12)">
     <defs>
      <path id="DejaVuSans-7a" d="M 353 3500 
L 3084 3500 
L 3084 2975 
L 922 459 
L 3084 459 
L 3084 0 
L 275 0 
L 275 525 
L 2438 3041 
L 353 3041 
L 353 3500 
z
" transform="scale(0.015625)"/>
     </defs>
     <use xlink:href="#DejaVuSans-7a"/>
    </g>
   </g>
   <g id="Path3DCollection_2">
    <g clip-path="url(#pa47ac0c064)">
     <use xlink:href="#m7c51f01c7c" x="222.020892" y="267.390488" style="fill: #ff0000; stroke: #ff0000"/>
    </g>
   </g>
   <g id="Path3DCollection_3">
    <defs>
     <path id="mfadf5d3d43" d="M 0 2.236068 
C 0.593012 2.236068 1.161816 2.000462 1.581139 1.581139 
C 2.000462 1.161816 2.236068 0.593012 2.236068 0 
C 2.236068 -0.593012 2.000462 -1.161816 1.581139 -1.581139 
C 1.161816 -2.000462 0.593012 -2.236068 0 -2.236068 
C -0.593012 -2.236068 -1.161816 -2.000462 -1.581139 -1.581139 
C -2.000462 -1.161816 -2.236068 -0.593012 -2.236068 0 
C -2.236068 0.593012 -2.000462 1.161816 -1.581139 1.581139 
C -1.161816 2.000462 -0.593012 2.236068 0 2.236068 
z
" style="stroke: #bfbf00"/>
    </defs>
    <g clip-path="url(#pa47ac0c064)">
     <use xlink:href="#mfadf5d3d43" x="179.99231" y="217.319862" style="fill: #bfbf00; stroke: #bfbf00"/>
    </g>
   </g>
   <g id="Path3DCollection_4">
    <g clip-path="url(#pa47ac0c064)">
     <use xlink:href="#mfadf5d3d43" x="203.530161" y="221.815056" style="fill: #bfbf00; stroke: #bfbf00"/>
    </g>
   </g>
   <g id="Path3DCollection_5">
    <g clip-path="url(#pa47ac0c064)">
     <use xlink:href="#m7c51f01c7c" x="142.150853" y="275.170059" style="fill: #ff0000; stroke: #ff0000"/>
    </g>
   </g>
   <g id="Path3DCollection_6">
    <defs>
     <path id="m67ac7d9c90" d="M 0 2.236068 
C 0.593012 2.236068 1.161816 2.000462 1.581139 1.581139 
C 2.000462 1.161816 2.236068 0.593012 2.236068 0 
C 2.236068 -0.593012 2.000462 -1.161816 1.581139 -1.581139 
C 1.161816 -2.000462 0.593012 -2.236068 0 -2.236068 
C -0.593012 -2.236068 -1.161816 -2.000462 -1.581139 -1.581139 
C -2.000462 -1.161816 -2.236068 -0.593012 -2.236068 0 
C -2.236068 0.593012 -2.000462 1.161816 -1.581139 1.581139 
C -1.161816 2.000462 -0.593012 2.236068 0 2.236068 
z
" style="stroke: #008000"/>
    </defs>
    <g clip-path="url(#pa47ac0c064)">
     <use xlink:href="#m67ac7d9c90" x="175.690359" y="68.989532" style="fill: #008000; stroke: #008000"/>
    </g>
   </g>
   <g id="Path3DCollection_7">
    <g clip-path="url(#pa47ac0c064)">
     <use xlink:href="#m7c51f01c7c" x="75.273958" y="275.665074" style="fill: #ff0000; stroke: #ff0000"/>
    </g>
   </g>
   <g id="Path3DCollection_8">
    <g clip-path="url(#pa47ac0c064)">
     <use xlink:href="#mfadf5d3d43" x="163.339067" y="225.417773" style="fill: #bfbf00; stroke: #bfbf00"/>
    </g>
   </g>
   <g id="Path3DCollection_9">
    <defs>
     <path id="m298ef754b6" d="M 0 2.236068 
C 0.593012 2.236068 1.161816 2.000462 1.581139 1.581139 
C 2.000462 1.161816 2.236068 0.593012 2.236068 0 
C 2.236068 -0.593012 2.000462 -1.161816 1.581139 -1.581139 
C 1.161816 -2.000462 0.593012 -2.236068 0 -2.236068 
C -0.593012 -2.236068 -1.161816 -2.000462 -1.581139 -1.581139 
C -2.000462 -1.161816 -2.236068 -0.593012 -2.236068 0 
C -2.236068 0.593012 -2.000462 1.161816 -1.581139 1.581139 
C -1.161816 2.000462 -0.593012 2.236068 0 2.236068 
z
" style="stroke: #0000ff"/>
    </defs>
    <g clip-path="url(#pa47ac0c064)">
     <use xlink:href="#m298ef754b6" x="180.166417" y="121.995052" style="fill: #0000ff; stroke: #0000ff"/>
    </g>
   </g>
   <g id="Path3DCollection_10">
    <g clip-path="url(#pa47ac0c064)">
     <use xlink:href="#mfadf5d3d43" x="129.810707" y="225.64544" style="fill: #bfbf00; stroke: #bfbf00"/>
    </g>
   </g>
   <g id="Path3DCollection_11">
    <g clip-path="url(#pa47ac0c064)">
     <use xlink:href="#m298ef754b6" x="239.855522" y="124.715306" style="fill: #0000ff; stroke: #0000ff"/>
    </g>
   </g>
   <g id="Path3DCollection_12">
    <g clip-path="url(#pa47ac0c064)">
     <use xlink:href="#mfadf5d3d43" x="189.202179" y="228.996641" style="fill: #bfbf00; stroke: #bfbf00"/>
    </g>
   </g>
   <g id="Path3DCollection_13">
    <g clip-path="url(#pa47ac0c064)">
     <use xlink:href="#m298ef754b6" x="206.145916" y="124.90252" style="fill: #0000ff; stroke: #0000ff"/>
    </g>
   </g>
   <g id="Path3DCollection_14">
    <g clip-path="url(#pa47ac0c064)">
     <use xlink:href="#m67ac7d9c90" x="295.369371" y="73.799502" style="fill: #008000; stroke: #008000"/>
    </g>
   </g>
   <g id="Path3DCollection_15">
    <g clip-path="url(#pa47ac0c064)">
     <use xlink:href="#m7c51f01c7c" x="193.762407" y="282.998899" style="fill: #ff0000; stroke: #ff0000"/>
    </g>
   </g>
   <g id="Path3DCollection_16">
    <g clip-path="url(#pa47ac0c064)">
     <use xlink:href="#m67ac7d9c90" x="227.767477" y="74.132688" style="fill: #008000; stroke: #008000"/>
    </g>
   </g>
   <g id="Path3DCollection_17">
    <g clip-path="url(#pa47ac0c064)">
     <use xlink:href="#m298ef754b6" x="165.430053" y="127.906985" style="fill: #0000ff; stroke: #0000ff"/>
    </g>
   </g>
   <g id="Path3DCollection_18">
    <g clip-path="url(#pa47ac0c064)">
     <use xlink:href="#m298ef754b6" x="189.523124" y="131.769723" style="fill: #0000ff; stroke: #0000ff"/>
    </g>
   </g>
   <g id="Path3DCollection_19">
    <g clip-path="url(#pa47ac0c064)">
     <use xlink:href="#m67ac7d9c90" x="145.797887" y="79.518177" style="fill: #008000; stroke: #008000"/>
    </g>
   </g>
   <g id="Path3DCollection_20">
    <g clip-path="url(#pa47ac0c064)">
     <use xlink:href="#m67ac7d9c90" x="194.560866" y="86.550126" style="fill: #008000; stroke: #008000"/>
    </g>
   </g>
   <g id="Poly3DCollection_1">
    <path d="M 140.120824 237.156583 
L 157.946219 240.189556 
L 168.527221 234.956841 
L 150.809681 231.979599 
z
" clip-path="url(#pa47ac0c064)" style="fill: #c30000; fill-opacity: 0.2"/>
    <path d="M 157.946219 240.189556 
L 175.964923 243.25542 
L 186.435113 237.96607 
L 168.527221 234.956841 
z
" clip-path="url(#pa47ac0c064)" style="fill: #c30000; fill-opacity: 0.2"/>
    <path d="M 129.231486 242.430668 
L 147.165678 245.52095 
L 157.946219 240.189556 
L 140.120824 237.156583 
z
" clip-path="url(#pa47ac0c064)" style="fill: #c30000; fill-opacity: 0.2"/>
    <path d="M 175.964923 243.25542 
L 194.180098 246.354713 
L 204.536441 241.007804 
L 186.435113 237.96607 
z
" clip-path="url(#pa47ac0c064)" style="fill: #c30000; fill-opacity: 0.2"/>
    <path d="M 147.165678 245.52095 
L 165.296203 248.645063 
L 175.964923 243.25542 
L 157.946219 240.189556 
z
" clip-path="url(#pa47ac0c064)" style="fill: #c30000; fill-opacity: 0.2"/>
    <path d="M 194.180098 246.354713 
L 212.594975 249.487985 
L 222.834357 244.082571 
L 204.536441 241.007804 
z
" clip-path="url(#pa47ac0c064)" style="fill: #c30000; fill-opacity: 0.2"/>
    <path d="M 118.135971 247.80461 
L 136.179899 250.953842 
L 147.165678 245.52095 
L 129.231486 242.430668 
z
" clip-path="url(#pa47ac0c064)" style="fill: #c30000; fill-opacity: 0.2"/>
    <path d="M 165.296203 248.645063 
L 183.626303 251.803565 
L 194.180098 246.354713 
L 175.964923 243.25542 
z
" clip-path="url(#pa47ac0c064)" style="fill: #c30000; fill-opacity: 0.2"/>
    <path d="M 212.594975 249.487985 
L 231.212856 252.655798 
L 241.332079 247.190915 
L 222.834357 244.082571 
z
" clip-path="url(#pa47ac0c064)" style="fill: #c30000; fill-opacity: 0.2"/>
    <path d="M 136.179899 250.953842 
L 154.423252 254.13788 
L 165.296203 248.645063 
L 147.165678 245.52095 
z
" clip-path="url(#pa47ac0c064)" style="fill: #c30000; fill-opacity: 0.2"/>
    <path d="M 183.626303 251.803565 
L 202.159291 254.997027 
L 212.594975 249.487985 
L 194.180098 246.354713 
z
" clip-path="url(#pa47ac0c064)" style="fill: #c30000; fill-opacity: 0.2"/>
    <path d="M 231.212856 252.655798 
L 250.037117 255.858726 
L 260.032899 250.333386 
L 241.332079 247.190915 
z
" clip-path="url(#pa47ac0c064)" style="fill: #c30000; fill-opacity: 0.2"/>
    <path d="M 106.82837 253.281273 
L 124.982966 256.491158 
L 136.179899 250.953842 
L 118.135971 247.80461 
z
" clip-path="url(#pa47ac0c064)" style="fill: #c30000; fill-opacity: 0.2"/>
    <path d="M 154.423252 254.13788 
L 172.869354 257.357304 
L 183.626303 251.803565 
L 165.296203 248.645063 
z
" clip-path="url(#pa47ac0c064)" style="fill: #c30000; fill-opacity: 0.2"/>
    <path d="M 202.159291 254.997027 
L 220.898554 258.226033 
L 231.212856 252.655798 
L 212.594975 249.487985 
z
" clip-path="url(#pa47ac0c064)" style="fill: #c30000; fill-opacity: 0.2"/>
    <path d="M 250.037117 255.858726 
L 269.071207 259.097357 
L 278.940181 253.510552 
L 260.032899 250.333386 
z
" clip-path="url(#pa47ac0c064)" style="fill: #c30000; fill-opacity: 0.2"/>
    <path d="M 124.982966 256.491158 
L 143.340149 259.736862 
L 154.423252 254.13788 
L 136.179899 250.953842 
z
" clip-path="url(#pa47ac0c064)" style="fill: #c30000; fill-opacity: 0.2"/>
    <path d="M 172.869354 257.357304 
L 191.521604 260.612707 
L 202.159291 254.997027 
L 183.626303 251.803565 
z
" clip-path="url(#pa47ac0c064)" style="fill: #c30000; fill-opacity: 0.2"/>
    <path d="M 220.898554 258.226033 
L 239.847556 261.49118 
L 250.037117 255.858726 
L 231.212856 252.655798 
z
" clip-path="url(#pa47ac0c064)" style="fill: #c30000; fill-opacity: 0.2"/>
    <path d="M 95.302543 258.863631 
L 113.568731 262.135938 
L 124.982966 256.491158 
L 106.82837 253.281273 
z
" clip-path="url(#pa47ac0c064)" style="fill: #c30000; fill-opacity: 0.2"/>
    <path d="M 269.071207 259.097357 
L 288.318656 262.37229 
L 298.057361 256.722988 
L 278.940181 253.510552 
z
" clip-path="url(#pa47ac0c064)" style="fill: #c30000; fill-opacity: 0.2"/>
    <path d="M 143.340149 259.736862 
L 161.903328 263.018988 
L 172.869354 257.357304 
L 154.423252 254.13788 
z
" clip-path="url(#pa47ac0c064)" style="fill: #c30000; fill-opacity: 0.2"/>
    <path d="M 191.521604 260.612707 
L 210.383478 263.904697 
L 220.898554 258.226033 
L 202.159291 254.997027 
z
" clip-path="url(#pa47ac0c064)" style="fill: #c30000; fill-opacity: 0.2"/>
    <path d="M 239.847556 261.49118 
L 259.009838 264.793077 
L 269.071207 259.097357 
L 250.037117 255.858726 
z
" clip-path="url(#pa47ac0c064)" style="fill: #c30000; fill-opacity: 0.2"/>
    <path d="M 113.568731 262.135938 
L 132.040741 265.445117 
L 143.340149 259.736862 
L 124.982966 256.491158 
z
" clip-path="url(#pa47ac0c064)" style="fill: #c30000; fill-opacity: 0.2"/>
    <path d="M 288.318656 262.37229 
L 307.783071 265.68414 
L 317.387956 259.971287 
L 298.057361 256.722988 
z
" clip-path="url(#pa47ac0c064)" style="fill: #c30000; fill-opacity: 0.2"/>
    <path d="M 161.903328 263.018988 
L 180.675992 266.338152 
L 191.521604 260.612707 
L 172.869354 257.357304 
z
" clip-path="url(#pa47ac0c064)" style="fill: #c30000; fill-opacity: 0.2"/>
    <path d="M 210.383478 263.904697 
L 229.458529 267.233892 
L 239.847556 261.49118 
L 220.898554 258.226033 
z
" clip-path="url(#pa47ac0c064)" style="fill: #c30000; fill-opacity: 0.2"/>
    <path d="M 83.55211 264.554773 
L 101.930808 267.891341 
L 113.568731 262.135938 
L 95.302543 258.863631 
z
" clip-path="url(#pa47ac0c064)" style="fill: #c30000; fill-opacity: 0.2"/>
    <path d="M 259.009838 264.793077 
L 278.389021 268.132349 
L 288.318656 262.37229 
L 269.071207 259.097357 
z
" clip-path="url(#pa47ac0c064)" style="fill: #c30000; fill-opacity: 0.2"/>
    <path d="M 132.040741 265.445117 
L 150.722071 268.791794 
L 161.903328 263.018988 
L 143.340149 259.736862 
z
" clip-path="url(#pa47ac0c064)" style="fill: #c30000; fill-opacity: 0.2"/>
    <path d="M 180.675992 266.338152 
L 199.661707 269.694986 
L 210.383478 263.904697 
L 191.521604 260.612707 
z
" clip-path="url(#pa47ac0c064)" style="fill: #c30000; fill-opacity: 0.2"/>
    <path d="M 229.458529 267.233892 
L 248.750392 270.600928 
L 259.009838 264.793077 
L 239.847556 261.49118 
z
" clip-path="url(#pa47ac0c064)" style="fill: #c30000; fill-opacity: 0.2"/>
    <path d="M 101.930808 267.891341 
L 120.518635 271.265875 
L 132.040741 265.445117 
L 113.568731 262.135938 
z
" clip-path="url(#pa47ac0c064)" style="fill: #c30000; fill-opacity: 0.2"/>
    <path d="M 278.389021 268.132349 
L 297.988808 271.509634 
L 307.783071 265.68414 
L 288.318656 262.37229 
z
" clip-path="url(#pa47ac0c064)" style="fill: #c30000; fill-opacity: 0.2"/>
    <path d="M 150.722071 268.791794 
L 169.616299 272.176611 
L 180.675992 266.338152 
L 161.903328 263.018988 
z
" clip-path="url(#pa47ac0c064)" style="fill: #c30000; fill-opacity: 0.2"/>
    <path d="M 199.661707 269.694986 
L 218.864119 273.090133 
L 229.458529 267.233892 
L 210.383478 263.904697 
z
" clip-path="url(#pa47ac0c064)" style="fill: #c30000; fill-opacity: 0.2"/>
    <path d="M 71.570441 270.357911 
L 90.062554 273.760651 
L 101.930808 267.891341 
L 83.55211 264.554773 
z
" clip-path="url(#pa47ac0c064)" style="fill: #c30000; fill-opacity: 0.2"/>
    <path d="M 248.750392 270.600928 
L 268.262784 274.006453 
L 278.389021 268.132349 
L 259.009838 264.793077 
z
" clip-path="url(#pa47ac0c064)" style="fill: #c30000; fill-opacity: 0.2"/>
    <path d="M 120.518635 271.265875 
L 139.319183 274.679027 
L 150.722071 268.791794 
L 132.040741 265.445117 
z
" clip-path="url(#pa47ac0c064)" style="fill: #c30000; fill-opacity: 0.2"/>
    <path d="M 169.616299 272.176611 
L 188.727086 275.600224 
L 199.661707 269.694986 
L 180.675992 266.338152 
z
" clip-path="url(#pa47ac0c064)" style="fill: #c30000; fill-opacity: 0.2"/>
    <path d="M 218.864119 273.090133 
L 238.28696 276.524255 
L 248.750392 270.600928 
L 229.458529 267.233892 
z
" clip-path="url(#pa47ac0c064)" style="fill: #c30000; fill-opacity: 0.2"/>
    <path d="M 90.062554 273.760651 
L 108.767182 277.202496 
L 120.518635 271.265875 
L 101.930808 267.891341 
z
" clip-path="url(#pa47ac0c064)" style="fill: #c30000; fill-opacity: 0.2"/>
    <path d="M 268.262784 274.006453 
L 287.999508 277.451131 
L 297.988808 271.509634 
L 278.389021 268.132349 
z
" clip-path="url(#pa47ac0c064)" style="fill: #c30000; fill-opacity: 0.2"/>
    <path d="M 139.319183 274.679027 
L 158.336123 278.131465 
L 169.616299 272.176611 
L 150.722071 268.791794 
z
" clip-path="url(#pa47ac0c064)" style="fill: #c30000; fill-opacity: 0.2"/>
    <path d="M 188.727086 275.600224 
L 208.058175 279.063303 
L 218.864119 273.090133 
L 199.661707 269.694986 
z
" clip-path="url(#pa47ac0c064)" style="fill: #c30000; fill-opacity: 0.2"/>
    <path d="M 59.350644 276.276383 
L 77.957064 279.747283 
L 90.062554 273.760651 
L 71.570441 270.357911 
z
" clip-path="url(#pa47ac0c064)" style="fill: #c30000; fill-opacity: 0.2"/>
    <path d="M 238.28696 276.524255 
L 257.934048 279.998024 
L 268.262784 274.006453 
L 248.750392 270.600928 
z
" clip-path="url(#pa47ac0c064)" style="fill: #c30000; fill-opacity: 0.2"/>
    <path d="M 108.767182 277.202496 
L 127.688008 280.684123 
L 139.319183 274.679027 
L 120.518635 271.265875 
z
" clip-path="url(#pa47ac0c064)" style="fill: #c30000; fill-opacity: 0.2"/>
    <path d="M 158.336123 278.131465 
L 177.573214 281.623869 
L 188.727086 275.600224 
L 169.616299 272.176611 
z
" clip-path="url(#pa47ac0c064)" style="fill: #c30000; fill-opacity: 0.2"/>
    <path d="M 208.058175 279.063303 
L 227.613399 282.566535 
L 238.28696 276.524255 
L 218.864119 273.090133 
z
" clip-path="url(#pa47ac0c064)" style="fill: #c30000; fill-opacity: 0.2"/>
    <path d="M 77.957064 279.747283 
L 96.779463 283.258473 
L 108.767182 277.202496 
L 90.062554 273.760651 
z
" clip-path="url(#pa47ac0c064)" style="fill: #c30000; fill-opacity: 0.2"/>
    <path d="M 257.934048 279.998024 
L 277.809289 283.512134 
L 287.999508 277.451131 
L 268.262784 274.006453 
z
" clip-path="url(#pa47ac0c064)" style="fill: #c30000; fill-opacity: 0.2"/>
    <path d="M 127.688008 280.684123 
L 146.828805 284.206227 
L 158.336123 278.131465 
L 139.319183 274.679027 
z
" clip-path="url(#pa47ac0c064)" style="fill: #c30000; fill-opacity: 0.2"/>
    <path d="M 177.573214 281.623869 
L 197.034299 285.156939 
L 208.058175 279.063303 
L 188.727086 275.600224 
z
" clip-path="url(#pa47ac0c064)" style="fill: #c30000; fill-opacity: 0.2"/>
    <path d="M 46.885547 282.313661 
L 65.607154 285.854791 
L 77.957064 279.747283 
L 59.350644 276.276383 
z
" clip-path="url(#pa47ac0c064)" style="fill: #c30000; fill-opacity: 0.2"/>
    <path d="M 227.613399 282.566535 
L 247.396678 286.110622 
L 257.934048 279.998024 
L 238.28696 276.524255 
z
" clip-path="url(#pa47ac0c064)" style="fill: #c30000; fill-opacity: 0.2"/>
    <path d="M 96.779463 283.258473 
L 115.821622 286.810657 
L 127.688008 280.684123 
L 108.767182 277.202496 
z
" clip-path="url(#pa47ac0c064)" style="fill: #c30000; fill-opacity: 0.2"/>
    <path d="M 146.828805 284.206227 
L 166.193429 287.769518 
L 177.573214 281.623869 
L 158.336123 278.131465 
z
" clip-path="url(#pa47ac0c064)" style="fill: #c30000; fill-opacity: 0.2"/>
    <path d="M 197.034299 285.156939 
L 216.723315 288.731389 
L 227.613399 282.566535 
L 208.058175 279.063303 
z
" clip-path="url(#pa47ac0c064)" style="fill: #c30000; fill-opacity: 0.2"/>
    <path d="M 65.607154 285.854791 
L 84.548282 289.437443 
L 96.779463 283.258473 
L 77.957064 279.747283 
z
" clip-path="url(#pa47ac0c064)" style="fill: #c30000; fill-opacity: 0.2"/>
    <path d="M 247.396678 286.110622 
L 267.412026 289.696282 
L 277.809289 283.512134 
L 257.934048 279.998024 
z
" clip-path="url(#pa47ac0c064)" style="fill: #c30000; fill-opacity: 0.2"/>
    <path d="M 115.821622 286.810657 
L 135.087413 290.404559 
L 146.828805 284.206227 
L 127.688008 280.684123 
z
" clip-path="url(#pa47ac0c064)" style="fill: #c30000; fill-opacity: 0.2"/>
    <path d="M 166.193429 287.769518 
L 185.78583 291.374723 
L 197.034299 285.156939 
L 177.573214 281.623869 
z
" clip-path="url(#pa47ac0c064)" style="fill: #c30000; fill-opacity: 0.2"/>
    <path d="M 216.723315 288.731389 
L 236.644289 292.347949 
L 247.396678 286.110622 
L 227.613399 282.566535 
z
" clip-path="url(#pa47ac0c064)" style="fill: #c30000; fill-opacity: 0.2"/>
    <path d="M 84.548282 289.437443 
L 103.712816 293.062351 
L 115.821622 286.810657 
L 96.779463 283.258473 
z
" clip-path="url(#pa47ac0c064)" style="fill: #c30000; fill-opacity: 0.2"/>
    <path d="M 135.087413 290.404559 
L 154.580798 294.040916 
L 166.193429 287.769518 
L 146.828805 284.206227 
z
" clip-path="url(#pa47ac0c064)" style="fill: #c30000; fill-opacity: 0.2"/>
    <path d="M 185.78583 291.374723 
L 205.610051 295.022584 
L 216.723315 288.731389 
L 197.034299 285.156939 
z
" clip-path="url(#pa47ac0c064)" style="fill: #c30000; fill-opacity: 0.2"/>
    <path d="M 236.644289 292.347949 
L 256.801345 296.007369 
L 267.412026 289.696282 
L 247.396678 286.110622 
z
" clip-path="url(#pa47ac0c064)" style="fill: #c30000; fill-opacity: 0.2"/>
    <path d="M 103.712816 293.062351 
L 123.104732 296.730267 
L 135.087413 290.404559 
L 115.821622 286.810657 
z
" clip-path="url(#pa47ac0c064)" style="fill: #c30000; fill-opacity: 0.2"/>
    <path d="M 154.580798 294.040916 
L 174.305834 297.720487 
L 185.78583 291.374723 
L 166.193429 287.769518 
z
" clip-path="url(#pa47ac0c064)" style="fill: #c30000; fill-opacity: 0.2"/>
    <path d="M 205.610051 295.022584 
L 225.67023 298.713864 
L 236.644289 292.347949 
L 216.723315 288.731389 
z
" clip-path="url(#pa47ac0c064)" style="fill: #c30000; fill-opacity: 0.2"/>
    <path d="M 123.104732 296.730267 
L 142.7281 300.441962 
L 154.580798 294.040916 
L 135.087413 290.404559 
z
" clip-path="url(#pa47ac0c064)" style="fill: #c30000; fill-opacity: 0.2"/>
    <path d="M 174.305834 297.720487 
L 194.266676 301.444045 
L 205.610051 295.022584 
L 185.78583 291.374723 
z
" clip-path="url(#pa47ac0c064)" style="fill: #c30000; fill-opacity: 0.2"/>
    <path d="M 225.67023 298.713864 
L 245.970606 302.449343 
L 256.801345 296.007369 
L 236.644289 292.347949 
z
" clip-path="url(#pa47ac0c064)" style="fill: #c30000; fill-opacity: 0.2"/>
    <path d="M 142.7281 300.441962 
L 162.587088 304.198224 
L 174.305834 297.720487 
L 154.580798 294.040916 
z
" clip-path="url(#pa47ac0c064)" style="fill: #c30000; fill-opacity: 0.2"/>
    <path d="M 194.266676 301.444045 
L 214.467576 305.212385 
L 225.67023 298.713864 
L 205.610051 295.022584 
z
" clip-path="url(#pa47ac0c064)" style="fill: #c30000; fill-opacity: 0.2"/>
    <path d="M 162.587088 304.198224 
L 182.685967 307.99986 
L 194.266676 301.444045 
L 174.305834 297.720487 
z
" clip-path="url(#pa47ac0c064)" style="fill: #c30000; fill-opacity: 0.2"/>
    <path d="M 214.467576 305.212385 
L 234.912893 309.026319 
L 245.970606 302.449343 
L 225.67023 298.713864 
z
" clip-path="url(#pa47ac0c064)" style="fill: #c30000; fill-opacity: 0.2"/>
    <path d="M 182.685967 307.99986 
L 203.029109 311.847698 
L 214.467576 305.212385 
L 194.266676 301.444045 
z
" clip-path="url(#pa47ac0c064)" style="fill: #c30000; fill-opacity: 0.2"/>
    <path d="M 203.029109 311.847698 
L 223.620995 315.742584 
L 234.912893 309.026319 
L 214.467576 305.212385 
z
" clip-path="url(#pa47ac0c064)" style="fill: #c30000; fill-opacity: 0.2"/>
   </g>
   <g id="Poly3DCollection_2">
    <path d="M 139.830807 192.172071 
L 157.771301 194.980703 
L 168.422544 190.135161 
L 150.591291 187.378469 
z
" clip-path="url(#pa47ac0c064)" style="fill: #939300; fill-opacity: 0.2"/>
    <path d="M 157.771301 194.980703 
L 175.907633 197.819995 
L 186.446619 192.921663 
L 168.422544 190.135161 
z
" clip-path="url(#pa47ac0c064)" style="fill: #939300; fill-opacity: 0.2"/>
    <path d="M 128.867171 197.056174 
L 146.917867 199.918228 
L 157.771301 194.980703 
L 139.830807 192.172071 
z
" clip-path="url(#pa47ac0c064)" style="fill: #939300; fill-opacity: 0.2"/>
    <path d="M 175.907633 197.819995 
L 194.243027 200.69045 
L 204.666662 195.738462 
L 186.446619 192.921663 
z
" clip-path="url(#pa47ac0c064)" style="fill: #939300; fill-opacity: 0.2"/>
    <path d="M 146.917867 199.918228 
L 165.167484 202.811823 
L 175.907633 197.819995 
L 157.771301 194.980703 
z
" clip-path="url(#pa47ac0c064)" style="fill: #939300; fill-opacity: 0.2"/>
    <path d="M 194.243027 200.69045 
L 212.780778 203.592584 
L 223.085885 198.586053 
L 204.666662 195.738462 
z
" clip-path="url(#pa47ac0c064)" style="fill: #939300; fill-opacity: 0.2"/>
    <path d="M 117.694577 202.033364 
L 135.85643 204.95038 
L 146.917867 199.918228 
L 128.867171 197.056174 
z
" clip-path="url(#pa47ac0c064)" style="fill: #939300; fill-opacity: 0.2"/>
    <path d="M 165.167484 202.811823 
L 183.619328 205.737482 
L 194.243027 200.69045 
L 175.907633 197.819995 
z
" clip-path="url(#pa47ac0c064)" style="fill: #939300; fill-opacity: 0.2"/>
    <path d="M 212.780778 203.592584 
L 231.524255 206.526926 
L 241.707573 201.464946 
L 223.085885 198.586053 
z
" clip-path="url(#pa47ac0c064)" style="fill: #939300; fill-opacity: 0.2"/>
    <path d="M 135.85643 204.95038 
L 154.220358 207.899851 
L 165.167484 202.811823 
L 146.917867 199.918228 
z
" clip-path="url(#pa47ac0c064)" style="fill: #939300; fill-opacity: 0.2"/>
    <path d="M 183.619328 205.737482 
L 202.276781 208.695742 
L 212.780778 203.592584 
L 194.243027 200.69045 
z
" clip-path="url(#pa47ac0c064)" style="fill: #939300; fill-opacity: 0.2"/>
    <path d="M 231.524255 206.526926 
L 250.476902 209.494014 
L 260.535083 204.375658 
L 241.707573 201.464946 
z
" clip-path="url(#pa47ac0c064)" style="fill: #939300; fill-opacity: 0.2"/>
    <path d="M 106.306992 207.106329 
L 124.580952 210.079904 
L 135.85643 204.95038 
L 117.694577 202.033364 
z
" clip-path="url(#pa47ac0c064)" style="fill: #939300; fill-opacity: 0.2"/>
    <path d="M 154.220358 207.899851 
L 172.789752 210.882323 
L 183.619328 205.737482 
L 165.167484 202.811823 
z
" clip-path="url(#pa47ac0c064)" style="fill: #939300; fill-opacity: 0.2"/>
    <path d="M 202.276781 208.695742 
L 221.143297 211.687151 
L 231.524255 206.526926 
L 212.780778 203.592584 
z
" clip-path="url(#pa47ac0c064)" style="fill: #939300; fill-opacity: 0.2"/>
    <path d="M 250.476902 209.494014 
L 269.64224 212.494399 
L 279.571845 207.318721 
L 260.535083 204.375658 
z
" clip-path="url(#pa47ac0c064)" style="fill: #939300; fill-opacity: 0.2"/>
    <path d="M 124.580952 210.079904 
L 143.060213 213.086886 
L 154.220358 207.899851 
L 135.85643 204.95038 
z
" clip-path="url(#pa47ac0c064)" style="fill: #939300; fill-opacity: 0.2"/>
    <path d="M 172.789752 210.882323 
L 191.568079 213.898352 
L 202.276781 208.695742 
L 183.619328 205.737482 
z
" clip-path="url(#pa47ac0c064)" style="fill: #939300; fill-opacity: 0.2"/>
    <path d="M 221.143297 211.687151 
L 240.22241 214.712267 
L 250.476902 209.494014 
L 231.524255 206.526926 
z
" clip-path="url(#pa47ac0c064)" style="fill: #939300; fill-opacity: 0.2"/>
    <path d="M 94.69815 212.277859 
L 113.08516 215.309655 
L 124.580952 210.079904 
L 106.306992 207.106329 
z
" clip-path="url(#pa47ac0c064)" style="fill: #939300; fill-opacity: 0.2"/>
    <path d="M 269.64224 212.494399 
L 289.023869 215.528645 
L 298.821368 210.294676 
L 279.571845 207.318721 
z
" clip-path="url(#pa47ac0c064)" style="fill: #939300; fill-opacity: 0.2"/>
    <path d="M 143.060213 213.086886 
L 161.748253 216.127841 
L 172.789752 210.882323 
L 154.220358 207.899851 
z
" clip-path="url(#pa47ac0c064)" style="fill: #939300; fill-opacity: 0.2"/>
    <path d="M 191.568079 213.898352 
L 210.558887 216.948508 
L 221.143297 211.687151 
L 202.276781 208.695742 
z
" clip-path="url(#pa47ac0c064)" style="fill: #939300; fill-opacity: 0.2"/>
    <path d="M 240.22241 214.712267 
L 259.517734 217.771666 
L 269.64224 212.494399 
L 250.476902 209.494014 
z
" clip-path="url(#pa47ac0c064)" style="fill: #939300; fill-opacity: 0.2"/>
    <path d="M 113.08516 215.309655 
L 131.68077 218.375846 
L 143.060213 213.086886 
L 124.580952 210.079904 
z
" clip-path="url(#pa47ac0c064)" style="fill: #939300; fill-opacity: 0.2"/>
    <path d="M 289.023869 215.528645 
L 308.625471 218.597328 
L 318.287238 213.304078 
L 298.821368 210.294676 
z
" clip-path="url(#pa47ac0c064)" style="fill: #939300; fill-opacity: 0.2"/>
    <path d="M 161.748253 216.127841 
L 180.648631 219.203348 
L 191.568079 213.898352 
L 172.789752 210.882323 
z
" clip-path="url(#pa47ac0c064)" style="fill: #939300; fill-opacity: 0.2"/>
    <path d="M 210.558887 216.948508 
L 229.765802 220.033373 
L 240.22241 214.712267 
L 221.143297 211.687151 
z
" clip-path="url(#pa47ac0c064)" style="fill: #939300; fill-opacity: 0.2"/>
    <path d="M 82.86154 217.550856 
L 101.362533 220.6426 
L 113.08516 215.309655 
L 94.69815 212.277859 
z
" clip-path="url(#pa47ac0c064)" style="fill: #939300; fill-opacity: 0.2"/>
    <path d="M 259.517734 217.771666 
L 279.032966 220.865932 
L 289.023869 215.528645 
L 269.64224 212.494399 
z
" clip-path="url(#pa47ac0c064)" style="fill: #939300; fill-opacity: 0.2"/>
    <path d="M 131.68077 218.375846 
L 150.488551 221.477022 
L 161.748253 216.127841 
L 143.060213 213.086886 
z
" clip-path="url(#pa47ac0c064)" style="fill: #939300; fill-opacity: 0.2"/>
    <path d="M 180.648631 219.203348 
L 199.764987 222.313999 
L 210.558887 216.948508 
L 191.568079 213.898352 
z
" clip-path="url(#pa47ac0c064)" style="fill: #939300; fill-opacity: 0.2"/>
    <path d="M 229.765802 220.033373 
L 249.192533 223.153543 
L 259.517734 217.771666 
L 240.22241 214.712267 
z
" clip-path="url(#pa47ac0c064)" style="fill: #939300; fill-opacity: 0.2"/>
    <path d="M 101.362533 220.6426 
L 120.075503 223.769766 
L 131.68077 218.375846 
L 113.08516 215.309655 
z
" clip-path="url(#pa47ac0c064)" style="fill: #939300; fill-opacity: 0.2"/>
    <path d="M 279.032966 220.865932 
L 298.771887 223.995666 
L 308.625471 218.597328 
L 289.023869 215.528645 
z
" clip-path="url(#pa47ac0c064)" style="fill: #939300; fill-opacity: 0.2"/>
    <path d="M 150.488551 221.477022 
L 169.512153 224.613784 
L 180.648631 219.203348 
L 161.748253 216.127841 
z
" clip-path="url(#pa47ac0c064)" style="fill: #939300; fill-opacity: 0.2"/>
    <path d="M 199.764987 222.313999 
L 219.101043 225.460401 
L 229.765802 220.033373 
L 210.558887 216.948508 
z
" clip-path="url(#pa47ac0c064)" style="fill: #939300; fill-opacity: 0.2"/>
    <path d="M 70.790392 222.928336 
L 89.406291 226.081822 
L 101.362533 220.6426 
L 82.86154 217.550856 
z
" clip-path="url(#pa47ac0c064)" style="fill: #939300; fill-opacity: 0.2"/>
    <path d="M 249.192533 223.153543 
L 268.842877 226.309629 
L 279.032966 220.865932 
L 259.517734 217.771666 
z
" clip-path="url(#pa47ac0c064)" style="fill: #939300; fill-opacity: 0.2"/>
    <path d="M 120.075503 223.769766 
L 139.004112 226.932969 
L 150.488551 221.477022 
L 131.68077 218.375846 
z
" clip-path="url(#pa47ac0c064)" style="fill: #939300; fill-opacity: 0.2"/>
    <path d="M 169.512153 224.613784 
L 188.755314 227.786749 
L 199.764987 222.313999 
L 180.648631 219.203348 
z
" clip-path="url(#pa47ac0c064)" style="fill: #939300; fill-opacity: 0.2"/>
    <path d="M 219.101043 225.460401 
L 238.66061 228.643172 
L 249.192533 223.153543 
L 229.765802 220.033373 
z
" clip-path="url(#pa47ac0c064)" style="fill: #939300; fill-opacity: 0.2"/>
    <path d="M 89.406291 226.081822 
L 108.23762 229.271802 
L 120.075503 223.769766 
L 101.362533 220.6426 
z
" clip-path="url(#pa47ac0c064)" style="fill: #939300; fill-opacity: 0.2"/>
    <path d="M 268.842877 226.309629 
L 288.720716 229.502253 
L 298.771887 223.995666 
L 279.032966 220.865932 
z
" clip-path="url(#pa47ac0c064)" style="fill: #939300; fill-opacity: 0.2"/>
    <path d="M 139.004112 226.932969 
L 158.15211 230.132835 
L 169.512153 224.613784 
L 150.488551 221.477022 
z
" clip-path="url(#pa47ac0c064)" style="fill: #939300; fill-opacity: 0.2"/>
    <path d="M 188.755314 227.786749 
L 208.221856 230.996546 
L 219.101043 225.460401 
L 199.764987 222.313999 
z
" clip-path="url(#pa47ac0c064)" style="fill: #939300; fill-opacity: 0.2"/>
    <path d="M 58.477666 228.413434 
L 77.20938 231.630532 
L 89.406291 226.081822 
L 70.790392 222.928336 
z
" clip-path="url(#pa47ac0c064)" style="fill: #939300; fill-opacity: 0.2"/>
    <path d="M 238.66061 228.643172 
L 258.447584 231.862948 
L 268.842877 226.309629 
L 249.192533 223.153543 
z
" clip-path="url(#pa47ac0c064)" style="fill: #939300; fill-opacity: 0.2"/>
    <path d="M 108.23762 229.271802 
L 127.28814 232.498912 
L 139.004112 226.932969 
L 120.075503 223.769766 
z
" clip-path="url(#pa47ac0c064)" style="fill: #939300; fill-opacity: 0.2"/>
    <path d="M 158.15211 230.132835 
L 177.523333 233.370004 
L 188.755314 227.786749 
L 169.512153 224.613784 
z
" clip-path="url(#pa47ac0c064)" style="fill: #939300; fill-opacity: 0.2"/>
    <path d="M 208.221856 230.996546 
L 227.915692 234.243822 
L 238.66061 228.643172 
L 219.101043 225.460401 
z
" clip-path="url(#pa47ac0c064)" style="fill: #939300; fill-opacity: 0.2"/>
    <path d="M 77.20938 231.630532 
L 96.160058 234.885236 
L 108.23762 229.271802 
L 89.406291 226.081822 
z
" clip-path="url(#pa47ac0c064)" style="fill: #939300; fill-opacity: 0.2"/>
    <path d="M 258.447584 231.862948 
L 278.465956 235.120378 
L 288.720716 229.502253 
L 268.842877 226.309629 
z
" clip-path="url(#pa47ac0c064)" style="fill: #939300; fill-opacity: 0.2"/>
    <path d="M 127.28814 232.498912 
L 146.561701 235.763804 
L 158.15211 230.132835 
L 139.004112 226.932969 
z
" clip-path="url(#pa47ac0c064)" style="fill: #939300; fill-opacity: 0.2"/>
    <path d="M 177.523333 233.370004 
L 197.121708 236.645133 
L 208.221856 230.996546 
L 188.755314 227.786749 
z
" clip-path="url(#pa47ac0c064)" style="fill: #939300; fill-opacity: 0.2"/>
    <path d="M 45.916036 234.009415 
L 64.764458 237.292068 
L 77.20938 231.630532 
L 58.477666 228.413434 
z
" clip-path="url(#pa47ac0c064)" style="fill: #939300; fill-opacity: 0.2"/>
    <path d="M 227.915692 234.243822 
L 247.840826 237.529236 
L 258.447584 231.862948 
L 238.66061 228.643172 
z
" clip-path="url(#pa47ac0c064)" style="fill: #939300; fill-opacity: 0.2"/>
    <path d="M 96.160058 234.885236 
L 115.333563 238.178209 
L 127.28814 232.498912 
L 108.23762 229.271802 
z
" clip-path="url(#pa47ac0c064)" style="fill: #939300; fill-opacity: 0.2"/>
    <path d="M 146.561701 235.763804 
L 166.062242 239.067147 
L 177.523333 233.370004 
L 158.15211 230.132835 
z
" clip-path="url(#pa47ac0c064)" style="fill: #939300; fill-opacity: 0.2"/>
    <path d="M 197.121708 236.645133 
L 216.951253 239.958894 
L 227.915692 234.243822 
L 208.221856 230.996546 
z
" clip-path="url(#pa47ac0c064)" style="fill: #939300; fill-opacity: 0.2"/>
    <path d="M 64.764458 237.292068 
L 83.835463 240.613487 
L 96.160058 234.885236 
L 77.20938 231.630532 
z
" clip-path="url(#pa47ac0c064)" style="fill: #939300; fill-opacity: 0.2"/>
    <path d="M 247.840826 237.529236 
L 268.001357 240.853463 
L 278.465956 235.120378 
L 258.447584 231.862948 
z
" clip-path="url(#pa47ac0c064)" style="fill: #939300; fill-opacity: 0.2"/>
    <path d="M 115.333563 238.178209 
L 134.733847 241.510131 
L 146.561701 235.763804 
L 127.28814 232.498912 
z
" clip-path="url(#pa47ac0c064)" style="fill: #939300; fill-opacity: 0.2"/>
    <path d="M 166.062242 239.067147 
L 185.793797 242.409622 
L 197.121708 236.645133 
L 177.523333 233.370004 
z
" clip-path="url(#pa47ac0c064)" style="fill: #939300; fill-opacity: 0.2"/>
    <path d="M 216.951253 239.958894 
L 237.016083 243.311973 
L 247.840826 237.529236 
L 227.915692 234.243822 
z
" clip-path="url(#pa47ac0c064)" style="fill: #939300; fill-opacity: 0.2"/>
    <path d="M 83.835463 240.613487 
L 103.133015 243.974361 
L 115.333563 238.178209 
L 96.160058 234.885236 
z
" clip-path="url(#pa47ac0c064)" style="fill: #939300; fill-opacity: 0.2"/>
    <path d="M 134.733847 241.510131 
L 154.364959 244.881697 
L 166.062242 239.067147 
L 146.561701 235.763804 
z
" clip-path="url(#pa47ac0c064)" style="fill: #939300; fill-opacity: 0.2"/>
    <path d="M 185.793797 242.409622 
L 205.760496 245.791931 
L 216.951253 239.958894 
L 197.121708 236.645133 
z
" clip-path="url(#pa47ac0c064)" style="fill: #939300; fill-opacity: 0.2"/>
    <path d="M 237.016083 243.311973 
L 257.320411 246.705076 
L 268.001357 240.853463 
L 247.840826 237.529236 
z
" clip-path="url(#pa47ac0c064)" style="fill: #939300; fill-opacity: 0.2"/>
    <path d="M 103.133015 243.974361 
L 122.661177 247.375398 
L 134.733847 241.510131 
L 115.333563 238.178209 
z
" clip-path="url(#pa47ac0c064)" style="fill: #939300; fill-opacity: 0.2"/>
    <path d="M 154.364959 244.881697 
L 174.231043 248.293618 
L 185.793797 242.409622 
L 166.062242 239.067147 
z
" clip-path="url(#pa47ac0c064)" style="fill: #939300; fill-opacity: 0.2"/>
    <path d="M 205.760496 245.791931 
L 225.966567 249.214788 
L 237.016083 243.311973 
L 216.951253 239.958894 
z
" clip-path="url(#pa47ac0c064)" style="fill: #939300; fill-opacity: 0.2"/>
    <path d="M 122.661177 247.375398 
L 142.424107 250.817322 
L 154.364959 244.881697 
L 134.733847 241.510131 
z
" clip-path="url(#pa47ac0c064)" style="fill: #939300; fill-opacity: 0.2"/>
    <path d="M 174.231043 248.293618 
L 194.336342 251.746624 
L 205.760496 245.791931 
L 185.793797 242.409622 
z
" clip-path="url(#pa47ac0c064)" style="fill: #939300; fill-opacity: 0.2"/>
    <path d="M 225.966567 249.214788 
L 246.416341 252.678928 
L 257.320411 246.705076 
L 237.016083 243.311973 
z
" clip-path="url(#pa47ac0c064)" style="fill: #939300; fill-opacity: 0.2"/>
    <path d="M 142.424107 250.817322 
L 162.426064 254.300876 
L 174.231043 248.293618 
L 154.364959 244.881697 
z
" clip-path="url(#pa47ac0c064)" style="fill: #939300; fill-opacity: 0.2"/>
    <path d="M 194.336342 251.746624 
L 214.685203 255.24146 
L 225.966567 249.214788 
L 205.760496 245.791931 
z
" clip-path="url(#pa47ac0c064)" style="fill: #939300; fill-opacity: 0.2"/>
    <path d="M 162.426064 254.300876 
L 182.67141 257.826818 
L 194.336342 251.746624 
L 174.231043 248.293618 
z
" clip-path="url(#pa47ac0c064)" style="fill: #939300; fill-opacity: 0.2"/>
    <path d="M 214.685203 255.24146 
L 235.28208 258.778892 
L 246.416341 252.678928 
L 225.966567 249.214788 
z
" clip-path="url(#pa47ac0c064)" style="fill: #939300; fill-opacity: 0.2"/>
    <path d="M 182.67141 257.826818 
L 203.164616 261.395928 
L 214.685203 255.24146 
L 194.336342 251.746624 
z
" clip-path="url(#pa47ac0c064)" style="fill: #939300; fill-opacity: 0.2"/>
    <path d="M 203.164616 261.395928 
L 223.910261 265.009003 
L 235.28208 258.778892 
L 214.685203 255.24146 
z
" clip-path="url(#pa47ac0c064)" style="fill: #939300; fill-opacity: 0.2"/>
   </g>
   <g id="Poly3DCollection_3">
    <path d="M 139.536988 146.598021 
L 157.594078 149.176136 
L 168.3165 144.728404 
L 150.370065 142.198275 
z
" clip-path="url(#pa47ac0c064)" style="fill-opacity: 0.2"/>
    <path d="M 157.594078 149.176136 
L 175.849583 151.78258 
L 186.458276 147.286072 
L 168.3165 144.728404 
z
" clip-path="url(#pa47ac0c064)" style="fill-opacity: 0.2"/>
    <path d="M 128.498037 151.081381 
L 146.66676 153.70886 
L 157.594078 149.176136 
L 139.536988 146.598021 
z
" clip-path="url(#pa47ac0c064)" style="fill-opacity: 0.2"/>
    <path d="M 175.849583 151.78258 
L 194.306793 154.417823 
L 204.798601 149.871733 
L 186.458276 147.286072 
z
" clip-path="url(#pa47ac0c064)" style="fill-opacity: 0.2"/>
    <path d="M 146.66676 153.70886 
L 165.037043 156.365488 
L 175.849583 151.78258 
L 157.594078 149.176136 
z
" clip-path="url(#pa47ac0c064)" style="fill-opacity: 0.2"/>
    <path d="M 194.306793 154.417823 
L 212.96907 157.082344 
L 223.340751 152.485847 
L 204.798601 149.871733 
z
" clip-path="url(#pa47ac0c064)" style="fill-opacity: 0.2"/>
    <path d="M 117.247287 155.650761 
L 135.528616 158.329036 
L 146.66676 153.70886 
L 128.498037 151.081381 
z
" clip-path="url(#pa47ac0c064)" style="fill-opacity: 0.2"/>
    <path d="M 165.037043 156.365488 
L 183.61226 159.051753 
L 194.306793 154.417823 
L 175.849583 151.78258 
z
" clip-path="url(#pa47ac0c064)" style="fill-opacity: 0.2"/>
    <path d="M 212.96907 157.082344 
L 231.839849 159.776634 
L 242.088078 155.128887 
L 223.340751 152.485847 
z
" clip-path="url(#pa47ac0c064)" style="fill-opacity: 0.2"/>
    <path d="M 135.528616 158.329036 
L 154.014723 161.037312 
L 165.037043 156.365488 
L 146.66676 153.70886 
z
" clip-path="url(#pa47ac0c064)" style="fill-opacity: 0.2"/>
    <path d="M 183.61226 159.051753 
L 202.39586 161.768154 
L 212.96907 157.082344 
L 194.306793 154.417823 
z
" clip-path="url(#pa47ac0c064)" style="fill-opacity: 0.2"/>
    <path d="M 231.839849 159.776634 
L 250.922646 162.501195 
L 261.044004 157.801336 
L 242.088078 155.128887 
z
" clip-path="url(#pa47ac0c064)" style="fill-opacity: 0.2"/>
    <path d="M 105.778581 160.308661 
L 124.173486 163.03922 
L 135.528616 158.329036 
L 117.247287 155.650761 
z
" clip-path="url(#pa47ac0c064)" style="fill-opacity: 0.2"/>
    <path d="M 154.014723 161.037312 
L 172.709068 163.776096 
L 183.61226 159.051753 
L 165.037043 156.365488 
z
" clip-path="url(#pa47ac0c064)" style="fill-opacity: 0.2"/>
    <path d="M 202.39586 161.768154 
L 221.391368 164.515199 
L 231.839849 159.776634 
L 212.96907 157.082344 
z
" clip-path="url(#pa47ac0c064)" style="fill-opacity: 0.2"/>
    <path d="M 250.922646 162.501195 
L 270.221052 165.25654 
L 280.212031 160.503688 
L 261.044004 157.801336 
z
" clip-path="url(#pa47ac0c064)" style="fill-opacity: 0.2"/>
    <path d="M 124.173486 163.03922 
L 142.776459 165.800664 
L 154.014723 161.037312 
L 135.528616 158.329036 
z
" clip-path="url(#pa47ac0c064)" style="fill-opacity: 0.2"/>
    <path d="M 172.709068 163.776096 
L 191.615189 166.545905 
L 202.39586 161.768154 
L 183.61226 159.051753 
z
" clip-path="url(#pa47ac0c064)" style="fill-opacity: 0.2"/>
    <path d="M 221.391368 164.515199 
L 240.602391 167.293412 
L 250.922646 162.501195 
L 231.839849 159.776634 
z
" clip-path="url(#pa47ac0c064)" style="fill-opacity: 0.2"/>
    <path d="M 94.085526 165.057678 
L 112.594966 167.842067 
L 124.173486 163.03922 
L 105.778581 160.308661 
z
" clip-path="url(#pa47ac0c064)" style="fill-opacity: 0.2"/>
    <path d="M 270.221052 165.25654 
L 289.738743 168.043194 
L 299.59574 163.236447 
L 280.212031 160.503688 
z
" clip-path="url(#pa47ac0c064)" style="fill-opacity: 0.2"/>
    <path d="M 142.776459 165.800664 
L 161.591051 168.593522 
L 172.709068 163.776096 
L 154.014723 161.037312 
z
" clip-path="url(#pa47ac0c064)" style="fill-opacity: 0.2"/>
    <path d="M 191.615189 166.545905 
L 210.736706 169.347271 
L 221.391368 164.515199 
L 202.39586 161.768154 
z
" clip-path="url(#pa47ac0c064)" style="fill-opacity: 0.2"/>
    <path d="M 240.602391 167.293412 
L 260.032618 170.103324 
L 270.221052 165.25654 
L 250.922646 162.501195 
z
" clip-path="url(#pa47ac0c064)" style="fill-opacity: 0.2"/>
    <path d="M 112.594966 167.842067 
L 131.315841 170.658261 
L 142.776459 165.800664 
L 124.173486 163.03922 
z
" clip-path="url(#pa47ac0c064)" style="fill-opacity: 0.2"/>
    <path d="M 289.738743 168.043194 
L 309.479478 170.861693 
L 319.19879 166.000129 
L 299.59574 163.236447 
z
" clip-path="url(#pa47ac0c064)" style="fill-opacity: 0.2"/>
    <path d="M 161.591051 168.593522 
L 180.620892 171.418331 
L 191.615189 166.545905 
L 172.709068 163.776096 
z
" clip-path="url(#pa47ac0c064)" style="fill-opacity: 0.2"/>
    <path d="M 210.736706 169.347271 
L 230.07732 172.180735 
L 240.602391 167.293412 
L 221.391368 164.515199 
z
" clip-path="url(#pa47ac0c064)" style="fill-opacity: 0.2"/>
    <path d="M 82.161473 169.900514 
L 100.786399 172.740339 
L 112.594966 167.842067 
L 94.085526 165.057678 
z
" clip-path="url(#pa47ac0c064)" style="fill-opacity: 0.2"/>
    <path d="M 260.032618 170.103324 
L 279.685823 172.945483 
L 289.738743 168.043194 
L 270.221052 165.25654 
z
" clip-path="url(#pa47ac0c064)" style="fill-opacity: 0.2"/>
    <path d="M 131.315841 170.658261 
L 150.251795 173.50681 
L 161.591051 168.593522 
L 142.776459 165.800664 
z
" clip-path="url(#pa47ac0c064)" style="fill-opacity: 0.2"/>
    <path d="M 180.620892 171.418331 
L 199.8697 174.275644 
L 210.736706 169.347271 
L 191.615189 166.545905 
z
" clip-path="url(#pa47ac0c064)" style="fill-opacity: 0.2"/>
    <path d="M 230.07732 172.180735 
L 249.640819 175.046852 
L 260.032618 170.103324 
L 240.602391 167.293412 
z
" clip-path="url(#pa47ac0c064)" style="fill-opacity: 0.2"/>
    <path d="M 100.786399 172.740339 
L 119.626206 175.612927 
L 131.315841 170.658261 
L 112.594966 167.842067 
z
" clip-path="url(#pa47ac0c064)" style="fill-opacity: 0.2"/>
    <path d="M 279.685823 172.945483 
L 299.565864 175.820446 
L 309.479478 170.861693 
L 289.738743 168.043194 
z
" clip-path="url(#pa47ac0c064)" style="fill-opacity: 0.2"/>
    <path d="M 150.251795 173.50681 
L 169.406556 176.388274 
L 180.620892 171.418331 
L 161.591051 168.593522 
z
" clip-path="url(#pa47ac0c064)" style="fill-opacity: 0.2"/>
    <path d="M 199.8697 174.275644 
L 219.341273 177.166024 
L 230.07732 172.180735 
L 210.736706 169.347271 
z
" clip-path="url(#pa47ac0c064)" style="fill-opacity: 0.2"/>
    <path d="M 69.999508 174.839974 
L 88.74086 177.736908 
L 100.786399 172.740339 
L 82.161473 169.900514 
z
" clip-path="url(#pa47ac0c064)" style="fill-opacity: 0.2"/>
    <path d="M 249.640819 175.046852 
L 269.431078 177.946191 
L 279.685823 172.945483 
L 260.032618 170.103324 
z
" clip-path="url(#pa47ac0c064)" style="fill-opacity: 0.2"/>
    <path d="M 119.626206 175.612927 
L 138.684632 178.51885 
L 150.251795 173.50681 
L 131.315841 170.658261 
z
" clip-path="url(#pa47ac0c064)" style="fill-opacity: 0.2"/>
    <path d="M 169.406556 176.388274 
L 188.783937 179.303227 
L 199.8697 174.275644 
L 180.620892 171.418331 
z
" clip-path="url(#pa47ac0c064)" style="fill-opacity: 0.2"/>
    <path d="M 219.341273 177.166024 
L 239.039503 180.09005 
L 249.640819 175.046852 
L 230.07732 172.180735 
z
" clip-path="url(#pa47ac0c064)" style="fill-opacity: 0.2"/>
    <path d="M 88.74086 177.736908 
L 107.700618 180.667602 
L 119.626206 175.612927 
L 100.786399 172.740339 
z
" clip-path="url(#pa47ac0c064)" style="fill-opacity: 0.2"/>
    <path d="M 269.431078 177.946191 
L 289.452063 180.879331 
L 299.565864 175.820446 
L 279.685823 172.945483 
z
" clip-path="url(#pa47ac0c064)" style="fill-opacity: 0.2"/>
    <path d="M 138.684632 178.51885 
L 157.965506 181.45869 
L 169.406556 176.388274 
L 150.251795 173.50681 
z
" clip-path="url(#pa47ac0c064)" style="fill-opacity: 0.2"/>
    <path d="M 188.783937 179.303227 
L 208.387844 182.252256 
L 219.341273 177.166024 
L 199.8697 174.275644 
z
" clip-path="url(#pa47ac0c064)" style="fill-opacity: 0.2"/>
    <path d="M 57.592441 179.878981 
L 76.451144 182.834764 
L 88.74086 177.736908 
L 69.999508 174.839974 
z
" clip-path="url(#pa47ac0c064)" style="fill-opacity: 0.2"/>
    <path d="M 239.039503 180.09005 
L 258.96837 183.048312 
L 269.431078 177.946191 
L 249.640819 175.046852 
z
" clip-path="url(#pa47ac0c064)" style="fill-opacity: 0.2"/>
    <path d="M 107.700618 180.667602 
L 126.88262 183.63265 
L 138.684632 178.51885 
L 119.626206 175.612927 
z
" clip-path="url(#pa47ac0c064)" style="fill-opacity: 0.2"/>
    <path d="M 157.965506 181.45869 
L 177.472746 184.433046 
L 188.783937 179.303227 
L 169.406556 176.388274 
z
" clip-path="url(#pa47ac0c064)" style="fill-opacity: 0.2"/>
    <path d="M 208.387844 182.252256 
L 228.22227 185.235963 
L 239.039503 180.09005 
L 219.341273 177.166024 
z
" clip-path="url(#pa47ac0c064)" style="fill-opacity: 0.2"/>
    <path d="M 76.451144 182.834764 
L 95.53186 185.825345 
L 107.700618 180.667602 
L 88.74086 177.736908 
z
" clip-path="url(#pa47ac0c064)" style="fill-opacity: 0.2"/>
    <path d="M 258.96837 183.048312 
L 279.131948 186.041414 
L 289.452063 180.879331 
L 269.431078 177.946191 
z
" clip-path="url(#pa47ac0c064)" style="fill-opacity: 0.2"/>
    <path d="M 126.88262 183.63265 
L 146.2908 186.632659 
L 157.965506 181.45869 
L 138.684632 178.51885 
z
" clip-path="url(#pa47ac0c064)" style="fill-opacity: 0.2"/>
    <path d="M 177.472746 184.433046 
L 197.210361 187.442527 
L 208.387844 182.252256 
L 188.783937 179.303227 
z
" clip-path="url(#pa47ac0c064)" style="fill-opacity: 0.2"/>
    <path d="M 44.932784 185.020574 
L 63.909749 188.037018 
L 76.451144 182.834764 
L 57.592441 179.878981 
z
" clip-path="url(#pa47ac0c064)" style="fill-opacity: 0.2"/>
    <path d="M 228.22227 185.235963 
L 248.291308 188.254962 
L 258.96837 183.048312 
L 239.039503 180.09005 
z
" clip-path="url(#pa47ac0c064)" style="fill-opacity: 0.2"/>
    <path d="M 95.53186 185.825345 
L 114.838535 188.85134 
L 126.88262 183.63265 
L 107.700618 180.667602 
z
" clip-path="url(#pa47ac0c064)" style="fill-opacity: 0.2"/>
    <path d="M 146.2908 186.632659 
L 165.929179 189.66825 
L 177.472746 184.433046 
L 157.965506 181.45869 
z
" clip-path="url(#pa47ac0c064)" style="fill-opacity: 0.2"/>
    <path d="M 197.210361 187.442527 
L 217.182456 190.487761 
L 228.22227 185.235963 
L 208.387844 182.252256 
z
" clip-path="url(#pa47ac0c064)" style="fill-opacity: 0.2"/>
    <path d="M 63.909749 188.037018 
L 83.11242 191.08934 
L 95.53186 185.825345 
L 76.451144 182.834764 
z
" clip-path="url(#pa47ac0c064)" style="fill-opacity: 0.2"/>
    <path d="M 248.291308 188.254962 
L 268.599143 191.309884 
L 279.131948 186.041414 
L 258.96837 183.048312 
z
" clip-path="url(#pa47ac0c064)" style="fill-opacity: 0.2"/>
    <path d="M 114.838535 188.85134 
L 134.375204 191.913384 
L 146.2908 186.632659 
L 126.88262 183.63265 
z
" clip-path="url(#pa47ac0c064)" style="fill-opacity: 0.2"/>
    <path d="M 165.929179 189.66825 
L 185.80188 192.740062 
L 197.210361 187.442527 
L 177.472746 184.433046 
z
" clip-path="url(#pa47ac0c064)" style="fill-opacity: 0.2"/>
    <path d="M 217.182456 190.487761 
L 237.393235 193.569388 
L 248.291308 188.254962 
L 228.22227 185.235963 
z
" clip-path="url(#pa47ac0c064)" style="fill-opacity: 0.2"/>
    <path d="M 83.11242 191.08934 
L 102.544849 194.178182 
L 114.838535 188.85134 
L 95.53186 185.825345 
z
" clip-path="url(#pa47ac0c064)" style="fill-opacity: 0.2"/>
    <path d="M 134.375204 191.913384 
L 154.146002 195.012123 
L 165.929179 189.66825 
L 146.2908 186.632659 
z
" clip-path="url(#pa47ac0c064)" style="fill-opacity: 0.2"/>
    <path d="M 185.80188 192.740062 
L 205.913119 195.848746 
L 217.182456 190.487761 
L 197.210361 187.442527 
z
" clip-path="url(#pa47ac0c064)" style="fill-opacity: 0.2"/>
    <path d="M 237.393235 193.569388 
L 257.847003 196.688064 
L 268.599143 191.309884 
L 248.291308 188.254962 
z
" clip-path="url(#pa47ac0c064)" style="fill-opacity: 0.2"/>
    <path d="M 102.544849 194.178182 
L 122.211185 197.304204 
L 134.375204 191.913384 
L 114.838535 188.85134 
z
" clip-path="url(#pa47ac0c064)" style="fill-opacity: 0.2"/>
    <path d="M 154.146002 195.012123 
L 174.155164 198.148222 
L 185.80188 192.740062 
L 165.929179 189.66825 
z
" clip-path="url(#pa47ac0c064)" style="fill-opacity: 0.2"/>
    <path d="M 205.913119 195.848746 
L 226.267219 198.99497 
L 237.393235 193.569388 
L 217.182456 190.487761 
z
" clip-path="url(#pa47ac0c064)" style="fill-opacity: 0.2"/>
    <path d="M 122.211185 197.304204 
L 142.115676 200.468082 
L 154.146002 195.012123 
L 134.375204 191.913384 
z
" clip-path="url(#pa47ac0c064)" style="fill-opacity: 0.2"/>
    <path d="M 174.155164 198.148222 
L 194.407026 201.322359 
L 205.913119 195.848746 
L 185.80188 192.740062 
z
" clip-path="url(#pa47ac0c064)" style="fill-opacity: 0.2"/>
    <path d="M 226.267219 198.99497 
L 246.868605 202.179418 
L 257.847003 196.688064 
L 237.393235 193.569388 
z
" clip-path="url(#pa47ac0c064)" style="fill-opacity: 0.2"/>
    <path d="M 142.115676 200.468082 
L 162.262673 203.670507 
L 174.155164 198.148222 
L 154.146002 195.012123 
z
" clip-path="url(#pa47ac0c064)" style="fill-opacity: 0.2"/>
    <path d="M 194.407026 201.322359 
L 214.906032 204.535233 
L 226.267219 198.99497 
L 205.913119 195.848746 
z
" clip-path="url(#pa47ac0c064)" style="fill-opacity: 0.2"/>
    <path d="M 162.262673 203.670507 
L 182.656638 206.912188 
L 194.407026 201.322359 
L 174.155164 198.148222 
z
" clip-path="url(#pa47ac0c064)" style="fill-opacity: 0.2"/>
    <path d="M 214.906032 204.535233 
L 235.656732 207.787555 
L 246.868605 202.179418 
L 226.267219 198.99497 
z
" clip-path="url(#pa47ac0c064)" style="fill-opacity: 0.2"/>
    <path d="M 182.656638 206.912188 
L 203.302138 210.193851 
L 214.906032 204.535233 
L 194.407026 201.322359 
z
" clip-path="url(#pa47ac0c064)" style="fill-opacity: 0.2"/>
    <path d="M 203.302138 210.193851 
L 224.203856 213.516241 
L 235.656732 207.787555 
L 214.906032 204.535233 
z
" clip-path="url(#pa47ac0c064)" style="fill-opacity: 0.2"/>
   </g>
   <g id="Poly3DCollection_4">
    <path d="M 139.239294 100.422768 
L 157.414504 102.764001 
L 168.209062 98.72504 
L 150.145947 96.427668 
z
" clip-path="url(#pa47ac0c064)" style="fill: #0000c3; fill-opacity: 0.2"/>
    <path d="M 157.414504 102.764001 
L 175.790759 105.131132 
L 186.470087 101.047583 
L 168.209062 98.72504 
z
" clip-path="url(#pa47ac0c064)" style="fill: #0000c3; fill-opacity: 0.2"/>
    <path d="M 128.123987 104.494297 
L 146.412289 106.880659 
L 157.414504 102.764001 
L 139.239294 100.422768 
z
" clip-path="url(#pa47ac0c064)" style="fill: #0000c3; fill-opacity: 0.2"/>
    <path d="M 175.790759 105.131132 
L 194.371415 107.524592 
L 204.932293 103.395714 
L 186.470087 101.047583 
z
" clip-path="url(#pa47ac0c064)" style="fill: #0000c3; fill-opacity: 0.2"/>
    <path d="M 146.412289 106.880659 
L 164.904845 109.293674 
L 175.790759 105.131132 
L 157.414504 102.764001 
z
" clip-path="url(#pa47ac0c064)" style="fill: #0000c3; fill-opacity: 0.2"/>
    <path d="M 194.371415 107.524592 
L 213.159901 109.944824 
L 223.599022 105.769857 
L 204.932293 103.395714 
z
" clip-path="url(#pa47ac0c064)" style="fill: #0000c3; fill-opacity: 0.2"/>
    <path d="M 116.793982 108.64447 
L 135.196369 111.077279 
L 146.412289 106.880659 
L 128.123987 104.494297 
z
" clip-path="url(#pa47ac0c064)" style="fill: #0000c3; fill-opacity: 0.2"/>
    <path d="M 164.904845 109.293674 
L 183.605096 111.73379 
L 194.371415 107.524592 
L 175.790759 105.131132 
z
" clip-path="url(#pa47ac0c064)" style="fill: #0000c3; fill-opacity: 0.2"/>
    <path d="M 213.159901 109.944824 
L 232.159724 112.39228 
L 242.473693 108.170447 
L 223.599022 105.769857 
z
" clip-path="url(#pa47ac0c064)" style="fill: #0000c3; fill-opacity: 0.2"/>
    <path d="M 135.196369 111.077279 
L 153.806292 113.537525 
L 164.904845 109.293674 
L 146.412289 106.880659 
z
" clip-path="url(#pa47ac0c064)" style="fill: #0000c3; fill-opacity: 0.2"/>
    <path d="M 183.605096 111.73379 
L 202.51656 114.201467 
L 213.159901 109.944824 
L 194.371415 107.524592 
z
" clip-path="url(#pa47ac0c064)" style="fill: #0000c3; fill-opacity: 0.2"/>
    <path d="M 232.159724 112.39228 
L 251.374469 114.86742 
L 261.559799 110.597929 
L 242.473693 108.170447 
z
" clip-path="url(#pa47ac0c064)" style="fill: #0000c3; fill-opacity: 0.2"/>
    <path d="M 105.242996 112.875587 
L 123.760456 115.356213 
L 135.196369 111.077279 
L 116.793982 108.64447 
z
" clip-path="url(#pa47ac0c064)" style="fill: #0000c3; fill-opacity: 0.2"/>
    <path d="M 153.806292 113.537525 
L 172.627281 116.025674 
L 183.605096 111.73379 
L 164.904845 109.293674 
z
" clip-path="url(#pa47ac0c064)" style="fill: #0000c3; fill-opacity: 0.2"/>
    <path d="M 202.51656 114.201467 
L 221.642837 116.697173 
L 232.159724 112.39228 
L 213.159901 109.944824 
z
" clip-path="url(#pa47ac0c064)" style="fill: #0000c3; fill-opacity: 0.2"/>
    <path d="M 251.374469 114.86742 
L 270.807804 117.370718 
L 280.860914 113.052757 
L 261.559799 110.597929 
z
" clip-path="url(#pa47ac0c064)" style="fill: #0000c3; fill-opacity: 0.2"/>
    <path d="M 123.760456 115.356213 
L 142.488808 117.865091 
L 153.806292 113.537525 
L 135.196369 111.077279 
z
" clip-path="url(#pa47ac0c064)" style="fill: #0000c3; fill-opacity: 0.2"/>
    <path d="M 172.627281 116.025674 
L 191.662947 118.542204 
L 202.51656 114.201467 
L 183.605096 111.73379 
z
" clip-path="url(#pa47ac0c064)" style="fill: #0000c3; fill-opacity: 0.2"/>
    <path d="M 221.642837 116.697173 
L 240.987607 119.22139 
L 251.374469 114.86742 
L 232.159724 112.39228 
z
" clip-path="url(#pa47ac0c064)" style="fill: #0000c3; fill-opacity: 0.2"/>
    <path d="M 93.464503 117.190041 
L 112.098013 119.719907 
L 123.760456 115.356213 
L 105.242996 112.875587 
z
" clip-path="url(#pa47ac0c064)" style="fill: #0000c3; fill-opacity: 0.2"/>
    <path d="M 270.807804 117.370718 
L 290.46348 119.902657 
L 300.38069 115.535396 
L 280.860914 113.052757 
z
" clip-path="url(#pa47ac0c064)" style="fill: #0000c3; fill-opacity: 0.2"/>
    <path d="M 142.488808 117.865091 
L 161.431677 120.402706 
L 172.627281 116.025674 
L 153.806292 113.537525 
z
" clip-path="url(#pa47ac0c064)" style="fill: #0000c3; fill-opacity: 0.2"/>
    <path d="M 191.662947 118.542204 
L 210.916984 121.087602 
L 221.642837 116.697173 
L 202.51656 114.201467 
z
" clip-path="url(#pa47ac0c064)" style="fill: #0000c3; fill-opacity: 0.2"/>
    <path d="M 240.987607 119.22139 
L 260.554636 121.774608 
L 270.807804 117.370718 
L 251.374469 114.86742 
z
" clip-path="url(#pa47ac0c064)" style="fill: #0000c3; fill-opacity: 0.2"/>
    <path d="M 112.098013 119.719907 
L 130.945851 122.278873 
L 142.488808 117.865091 
L 123.760456 115.356213 
z
" clip-path="url(#pa47ac0c064)" style="fill: #0000c3; fill-opacity: 0.2"/>
    <path d="M 290.46348 119.902657 
L 310.345335 122.463731 
L 320.122865 118.04632 
L 300.38069 115.535396 
z
" clip-path="url(#pa47ac0c064)" style="fill: #0000c3; fill-opacity: 0.2"/>
    <path d="M 161.431677 120.402706 
L 180.592768 122.969554 
L 191.662947 118.542204 
L 172.627281 116.025674 
z
" clip-path="url(#pa47ac0c064)" style="fill: #0000c3; fill-opacity: 0.2"/>
    <path d="M 210.916984 121.087602 
L 230.393172 123.662369 
L 240.987607 119.22139 
L 221.642837 116.697173 
z
" clip-path="url(#pa47ac0c064)" style="fill: #0000c3; fill-opacity: 0.2"/>
    <path d="M 81.451712 121.590318 
L 100.202241 124.170905 
L 112.098013 119.719907 
L 93.464503 117.190041 
z
" clip-path="url(#pa47ac0c064)" style="fill: #0000c3; fill-opacity: 0.2"/>
    <path d="M 260.554636 121.774608 
L 280.347775 124.35733 
L 290.46348 119.902657 
L 270.807804 117.370718 
z
" clip-path="url(#pa47ac0c064)" style="fill: #0000c3; fill-opacity: 0.2"/>
    <path d="M 130.945851 122.278873 
L 150.011737 124.867443 
L 161.431677 120.402706 
L 142.488808 117.865091 
z
" clip-path="url(#pa47ac0c064)" style="fill: #0000c3; fill-opacity: 0.2"/>
    <path d="M 180.592768 122.969554 
L 199.975875 125.566143 
L 210.916984 121.087602 
L 191.662947 118.542204 
z
" clip-path="url(#pa47ac0c064)" style="fill: #0000c3; fill-opacity: 0.2"/>
    <path d="M 230.393172 123.662369 
L 250.095377 126.267016 
L 260.554636 121.774608 
L 240.987607 119.22139 
z
" clip-path="url(#pa47ac0c064)" style="fill: #0000c3; fill-opacity: 0.2"/>
    <path d="M 100.202241 124.170905 
L 119.170614 126.781474 
L 130.945851 122.278873 
L 112.098013 119.719907 
z
" clip-path="url(#pa47ac0c064)" style="fill: #0000c3; fill-opacity: 0.2"/>
    <path d="M 280.347775 124.35733 
L 300.370969 126.970072 
L 310.345335 122.463731 
L 290.46348 119.902657 
z
" clip-path="url(#pa47ac0c064)" style="fill: #0000c3; fill-opacity: 0.2"/>
    <path d="M 150.011737 124.867443 
L 169.299477 127.486134 
L 180.592768 122.969554 
L 161.431677 120.402706 
z
" clip-path="url(#pa47ac0c064)" style="fill: #0000c3; fill-opacity: 0.2"/>
    <path d="M 199.975875 125.566143 
L 219.58488 128.192994 
L 230.393172 123.662369 
L 210.916984 121.087602 
z
" clip-path="url(#pa47ac0c064)" style="fill: #0000c3; fill-opacity: 0.2"/>
    <path d="M 69.197563 126.079004 
L 88.066068 128.711853 
L 100.202241 124.170905 
L 81.451712 121.590318 
z
" clip-path="url(#pa47ac0c064)" style="fill: #0000c3; fill-opacity: 0.2"/>
    <path d="M 250.095377 126.267016 
L 270.027558 128.902065 
L 280.347775 124.35733 
L 260.554636 121.774608 
z
" clip-path="url(#pa47ac0c064)" style="fill: #0000c3; fill-opacity: 0.2"/>
    <path d="M 119.170614 126.781474 
L 138.360651 129.422549 
L 150.011737 124.867443 
L 130.945851 122.278873 
z
" clip-path="url(#pa47ac0c064)" style="fill: #0000c3; fill-opacity: 0.2"/>
    <path d="M 169.299477 127.486134 
L 188.812965 130.135474 
L 199.975875 125.566143 
L 180.592768 122.969554 
z
" clip-path="url(#pa47ac0c064)" style="fill: #0000c3; fill-opacity: 0.2"/>
    <path d="M 219.58488 128.192994 
L 239.423753 130.850639 
L 250.095377 126.267016 
L 230.393172 123.662369 
z
" clip-path="url(#pa47ac0c064)" style="fill: #0000c3; fill-opacity: 0.2"/>
    <path d="M 88.066068 128.711853 
L 107.156016 131.375601 
L 119.170614 126.781474 
L 100.202241 124.170905 
z
" clip-path="url(#pa47ac0c064)" style="fill: #0000c3; fill-opacity: 0.2"/>
    <path d="M 270.027558 128.902065 
L 290.193763 131.568053 
L 300.370969 126.970072 
L 280.347775 124.35733 
z
" clip-path="url(#pa47ac0c064)" style="fill: #0000c3; fill-opacity: 0.2"/>
    <path d="M 138.360651 129.422549 
L 157.776258 132.094669 
L 169.299477 127.486134 
L 150.011737 124.867443 
z
" clip-path="url(#pa47ac0c064)" style="fill: #0000c3; fill-opacity: 0.2"/>
    <path d="M 188.812965 130.135474 
L 208.556188 132.816006 
L 219.58488 128.192994 
L 199.975875 125.566143 
z
" clip-path="url(#pa47ac0c064)" style="fill: #0000c3; fill-opacity: 0.2"/>
    <path d="M 56.694708 130.658791 
L 75.682132 133.345505 
L 88.066068 128.711853 
L 69.197563 126.079004 
z
" clip-path="url(#pa47ac0c064)" style="fill: #0000c3; fill-opacity: 0.2"/>
    <path d="M 239.423753 130.850639 
L 259.496561 133.539622 
L 270.027558 128.902065 
L 250.095377 126.267016 
z
" clip-path="url(#pa47ac0c064)" style="fill: #0000c3; fill-opacity: 0.2"/>
    <path d="M 107.156016 131.375601 
L 126.471328 134.070796 
L 138.360651 129.422549 
L 119.170614 126.781474 
z
" clip-path="url(#pa47ac0c064)" style="fill: #0000c3; fill-opacity: 0.2"/>
    <path d="M 157.776258 132.094669 
L 177.421438 134.798385 
L 188.812965 130.135474 
L 169.299477 127.486134 
z
" clip-path="url(#pa47ac0c064)" style="fill: #0000c3; fill-opacity: 0.2"/>
    <path d="M 208.556188 132.816006 
L 228.533227 135.528283 
L 239.423753 130.850639 
L 219.58488 128.192994 
z
" clip-path="url(#pa47ac0c064)" style="fill: #0000c3; fill-opacity: 0.2"/>
    <path d="M 75.682132 133.345505 
L 94.894682 136.064075 
L 107.156016 131.375601 
L 88.066068 128.711853 
z
" clip-path="url(#pa47ac0c064)" style="fill: #0000c3; fill-opacity: 0.2"/>
    <path d="M 259.496561 133.539622 
L 279.807466 136.2605 
L 290.193763 131.568053 
L 270.027558 128.902065 
z
" clip-path="url(#pa47ac0c064)" style="fill: #0000c3; fill-opacity: 0.2"/>
    <path d="M 126.471328 134.070796 
L 146.016019 136.797998 
L 157.776258 132.094669 
L 138.360651 129.422549 
z
" clip-path="url(#pa47ac0c064)" style="fill: #0000c3; fill-opacity: 0.2"/>
    <path d="M 177.421438 134.798385 
L 197.300285 137.53426 
L 208.556188 132.816006 
L 188.812965 130.135474 
z
" clip-path="url(#pa47ac0c064)" style="fill: #0000c3; fill-opacity: 0.2"/>
    <path d="M 43.935498 135.33248 
L 63.042767 138.07473 
L 75.682132 133.345505 
L 56.694708 130.658791 
z
" clip-path="url(#pa47ac0c064)" style="fill: #0000c3; fill-opacity: 0.2"/>
    <path d="M 228.533227 135.528283 
L 248.748261 138.272872 
L 259.496561 133.539622 
L 239.423753 130.850639 
z
" clip-path="url(#pa47ac0c064)" style="fill: #0000c3; fill-opacity: 0.2"/>
    <path d="M 94.894682 136.064075 
L 114.336387 138.81507 
L 126.471328 134.070796 
L 107.156016 131.375601 
z
" clip-path="url(#pa47ac0c064)" style="fill: #0000c3; fill-opacity: 0.2"/>
    <path d="M 146.016019 136.797998 
L 165.7942 139.55778 
L 177.421438 134.798385 
L 157.776258 132.094669 
z
" clip-path="url(#pa47ac0c064)" style="fill: #0000c3; fill-opacity: 0.2"/>
    <path d="M 197.300285 137.53426 
L 217.416995 140.302871 
L 228.533227 135.528283 
L 208.556188 132.816006 
z
" clip-path="url(#pa47ac0c064)" style="fill: #0000c3; fill-opacity: 0.2"/>
    <path d="M 63.042767 138.07473 
L 82.378934 140.849832 
L 94.894682 136.064075 
L 75.682132 133.345505 
z
" clip-path="url(#pa47ac0c064)" style="fill: #0000c3; fill-opacity: 0.2"/>
    <path d="M 248.748261 138.272872 
L 269.205567 141.050355 
L 279.807466 136.2605 
L 259.496561 133.539622 
z
" clip-path="url(#pa47ac0c064)" style="fill: #0000c3; fill-opacity: 0.2"/>
    <path d="M 114.336387 138.81507 
L 134.011371 141.599074 
L 146.016019 136.797998 
L 126.471328 134.070796 
z
" clip-path="url(#pa47ac0c064)" style="fill: #0000c3; fill-opacity: 0.2"/>
    <path d="M 165.7942 139.55778 
L 185.810079 142.35073 
L 197.300285 137.53426 
L 177.421438 134.798385 
z
" clip-path="url(#pa47ac0c064)" style="fill: #0000c3; fill-opacity: 0.2"/>
    <path d="M 217.416995 140.302871 
L 237.775861 143.104809 
L 248.748261 138.272872 
L 228.533227 135.528283 
z
" clip-path="url(#pa47ac0c064)" style="fill: #0000c3; fill-opacity: 0.2"/>
    <path d="M 82.378934 140.849832 
L 101.948137 143.658378 
L 114.336387 138.81507 
L 94.894682 136.064075 
z
" clip-path="url(#pa47ac0c064)" style="fill: #0000c3; fill-opacity: 0.2"/>
    <path d="M 134.011371 141.599074 
L 153.923858 144.416685 
L 165.7942 139.55778 
L 146.016019 136.797998 
z
" clip-path="url(#pa47ac0c064)" style="fill: #0000c3; fill-opacity: 0.2"/>
    <path d="M 185.810079 142.35073 
L 206.067967 145.177449 
L 217.416995 140.302871 
L 197.300285 137.53426 
z
" clip-path="url(#pa47ac0c064)" style="fill: #0000c3; fill-opacity: 0.2"/>
    <path d="M 237.775861 143.104809 
L 258.381284 145.940681 
L 269.205567 141.050355 
L 248.748261 138.272872 
z
" clip-path="url(#pa47ac0c064)" style="fill: #0000c3; fill-opacity: 0.2"/>
    <path d="M 101.948137 143.658378 
L 121.754614 146.500978 
L 134.011371 141.599074 
L 114.336387 138.81507 
z
" clip-path="url(#pa47ac0c064)" style="fill: #0000c3; fill-opacity: 0.2"/>
    <path d="M 153.923858 144.416685 
L 174.078174 147.268514 
L 185.810079 142.35073 
L 165.7942 139.55778 
z
" clip-path="url(#pa47ac0c064)" style="fill: #0000c3; fill-opacity: 0.2"/>
    <path d="M 206.067967 145.177449 
L 226.572281 148.038553 
L 237.775861 143.104809 
L 217.416995 140.302871 
z
" clip-path="url(#pa47ac0c064)" style="fill: #0000c3; fill-opacity: 0.2"/>
    <path d="M 121.754614 146.500978 
L 141.802707 149.378254 
L 153.923858 144.416685 
L 134.011371 141.599074 
z
" clip-path="url(#pa47ac0c064)" style="fill: #0000c3; fill-opacity: 0.2"/>
    <path d="M 174.078174 147.268514 
L 194.478753 150.15519 
L 206.067967 145.177449 
L 185.810079 142.35073 
z
" clip-path="url(#pa47ac0c064)" style="fill: #0000c3; fill-opacity: 0.2"/>
    <path d="M 226.572281 148.038553 
L 247.327543 150.934674 
L 258.381284 145.940681 
L 237.775861 143.104809 
z
" clip-path="url(#pa47ac0c064)" style="fill: #0000c3; fill-opacity: 0.2"/>
    <path d="M 141.802707 149.378254 
L 162.096865 152.290845 
L 174.078174 147.268514 
L 153.923858 144.416685 
z
" clip-path="url(#pa47ac0c064)" style="fill: #0000c3; fill-opacity: 0.2"/>
    <path d="M 194.478753 150.15519 
L 215.130134 153.077354 
L 226.572281 148.038553 
L 206.067967 145.177449 
z
" clip-path="url(#pa47ac0c064)" style="fill: #0000c3; fill-opacity: 0.2"/>
    <path d="M 162.096865 152.290845 
L 182.641646 155.239405 
L 194.478753 150.15519 
L 174.078174 147.268514 
z
" clip-path="url(#pa47ac0c064)" style="fill: #0000c3; fill-opacity: 0.2"/>
    <path d="M 215.130134 153.077354 
L 236.036972 156.035665 
L 247.327543 150.934674 
L 226.572281 148.038553 
z
" clip-path="url(#pa47ac0c064)" style="fill: #0000c3; fill-opacity: 0.2"/>
    <path d="M 182.641646 155.239405 
L 203.44172 158.224604 
L 215.130134 153.077354 
L 194.478753 150.15519 
z
" clip-path="url(#pa47ac0c064)" style="fill: #0000c3; fill-opacity: 0.2"/>
    <path d="M 203.44172 158.224604 
L 224.501877 161.24713 
L 236.036972 156.035665 
L 215.130134 153.077354 
z
" clip-path="url(#pa47ac0c064)" style="fill: #0000c3; fill-opacity: 0.2"/>
   </g>
   <g id="Poly3DCollection_5">
    <path d="M 138.937646 53.634336 
L 157.232532 55.732129 
L 168.100204 52.113233 
L 149.918882 50.054999 
z
" clip-path="url(#pa47ac0c064)" style="fill: #006200; fill-opacity: 0.2"/>
    <path d="M 157.232532 55.732129 
L 175.731145 57.853282 
L 186.482055 54.194169 
L 168.100204 52.113233 
z
" clip-path="url(#pa47ac0c064)" style="fill: #006200; fill-opacity: 0.2"/>
    <path d="M 127.744922 57.282608 
L 146.154388 59.421111 
L 157.232532 55.732129 
L 138.937646 53.634336 
z
" clip-path="url(#pa47ac0c064)" style="fill: #006200; fill-opacity: 0.2"/>
    <path d="M 175.731145 57.853282 
L 194.43691 59.998189 
L 205.067772 56.298183 
L 186.482055 54.194169 
z
" clip-path="url(#pa47ac0c064)" style="fill: #006200; fill-opacity: 0.2"/>
    <path d="M 146.154388 59.421111 
L 164.770856 61.58366 
L 175.731145 57.853282 
L 157.232532 55.732129 
z
" clip-path="url(#pa47ac0c064)" style="fill: #006200; fill-opacity: 0.2"/>
    <path d="M 194.43691 59.998189 
L 213.353324 62.16725 
L 223.860766 58.425662 
L 205.067772 56.298183 
z
" clip-path="url(#pa47ac0c064)" style="fill: #006200; fill-opacity: 0.2"/>
    <path d="M 116.33454 61.001825 
L 134.8596 63.182235 
L 146.154388 59.421111 
L 127.744922 57.282608 
z
" clip-path="url(#pa47ac0c064)" style="fill: #006200; fill-opacity: 0.2"/>
    <path d="M 164.770856 61.58366 
L 183.597834 63.770663 
L 194.43691 59.998189 
L 175.731145 57.853282 
z
" clip-path="url(#pa47ac0c064)" style="fill: #006200; fill-opacity: 0.2"/>
    <path d="M 213.353324 62.16725 
L 232.483966 64.360876 
L 242.864523 60.577001 
L 223.860766 58.425662 
z
" clip-path="url(#pa47ac0c064)" style="fill: #006200; fill-opacity: 0.2"/>
    <path d="M 134.8596 63.182235 
L 153.595008 65.387403 
L 164.770856 61.58366 
L 146.154388 59.421111 
z
" clip-path="url(#pa47ac0c064)" style="fill: #006200; fill-opacity: 0.2"/>
    <path d="M 183.597834 63.770663 
L 202.638916 65.982536 
L 213.353324 62.16725 
L 194.43691 59.998189 
z
" clip-path="url(#pa47ac0c064)" style="fill: #006200; fill-opacity: 0.2"/>
    <path d="M 232.483966 64.360876 
L 251.832497 66.579485 
L 262.082609 62.752604 
L 242.864523 60.577001 
z
" clip-path="url(#pa47ac0c064)" style="fill: #006200; fill-opacity: 0.2"/>
    <path d="M 104.70009 64.794078 
L 123.341748 67.017639 
L 134.8596 63.182235 
L 116.33454 61.001825 
z
" clip-path="url(#pa47ac0c064)" style="fill: #006200; fill-opacity: 0.2"/>
    <path d="M 153.595008 65.387403 
L 172.544368 67.617754 
L 183.597834 63.770663 
L 164.770856 61.58366 
z
" clip-path="url(#pa47ac0c064)" style="fill: #006200; fill-opacity: 0.2"/>
    <path d="M 202.638916 65.982536 
L 221.897774 68.219707 
L 232.483966 64.360876 
L 213.353324 62.16725 
z
" clip-path="url(#pa47ac0c064)" style="fill: #006200; fill-opacity: 0.2"/>
    <path d="M 251.832497 66.579485 
L 271.402659 68.823509 
L 281.51867 64.952882 
L 262.082609 62.752604 
z
" clip-path="url(#pa47ac0c064)" style="fill: #006200; fill-opacity: 0.2"/>
    <path d="M 123.341748 67.017639 
L 142.197181 69.266698 
L 153.595008 65.387403 
L 134.8596 63.182235 
z
" clip-path="url(#pa47ac0c064)" style="fill: #006200; fill-opacity: 0.2"/>
    <path d="M 172.544368 67.617754 
L 191.711367 69.87372 
L 202.638916 65.982536 
L 183.597834 63.770663 
z
" clip-path="url(#pa47ac0c064)" style="fill: #006200; fill-opacity: 0.2"/>
    <path d="M 221.897774 68.219707 
L 241.378165 70.482613 
L 251.832497 66.579485 
L 232.483966 64.360876 
z
" clip-path="url(#pa47ac0c064)" style="fill: #006200; fill-opacity: 0.2"/>
    <path d="M 92.834905 68.661539 
L 111.594158 70.929544 
L 123.341748 67.017639 
L 104.70009 64.794078 
z
" clip-path="url(#pa47ac0c064)" style="fill: #006200; fill-opacity: 0.2"/>
    <path d="M 271.402659 68.823509 
L 291.198284 71.093385 
L 301.176436 67.178259 
L 281.51867 64.952882 
z
" clip-path="url(#pa47ac0c064)" style="fill: #006200; fill-opacity: 0.2"/>
    <path d="M 142.197181 69.266698 
L 161.270087 71.541698 
L 172.544368 67.617754 
L 153.595008 65.387403 
z
" clip-path="url(#pa47ac0c064)" style="fill: #006200; fill-opacity: 0.2"/>
    <path d="M 191.711367 69.87372 
L 211.099774 72.155746 
L 221.897774 68.219707 
L 202.638916 65.982536 
z
" clip-path="url(#pa47ac0c064)" style="fill: #006200; fill-opacity: 0.2"/>
    <path d="M 241.378165 70.482613 
L 261.083935 72.771698 
L 271.402659 68.823509 
L 251.832497 66.579485 
z
" clip-path="url(#pa47ac0c064)" style="fill: #006200; fill-opacity: 0.2"/>
    <path d="M 111.594158 70.929544 
L 130.570693 73.223819 
L 142.197181 69.266698 
L 123.341748 67.017639 
z
" clip-path="url(#pa47ac0c064)" style="fill: #006200; fill-opacity: 0.2"/>
    <path d="M 291.198284 71.093385 
L 311.223289 73.389563 
L 321.059723 69.429166 
L 301.176436 67.178259 
z
" clip-path="url(#pa47ac0c064)" style="fill: #006200; fill-opacity: 0.2"/>
    <path d="M 161.270087 71.541698 
L 180.564251 73.843089 
L 191.711367 69.87372 
L 172.544368 67.617754 
z
" clip-path="url(#pa47ac0c064)" style="fill: #006200; fill-opacity: 0.2"/>
    <path d="M 211.099774 72.155746 
L 230.713449 74.464287 
L 241.378165 70.482613 
L 221.897774 68.219707 
z
" clip-path="url(#pa47ac0c064)" style="fill: #006200; fill-opacity: 0.2"/>
    <path d="M 80.732053 72.606467 
L 99.609889 74.920263 
L 111.594158 70.929544 
L 92.834905 68.661539 
z
" clip-path="url(#pa47ac0c064)" style="fill: #006200; fill-opacity: 0.2"/>
    <path d="M 261.083935 72.771698 
L 281.019016 75.087422 
L 291.198284 71.093385 
L 271.402659 68.823509 
z
" clip-path="url(#pa47ac0c064)" style="fill: #006200; fill-opacity: 0.2"/>
    <path d="M 130.570693 73.223819 
L 149.768307 75.544822 
L 161.270087 71.541698 
L 142.197181 69.266698 
z
" clip-path="url(#pa47ac0c064)" style="fill: #006200; fill-opacity: 0.2"/>
    <path d="M 180.564251 73.843089 
L 200.083545 76.171333 
L 211.099774 72.155746 
L 191.711367 69.87372 
z
" clip-path="url(#pa47ac0c064)" style="fill: #006200; fill-opacity: 0.2"/>
    <path d="M 230.713449 74.464287 
L 250.556341 76.799806 
L 261.083935 72.771698 
L 241.378165 70.482613 
z
" clip-path="url(#pa47ac0c064)" style="fill: #006200; fill-opacity: 0.2"/>
    <path d="M 99.609889 74.920263 
L 118.708596 77.26113 
L 130.570693 73.223819 
L 111.594158 70.929544 
z
" clip-path="url(#pa47ac0c064)" style="fill: #006200; fill-opacity: 0.2"/>
    <path d="M 281.019016 75.087422 
L 301.187436 77.430251 
L 311.223289 73.389563 
L 291.198284 71.093385 
z
" clip-path="url(#pa47ac0c064)" style="fill: #006200; fill-opacity: 0.2"/>
    <path d="M 149.768307 75.544822 
L 169.190885 77.893023 
L 180.564251 73.843089 
L 161.270087 71.541698 
z
" clip-path="url(#pa47ac0c064)" style="fill: #006200; fill-opacity: 0.2"/>
    <path d="M 200.083545 76.171333 
L 219.831933 78.526903 
L 230.713449 74.464287 
L 211.099774 72.155746 
z
" clip-path="url(#pa47ac0c064)" style="fill: #006200; fill-opacity: 0.2"/>
    <path d="M 68.384321 76.631214 
L 87.381715 78.992201 
L 99.609889 74.920263 
L 80.732053 72.606467 
z
" clip-path="url(#pa47ac0c064)" style="fill: #006200; fill-opacity: 0.2"/>
    <path d="M 250.556341 76.799806 
L 270.632492 79.16278 
L 281.019016 75.087422 
L 261.083935 72.771698 
z
" clip-path="url(#pa47ac0c064)" style="fill: #006200; fill-opacity: 0.2"/>
    <path d="M 118.708596 77.26113 
L 138.032072 79.629546 
L 149.768307 75.544822 
L 130.570693 73.223819 
z
" clip-path="url(#pa47ac0c064)" style="fill: #006200; fill-opacity: 0.2"/>
    <path d="M 169.190885 77.893023 
L 188.842404 80.268904 
L 200.083545 76.171333 
L 180.564251 73.843089 
z
" clip-path="url(#pa47ac0c064)" style="fill: #006200; fill-opacity: 0.2"/>
    <path d="M 219.831933 78.526903 
L 239.813472 80.910284 
L 250.556341 76.799806 
L 230.713449 74.464287 
z
" clip-path="url(#pa47ac0c064)" style="fill: #006200; fill-opacity: 0.2"/>
    <path d="M 87.381715 78.992201 
L 106.603652 81.381094 
L 118.708596 77.26113 
L 99.609889 74.920263 
z
" clip-path="url(#pa47ac0c064)" style="fill: #006200; fill-opacity: 0.2"/>
    <path d="M 270.632492 79.16278 
L 290.946038 81.553696 
L 301.187436 77.430251 
L 281.019016 75.087422 
z
" clip-path="url(#pa47ac0c064)" style="fill: #006200; fill-opacity: 0.2"/>
    <path d="M 138.032072 79.629546 
L 157.584309 82.026001 
L 169.190885 77.893023 
L 149.768307 75.544822 
z
" clip-path="url(#pa47ac0c064)" style="fill: #006200; fill-opacity: 0.2"/>
    <path d="M 188.842404 80.268904 
L 208.726938 82.672956 
L 219.831933 78.526903 
L 200.083545 76.171333 
z
" clip-path="url(#pa47ac0c064)" style="fill: #006200; fill-opacity: 0.2"/>
    <path d="M 55.784201 80.738228 
L 74.902112 83.147864 
L 87.381715 78.992201 
L 68.384321 76.631214 
z
" clip-path="url(#pa47ac0c064)" style="fill: #006200; fill-opacity: 0.2"/>
    <path d="M 239.813472 80.910284 
L 260.032315 83.32197 
L 270.632492 79.16278 
L 250.556341 76.799806 
z
" clip-path="url(#pa47ac0c064)" style="fill: #006200; fill-opacity: 0.2"/>
    <path d="M 106.603652 81.381094 
L 126.054139 83.798392 
L 138.032072 79.629546 
L 118.708596 77.26113 
z
" clip-path="url(#pa47ac0c064)" style="fill: #006200; fill-opacity: 0.2"/>
    <path d="M 157.584309 82.026001 
L 177.369393 84.450995 
L 188.842404 80.268904 
L 169.190885 77.893023 
z
" clip-path="url(#pa47ac0c064)" style="fill: #006200; fill-opacity: 0.2"/>
    <path d="M 208.726938 82.672956 
L 228.848656 85.105683 
L 239.813472 80.910284 
L 219.831933 78.526903 
z
" clip-path="url(#pa47ac0c064)" style="fill: #006200; fill-opacity: 0.2"/>
    <path d="M 74.902112 83.147864 
L 94.248329 85.586277 
L 106.603652 81.381094 
L 87.381715 78.992201 
z
" clip-path="url(#pa47ac0c064)" style="fill: #006200; fill-opacity: 0.2"/>
    <path d="M 260.032315 83.32197 
L 280.492715 85.762468 
L 290.946038 81.553696 
L 270.632492 79.16278 
z
" clip-path="url(#pa47ac0c064)" style="fill: #006200; fill-opacity: 0.2"/>
    <path d="M 126.054139 83.798392 
L 145.737276 86.244602 
L 157.584309 82.026001 
L 138.032072 79.629546 
z
" clip-path="url(#pa47ac0c064)" style="fill: #006200; fill-opacity: 0.2"/>
    <path d="M 177.369393 84.450995 
L 197.391509 86.905041 
L 208.726938 82.672956 
L 188.842404 80.268904 
z
" clip-path="url(#pa47ac0c064)" style="fill: #006200; fill-opacity: 0.2"/>
    <path d="M 42.923875 84.930055 
L 62.163246 87.389861 
L 74.902112 83.147864 
L 55.784201 80.738228 
z
" clip-path="url(#pa47ac0c064)" style="fill: #006200; fill-opacity: 0.2"/>
    <path d="M 228.848656 85.105683 
L 249.211825 87.567603 
L 260.032315 83.32197 
L 239.813472 80.910284 
z
" clip-path="url(#pa47ac0c064)" style="fill: #006200; fill-opacity: 0.2"/>
    <path d="M 94.248329 85.586277 
L 113.826965 88.053984 
L 126.054139 83.798392 
L 106.603652 81.381094 
z
" clip-path="url(#pa47ac0c064)" style="fill: #006200; fill-opacity: 0.2"/>
    <path d="M 145.737276 86.244602 
L 165.657262 88.720249 
L 177.369393 84.450995 
L 157.584309 82.026001 
z
" clip-path="url(#pa47ac0c064)" style="fill: #006200; fill-opacity: 0.2"/>
    <path d="M 197.391509 86.905041 
L 217.654942 89.388665 
L 228.848656 85.105683 
L 208.726938 82.672956 
z
" clip-path="url(#pa47ac0c064)" style="fill: #006200; fill-opacity: 0.2"/>
    <path d="M 62.163246 87.389861 
L 81.634775 89.879349 
L 94.248329 85.586277 
L 74.902112 83.147864 
z
" clip-path="url(#pa47ac0c064)" style="fill: #006200; fill-opacity: 0.2"/>
    <path d="M 249.211825 87.567603 
L 269.820819 90.059243 
L 280.492715 85.762468 
L 260.032315 83.32197 
z
" clip-path="url(#pa47ac0c064)" style="fill: #006200; fill-opacity: 0.2"/>
    <path d="M 113.826965 88.053984 
L 133.642236 90.551517 
L 145.737276 86.244602 
L 126.054139 83.798392 
z
" clip-path="url(#pa47ac0c064)" style="fill: #006200; fill-opacity: 0.2"/>
    <path d="M 165.657262 88.720249 
L 185.818398 91.225865 
L 197.391509 86.905041 
L 177.369393 84.450995 
z
" clip-path="url(#pa47ac0c064)" style="fill: #006200; fill-opacity: 0.2"/>
    <path d="M 217.654942 89.388665 
L 238.164082 91.902404 
L 249.211825 87.567603 
L 228.848656 85.105683 
z
" clip-path="url(#pa47ac0c064)" style="fill: #006200; fill-opacity: 0.2"/>
    <path d="M 81.634775 89.879349 
L 101.342689 92.39906 
L 113.826965 88.053984 
L 94.248329 85.586277 
z
" clip-path="url(#pa47ac0c064)" style="fill: #006200; fill-opacity: 0.2"/>
    <path d="M 133.642236 90.551517 
L 153.698457 93.079419 
L 165.657262 88.720249 
L 145.737276 86.244602 
z
" clip-path="url(#pa47ac0c064)" style="fill: #006200; fill-opacity: 0.2"/>
    <path d="M 185.818398 91.225865 
L 206.225089 93.761999 
L 217.654942 89.388665 
L 197.391509 86.905041 
z
" clip-path="url(#pa47ac0c064)" style="fill: #006200; fill-opacity: 0.2"/>
    <path d="M 238.164082 91.902404 
L 258.923424 94.446809 
L 269.820819 90.059243 
L 249.211825 87.567603 
z
" clip-path="url(#pa47ac0c064)" style="fill: #006200; fill-opacity: 0.2"/>
    <path d="M 101.342689 92.39906 
L 121.291319 94.949547 
L 133.642236 90.551517 
L 113.826965 88.053984 
z
" clip-path="url(#pa47ac0c064)" style="fill: #006200; fill-opacity: 0.2"/>
    <path d="M 153.698457 93.079419 
L 174.000049 95.638248 
L 185.818398 91.225865 
L 165.657262 88.720249 
z
" clip-path="url(#pa47ac0c064)" style="fill: #006200; fill-opacity: 0.2"/>
    <path d="M 206.225089 93.761999 
L 226.88185 96.329211 
L 238.164082 91.902404 
L 217.654942 89.388665 
z
" clip-path="url(#pa47ac0c064)" style="fill: #006200; fill-opacity: 0.2"/>
    <path d="M 121.291319 94.949547 
L 141.485102 97.531377 
L 153.698457 93.079419 
L 133.642236 90.551517 
z
" clip-path="url(#pa47ac0c064)" style="fill: #006200; fill-opacity: 0.2"/>
    <path d="M 174.000049 95.638248 
L 194.551544 98.228575 
L 206.225089 93.761999 
L 185.818398 91.225865 
z
" clip-path="url(#pa47ac0c064)" style="fill: #006200; fill-opacity: 0.2"/>
    <path d="M 226.88185 96.329211 
L 247.793305 98.928076 
L 258.923424 94.446809 
L 238.164082 91.902404 
z
" clip-path="url(#pa47ac0c064)" style="fill: #006200; fill-opacity: 0.2"/>
    <path d="M 141.485102 97.531377 
L 161.928585 100.145132 
L 174.000049 95.638248 
L 153.698457 93.079419 
z
" clip-path="url(#pa47ac0c064)" style="fill: #006200; fill-opacity: 0.2"/>
    <path d="M 194.551544 98.228575 
L 215.357583 100.850985 
L 226.88185 96.329211 
L 206.225089 93.761999 
z
" clip-path="url(#pa47ac0c064)" style="fill: #006200; fill-opacity: 0.2"/>
    <path d="M 161.928585 100.145132 
L 182.626429 102.791408 
L 194.551544 98.228575 
L 174.000049 95.638248 
z
" clip-path="url(#pa47ac0c064)" style="fill: #006200; fill-opacity: 0.2"/>
    <path d="M 215.357583 100.850985 
L 236.422927 103.506078 
L 247.793305 98.928076 
L 226.88185 96.329211 
z
" clip-path="url(#pa47ac0c064)" style="fill: #006200; fill-opacity: 0.2"/>
    <path d="M 182.626429 102.791408 
L 203.58341 105.470815 
L 215.357583 100.850985 
L 194.551544 98.228575 
z
" clip-path="url(#pa47ac0c064)" style="fill: #006200; fill-opacity: 0.2"/>
    <path d="M 203.58341 105.470815 
L 224.804425 108.18398 
L 236.422927 103.506078 
L 215.357583 100.850985 
z
" clip-path="url(#pa47ac0c064)" style="fill: #006200; fill-opacity: 0.2"/>
   </g>
  </g>
  <g id="legend_1">
   <g id="patch_3">
    <path d="M 343.645312 81.390625 
L 405.6 81.390625 
Q 407.6 81.390625 407.6 79.390625 
L 407.6 7 
Q 407.6 5 405.6 5 
L 343.645312 5 
Q 341.645312 5 341.645312 7 
L 341.645312 79.390625 
Q 341.645312 81.390625 343.645312 81.390625 
z
" style="fill: #ffffff; opacity: 0.8; stroke: #cccccc; stroke-linejoin: miter"/>
   </g>
   <g id="patch_4">
    <path d="M 345.645312 16.598437 
L 365.645312 16.598437 
L 365.645312 9.598437 
L 345.645312 9.598437 
z
" style="fill: #006200; fill-opacity: 0.2"/>
   </g>
   <g id="text_4">
    <!-- z = 2 -->
    <g transform="translate(373.645312 16.598437) scale(0.1 -0.1)">
     <defs>
      <path id="DejaVuSans-20" transform="scale(0.015625)"/>
      <path id="DejaVuSans-3d" d="M 678 2906 
L 4684 2906 
L 4684 2381 
L 678 2381 
L 678 2906 
z
M 678 1631 
L 4684 1631 
L 4684 1100 
L 678 1100 
L 678 1631 
z
" transform="scale(0.015625)"/>
      <path id="DejaVuSans-32" d="M 1228 531 
L 3431 531 
L 3431 0 
L 469 0 
L 469 531 
Q 828 903 1448 1529 
Q 2069 2156 2228 2338 
Q 2531 2678 2651 2914 
Q 2772 3150 2772 3378 
Q 2772 3750 2511 3984 
Q 2250 4219 1831 4219 
Q 1534 4219 1204 4116 
Q 875 4013 500 3803 
L 500 4441 
Q 881 4594 1212 4672 
Q 1544 4750 1819 4750 
Q 2544 4750 2975 4387 
Q 3406 4025 3406 3419 
Q 3406 3131 3298 2873 
Q 3191 2616 2906 2266 
Q 2828 2175 2409 1742 
Q 1991 1309 1228 531 
z
" transform="scale(0.015625)"/>
     </defs>
     <use xlink:href="#DejaVuSans-7a"/>
     <use xlink:href="#DejaVuSans-20" transform="translate(52.490234 0)"/>
     <use xlink:href="#DejaVuSans-3d" transform="translate(84.277344 0)"/>
     <use xlink:href="#DejaVuSans-20" transform="translate(168.066406 0)"/>
     <use xlink:href="#DejaVuSans-32" transform="translate(199.853516 0)"/>
    </g>
   </g>
   <g id="patch_5">
    <path d="M 345.645312 31.276563 
L 365.645312 31.276563 
L 365.645312 24.276563 
L 345.645312 24.276563 
z
" style="fill: #0000c3; fill-opacity: 0.2"/>
   </g>
   <g id="text_5">
    <!-- z = 1 -->
    <g transform="translate(373.645312 31.276563) scale(0.1 -0.1)">
     <defs>
      <path id="DejaVuSans-31" d="M 794 531 
L 1825 531 
L 1825 4091 
L 703 3866 
L 703 4441 
L 1819 4666 
L 2450 4666 
L 2450 531 
L 3481 531 
L 3481 0 
L 794 0 
L 794 531 
z
" transform="scale(0.015625)"/>
     </defs>
     <use xlink:href="#DejaVuSans-7a"/>
     <use xlink:href="#DejaVuSans-20" transform="translate(52.490234 0)"/>
     <use xlink:href="#DejaVuSans-3d" transform="translate(84.277344 0)"/>
     <use xlink:href="#DejaVuSans-20" transform="translate(168.066406 0)"/>
     <use xlink:href="#DejaVuSans-31" transform="translate(199.853516 0)"/>
    </g>
   </g>
   <g id="patch_6">
    <path d="M 345.645312 45.954687 
L 365.645312 45.954687 
L 365.645312 38.954687 
L 345.645312 38.954687 
z
" style="fill-opacity: 0.2"/>
   </g>
   <g id="text_6">
    <!-- z = 0 -->
    <g transform="translate(373.645312 45.954687) scale(0.1 -0.1)">
     <defs>
      <path id="DejaVuSans-30" d="M 2034 4250 
Q 1547 4250 1301 3770 
Q 1056 3291 1056 2328 
Q 1056 1369 1301 889 
Q 1547 409 2034 409 
Q 2525 409 2770 889 
Q 3016 1369 3016 2328 
Q 3016 3291 2770 3770 
Q 2525 4250 2034 4250 
z
M 2034 4750 
Q 2819 4750 3233 4129 
Q 3647 3509 3647 2328 
Q 3647 1150 3233 529 
Q 2819 -91 2034 -91 
Q 1250 -91 836 529 
Q 422 1150 422 2328 
Q 422 3509 836 4129 
Q 1250 4750 2034 4750 
z
" transform="scale(0.015625)"/>
     </defs>
     <use xlink:href="#DejaVuSans-7a"/>
     <use xlink:href="#DejaVuSans-20" transform="translate(52.490234 0)"/>
     <use xlink:href="#DejaVuSans-3d" transform="translate(84.277344 0)"/>
     <use xlink:href="#DejaVuSans-20" transform="translate(168.066406 0)"/>
     <use xlink:href="#DejaVuSans-30" transform="translate(199.853516 0)"/>
    </g>
   </g>
   <g id="patch_7">
    <path d="M 345.645312 60.632812 
L 365.645312 60.632812 
L 365.645312 53.632812 
L 345.645312 53.632812 
z
" style="fill: #939300; fill-opacity: 0.2"/>
   </g>
   <g id="text_7">
    <!-- z = -1 -->
    <g transform="translate(373.645312 60.632812) scale(0.1 -0.1)">
     <defs>
      <path id="DejaVuSans-2d" d="M 313 2009 
L 1997 2009 
L 1997 1497 
L 313 1497 
L 313 2009 
z
" transform="scale(0.015625)"/>
     </defs>
     <use xlink:href="#DejaVuSans-7a"/>
     <use xlink:href="#DejaVuSans-20" transform="translate(52.490234 0)"/>
     <use xlink:href="#DejaVuSans-3d" transform="translate(84.277344 0)"/>
     <use xlink:href="#DejaVuSans-20" transform="translate(168.066406 0)"/>
     <use xlink:href="#DejaVuSans-2d" transform="translate(199.853516 0)"/>
     <use xlink:href="#DejaVuSans-31" transform="translate(235.9375 0)"/>
    </g>
   </g>
   <g id="patch_8">
    <path d="M 345.645312 75.310938 
L 365.645312 75.310938 
L 365.645312 68.310938 
L 345.645312 68.310938 
z
" style="fill: #c30000; fill-opacity: 0.2"/>
   </g>
   <g id="text_8">
    <!-- z = -2 -->
    <g transform="translate(373.645312 75.310938) scale(0.1 -0.1)">
     <use xlink:href="#DejaVuSans-7a"/>
     <use xlink:href="#DejaVuSans-20" transform="translate(52.490234 0)"/>
     <use xlink:href="#DejaVuSans-3d" transform="translate(84.277344 0)"/>
     <use xlink:href="#DejaVuSans-20" transform="translate(168.066406 0)"/>
     <use xlink:href="#DejaVuSans-2d" transform="translate(199.853516 0)"/>
     <use xlink:href="#DejaVuSans-32" transform="translate(235.9375 0)"/>
    </g>
   </g>
  </g>
 </g>
 <defs>
  <clipPath id="pa47ac0c064">
   <rect x="7.2" y="7.2" width="345.6" height="345.6"/>
  </clipPath>
 </defs>
</svg>
