<?xml version="1.0" encoding="utf-8" standalone="no"?>
<!DOCTYPE svg PUBLIC "-//W3C//DTD SVG 1.1//EN"
  "http://www.w3.org/Graphics/SVG/1.1/DTD/svg11.dtd">
<svg xmlns:xlink="http://www.w3.org/1999/xlink" width="408.10125pt" height="327.78825pt" viewBox="0 0 408.10125 327.78825" xmlns="http://www.w3.org/2000/svg" version="1.1">
 <metadata>
  <rdf:RDF xmlns:dc="http://purl.org/dc/elements/1.1/" xmlns:cc="http://creativecommons.org/ns#" xmlns:rdf="http://www.w3.org/1999/02/22-rdf-syntax-ns#">
   <cc:Work>
    <dc:type rdf:resource="http://purl.org/dc/dcmitype/StillImage"/>
    <dc:date>2025-11-20T19:47:56.794679</dc:date>
    <dc:format>image/svg+xml</dc:format>
    <dc:creator>
     <cc:Agent>
      <dc:title>Matplotlib v3.10.7, https://matplotlib.org/</dc:title>
     </cc:Agent>
    </dc:creator>
   </cc:Work>
  </rdf:RDF>
 </metadata>
 <defs>
  <style type="text/css">*{stroke-linejoin: round; stroke-linecap: butt}</style>
 </defs>
 <g id="figure_1">
  <g id="patch_1">
   <path d="M 0 327.78825 
L 408.10125 327.78825 
L 408.10125 0 
L 0 0 
z
" style="fill: #ffffff"/>
  </g>
  <g id="axes_1">
   <g id="patch_2">
    <path d="M 43.78125 290.232 
L 400.90125 290.232 
L 400.90125 24.12 
L 43.78125 24.12 
z
" style="fill: #ffffff"/>
   </g>
   <g id="matplotlib.axis_1">
    <g id="xtick_1">
     <g id="line2d_1">
      <path d="M 71.339136 290.232 
L 71.339136 24.12 
" clip-path="url(#pa8f2e88e8a)" style="fill: none; stroke: #b0b0b0; stroke-width: 0.8; stroke-linecap: square"/>
     </g>
     <g id="line2d_2">
      <defs>
       <path id="md67d61ce91" d="M 0 0 
L 0 3.5 
" style="stroke: #000000; stroke-width: 0.8"/>
      </defs>
      <g>
       <use xlink:href="#md67d61ce91" x="71.339136" y="290.232" style="stroke: #000000; stroke-width: 0.8"/>
      </g>
     </g>
     <g id="text_1">
      <!-- −1.8 -->
      <g transform="translate(59.19773 304.830437) scale(0.1 -0.1)">
       <defs>
        <path id="DejaVuSans-2212" d="M 678 2272 
L 4684 2272 
L 4684 1741 
L 678 1741 
L 678 2272 
z
" transform="scale(0.015625)"/>
        <path id="DejaVuSans-31" d="M 794 531 
L 1825 531 
L 1825 4091 
L 703 3866 
L 703 4441 
L 1819 4666 
L 2450 4666 
L 2450 531 
L 3481 531 
L 3481 0 
L 794 0 
L 794 531 
z
" transform="scale(0.015625)"/>
        <path id="DejaVuSans-2e" d="M 684 794 
L 1344 794 
L 1344 0 
L 684 0 
L 684 794 
z
" transform="scale(0.015625)"/>
        <path id="DejaVuSans-38" d="M 2034 2216 
Q 1584 2216 1326 1975 
Q 1069 1734 1069 1313 
Q 1069 891 1326 650 
Q 1584 409 2034 409 
Q 2484 409 2743 651 
Q 3003 894 3003 1313 
Q 3003 1734 2745 1975 
Q 2488 2216 2034 2216 
z
M 1403 2484 
Q 997 2584 770 2862 
Q 544 3141 544 3541 
Q 544 4100 942 4425 
Q 1341 4750 2034 4750 
Q 2731 4750 3128 4425 
Q 3525 4100 3525 3541 
Q 3525 3141 3298 2862 
Q 3072 2584 2669 2484 
Q 3125 2378 3379 2068 
Q 3634 1759 3634 1313 
Q 3634 634 3220 271 
Q 2806 -91 2034 -91 
Q 1263 -91 848 271 
Q 434 634 434 1313 
Q 434 1759 690 2068 
Q 947 2378 1403 2484 
z
M 1172 3481 
Q 1172 3119 1398 2916 
Q 1625 2713 2034 2713 
Q 2441 2713 2670 2916 
Q 2900 3119 2900 3481 
Q 2900 3844 2670 4047 
Q 2441 4250 2034 4250 
Q 1625 4250 1398 4047 
Q 1172 3844 1172 3481 
z
" transform="scale(0.015625)"/>
       </defs>
       <use xlink:href="#DejaVuSans-2212"/>
       <use xlink:href="#DejaVuSans-31" transform="translate(83.789062 0)"/>
       <use xlink:href="#DejaVuSans-2e" transform="translate(147.412109 0)"/>
       <use xlink:href="#DejaVuSans-38" transform="translate(179.199219 0)"/>
      </g>
     </g>
    </g>
    <g id="xtick_2">
     <g id="line2d_3">
      <path d="M 146.840193 290.232 
L 146.840193 24.12 
" clip-path="url(#pa8f2e88e8a)" style="fill: none; stroke: #b0b0b0; stroke-width: 0.8; stroke-linecap: square"/>
     </g>
     <g id="line2d_4">
      <g>
       <use xlink:href="#md67d61ce91" x="146.840193" y="290.232" style="stroke: #000000; stroke-width: 0.8"/>
      </g>
     </g>
     <g id="text_2">
      <!-- −1.6 -->
      <g transform="translate(134.698787 304.830437) scale(0.1 -0.1)">
       <defs>
        <path id="DejaVuSans-36" d="M 2113 2584 
Q 1688 2584 1439 2293 
Q 1191 2003 1191 1497 
Q 1191 994 1439 701 
Q 1688 409 2113 409 
Q 2538 409 2786 701 
Q 3034 994 3034 1497 
Q 3034 2003 2786 2293 
Q 2538 2584 2113 2584 
z
M 3366 4563 
L 3366 3988 
Q 3128 4100 2886 4159 
Q 2644 4219 2406 4219 
Q 1781 4219 1451 3797 
Q 1122 3375 1075 2522 
Q 1259 2794 1537 2939 
Q 1816 3084 2150 3084 
Q 2853 3084 3261 2657 
Q 3669 2231 3669 1497 
Q 3669 778 3244 343 
Q 2819 -91 2113 -91 
Q 1303 -91 875 529 
Q 447 1150 447 2328 
Q 447 3434 972 4092 
Q 1497 4750 2381 4750 
Q 2619 4750 2861 4703 
Q 3103 4656 3366 4563 
z
" transform="scale(0.015625)"/>
       </defs>
       <use xlink:href="#DejaVuSans-2212"/>
       <use xlink:href="#DejaVuSans-31" transform="translate(83.789062 0)"/>
       <use xlink:href="#DejaVuSans-2e" transform="translate(147.412109 0)"/>
       <use xlink:href="#DejaVuSans-36" transform="translate(179.199219 0)"/>
      </g>
     </g>
    </g>
    <g id="xtick_3">
     <g id="line2d_5">
      <path d="M 222.34125 290.232 
L 222.34125 24.12 
" clip-path="url(#pa8f2e88e8a)" style="fill: none; stroke: #b0b0b0; stroke-width: 0.8; stroke-linecap: square"/>
     </g>
     <g id="line2d_6">
      <g>
       <use xlink:href="#md67d61ce91" x="222.34125" y="290.232" style="stroke: #000000; stroke-width: 0.8"/>
      </g>
     </g>
     <g id="text_3">
      <!-- −1.4 -->
      <g transform="translate(210.199844 304.830437) scale(0.1 -0.1)">
       <defs>
        <path id="DejaVuSans-34" d="M 2419 4116 
L 825 1625 
L 2419 1625 
L 2419 4116 
z
M 2253 4666 
L 3047 4666 
L 3047 1625 
L 3713 1625 
L 3713 1100 
L 3047 1100 
L 3047 0 
L 2419 0 
L 2419 1100 
L 313 1100 
L 313 1709 
L 2253 4666 
z
" transform="scale(0.015625)"/>
       </defs>
       <use xlink:href="#DejaVuSans-2212"/>
       <use xlink:href="#DejaVuSans-31" transform="translate(83.789062 0)"/>
       <use xlink:href="#DejaVuSans-2e" transform="translate(147.412109 0)"/>
       <use xlink:href="#DejaVuSans-34" transform="translate(179.199219 0)"/>
      </g>
     </g>
    </g>
    <g id="xtick_4">
     <g id="line2d_7">
      <path d="M 297.842307 290.232 
L 297.842307 24.12 
" clip-path="url(#pa8f2e88e8a)" style="fill: none; stroke: #b0b0b0; stroke-width: 0.8; stroke-linecap: square"/>
     </g>
     <g id="line2d_8">
      <g>
       <use xlink:href="#md67d61ce91" x="297.842307" y="290.232" style="stroke: #000000; stroke-width: 0.8"/>
      </g>
     </g>
     <g id="text_4">
      <!-- −1.2 -->
      <g transform="translate(285.700901 304.830437) scale(0.1 -0.1)">
       <defs>
        <path id="DejaVuSans-32" d="M 1228 531 
L 3431 531 
L 3431 0 
L 469 0 
L 469 531 
Q 828 903 1448 1529 
Q 2069 2156 2228 2338 
Q 2531 2678 2651 2914 
Q 2772 3150 2772 3378 
Q 2772 3750 2511 3984 
Q 2250 4219 1831 4219 
Q 1534 4219 1204 4116 
Q 875 4013 500 3803 
L 500 4441 
Q 881 4594 1212 4672 
Q 1544 4750 1819 4750 
Q 2544 4750 2975 4387 
Q 3406 4025 3406 3419 
Q 3406 3131 3298 2873 
Q 3191 2616 2906 2266 
Q 2828 2175 2409 1742 
Q 1991 1309 1228 531 
z
" transform="scale(0.015625)"/>
       </defs>
       <use xlink:href="#DejaVuSans-2212"/>
       <use xlink:href="#DejaVuSans-31" transform="translate(83.789062 0)"/>
       <use xlink:href="#DejaVuSans-2e" transform="translate(147.412109 0)"/>
       <use xlink:href="#DejaVuSans-32" transform="translate(179.199219 0)"/>
      </g>
     </g>
    </g>
    <g id="xtick_5">
     <g id="line2d_9">
      <path d="M 373.343364 290.232 
L 373.343364 24.12 
" clip-path="url(#pa8f2e88e8a)" style="fill: none; stroke: #b0b0b0; stroke-width: 0.8; stroke-linecap: square"/>
     </g>
     <g id="line2d_10">
      <g>
       <use xlink:href="#md67d61ce91" x="373.343364" y="290.232" style="stroke: #000000; stroke-width: 0.8"/>
      </g>
     </g>
     <g id="text_5">
      <!-- −1.0 -->
      <g transform="translate(361.201958 304.830437) scale(0.1 -0.1)">
       <defs>
        <path id="DejaVuSans-30" d="M 2034 4250 
Q 1547 4250 1301 3770 
Q 1056 3291 1056 2328 
Q 1056 1369 1301 889 
Q 1547 409 2034 409 
Q 2525 409 2770 889 
Q 3016 1369 3016 2328 
Q 3016 3291 2770 3770 
Q 2525 4250 2034 4250 
z
M 2034 4750 
Q 2819 4750 3233 4129 
Q 3647 3509 3647 2328 
Q 3647 1150 3233 529 
Q 2819 -91 2034 -91 
Q 1250 -91 836 529 
Q 422 1150 422 2328 
Q 422 3509 836 4129 
Q 1250 4750 2034 4750 
z
" transform="scale(0.015625)"/>
       </defs>
       <use xlink:href="#DejaVuSans-2212"/>
       <use xlink:href="#DejaVuSans-31" transform="translate(83.789062 0)"/>
       <use xlink:href="#DejaVuSans-2e" transform="translate(147.412109 0)"/>
       <use xlink:href="#DejaVuSans-30" transform="translate(179.199219 0)"/>
      </g>
     </g>
    </g>
    <g id="text_6">
     <!-- x -->
     <g transform="translate(219.381875 318.508562) scale(0.1 -0.1)">
      <defs>
       <path id="DejaVuSans-78" d="M 3513 3500 
L 2247 1797 
L 3578 0 
L 2900 0 
L 1881 1375 
L 863 0 
L 184 0 
L 1544 1831 
L 300 3500 
L 978 3500 
L 1906 2253 
L 2834 3500 
L 3513 3500 
z
" transform="scale(0.015625)"/>
      </defs>
      <use xlink:href="#DejaVuSans-78"/>
     </g>
    </g>
   </g>
   <g id="matplotlib.axis_2">
    <g id="ytick_1">
     <g id="line2d_11">
      <path d="M 43.78125 270.779932 
L 400.90125 270.779932 
" clip-path="url(#pa8f2e88e8a)" style="fill: none; stroke: #b0b0b0; stroke-width: 0.8; stroke-linecap: square"/>
     </g>
     <g id="line2d_12">
      <defs>
       <path id="m629e19579d" d="M 0 0 
L -3.5 0 
" style="stroke: #000000; stroke-width: 0.8"/>
      </defs>
      <g>
       <use xlink:href="#m629e19579d" x="43.78125" y="270.779932" style="stroke: #000000; stroke-width: 0.8"/>
      </g>
     </g>
     <g id="text_7">
      <!-- 1.0 -->
      <g transform="translate(20.878125 274.579151) scale(0.1 -0.1)">
       <use xlink:href="#DejaVuSans-31"/>
       <use xlink:href="#DejaVuSans-2e" transform="translate(63.623047 0)"/>
       <use xlink:href="#DejaVuSans-30" transform="translate(95.410156 0)"/>
      </g>
     </g>
    </g>
    <g id="ytick_2">
     <g id="line2d_13">
      <path d="M 43.78125 215.430695 
L 400.90125 215.430695 
" clip-path="url(#pa8f2e88e8a)" style="fill: none; stroke: #b0b0b0; stroke-width: 0.8; stroke-linecap: square"/>
     </g>
     <g id="line2d_14">
      <g>
       <use xlink:href="#m629e19579d" x="43.78125" y="215.430695" style="stroke: #000000; stroke-width: 0.8"/>
      </g>
     </g>
     <g id="text_8">
      <!-- 1.5 -->
      <g transform="translate(20.878125 219.229913) scale(0.1 -0.1)">
       <defs>
        <path id="DejaVuSans-35" d="M 691 4666 
L 3169 4666 
L 3169 4134 
L 1269 4134 
L 1269 2991 
Q 1406 3038 1543 3061 
Q 1681 3084 1819 3084 
Q 2600 3084 3056 2656 
Q 3513 2228 3513 1497 
Q 3513 744 3044 326 
Q 2575 -91 1722 -91 
Q 1428 -91 1123 -41 
Q 819 9 494 109 
L 494 744 
Q 775 591 1075 516 
Q 1375 441 1709 441 
Q 2250 441 2565 725 
Q 2881 1009 2881 1497 
Q 2881 1984 2565 2268 
Q 2250 2553 1709 2553 
Q 1456 2553 1204 2497 
Q 953 2441 691 2322 
L 691 4666 
z
" transform="scale(0.015625)"/>
       </defs>
       <use xlink:href="#DejaVuSans-31"/>
       <use xlink:href="#DejaVuSans-2e" transform="translate(63.623047 0)"/>
       <use xlink:href="#DejaVuSans-35" transform="translate(95.410156 0)"/>
      </g>
     </g>
    </g>
    <g id="ytick_3">
     <g id="line2d_15">
      <path d="M 43.78125 160.081457 
L 400.90125 160.081457 
" clip-path="url(#pa8f2e88e8a)" style="fill: none; stroke: #b0b0b0; stroke-width: 0.8; stroke-linecap: square"/>
     </g>
     <g id="line2d_16">
      <g>
       <use xlink:href="#m629e19579d" x="43.78125" y="160.081457" style="stroke: #000000; stroke-width: 0.8"/>
      </g>
     </g>
     <g id="text_9">
      <!-- 2.0 -->
      <g transform="translate(20.878125 163.880676) scale(0.1 -0.1)">
       <use xlink:href="#DejaVuSans-32"/>
       <use xlink:href="#DejaVuSans-2e" transform="translate(63.623047 0)"/>
       <use xlink:href="#DejaVuSans-30" transform="translate(95.410156 0)"/>
      </g>
     </g>
    </g>
    <g id="ytick_4">
     <g id="line2d_17">
      <path d="M 43.78125 104.73222 
L 400.90125 104.73222 
" clip-path="url(#pa8f2e88e8a)" style="fill: none; stroke: #b0b0b0; stroke-width: 0.8; stroke-linecap: square"/>
     </g>
     <g id="line2d_18">
      <g>
       <use xlink:href="#m629e19579d" x="43.78125" y="104.73222" style="stroke: #000000; stroke-width: 0.8"/>
      </g>
     </g>
     <g id="text_10">
      <!-- 2.5 -->
      <g transform="translate(20.878125 108.531438) scale(0.1 -0.1)">
       <use xlink:href="#DejaVuSans-32"/>
       <use xlink:href="#DejaVuSans-2e" transform="translate(63.623047 0)"/>
       <use xlink:href="#DejaVuSans-35" transform="translate(95.410156 0)"/>
      </g>
     </g>
    </g>
    <g id="ytick_5">
     <g id="line2d_19">
      <path d="M 43.78125 49.382982 
L 400.90125 49.382982 
" clip-path="url(#pa8f2e88e8a)" style="fill: none; stroke: #b0b0b0; stroke-width: 0.8; stroke-linecap: square"/>
     </g>
     <g id="line2d_20">
      <g>
       <use xlink:href="#m629e19579d" x="43.78125" y="49.382982" style="stroke: #000000; stroke-width: 0.8"/>
      </g>
     </g>
     <g id="text_11">
      <!-- 3.0 -->
      <g transform="translate(20.878125 53.182201) scale(0.1 -0.1)">
       <defs>
        <path id="DejaVuSans-33" d="M 2597 2516 
Q 3050 2419 3304 2112 
Q 3559 1806 3559 1356 
Q 3559 666 3084 287 
Q 2609 -91 1734 -91 
Q 1441 -91 1130 -33 
Q 819 25 488 141 
L 488 750 
Q 750 597 1062 519 
Q 1375 441 1716 441 
Q 2309 441 2620 675 
Q 2931 909 2931 1356 
Q 2931 1769 2642 2001 
Q 2353 2234 1838 2234 
L 1294 2234 
L 1294 2753 
L 1863 2753 
Q 2328 2753 2575 2939 
Q 2822 3125 2822 3475 
Q 2822 3834 2567 4026 
Q 2313 4219 1838 4219 
Q 1578 4219 1281 4162 
Q 984 4106 628 3988 
L 628 4550 
Q 988 4650 1302 4700 
Q 1616 4750 1894 4750 
Q 2613 4750 3031 4423 
Q 3450 4097 3450 3541 
Q 3450 3153 3228 2886 
Q 3006 2619 2597 2516 
z
" transform="scale(0.015625)"/>
       </defs>
       <use xlink:href="#DejaVuSans-33"/>
       <use xlink:href="#DejaVuSans-2e" transform="translate(63.623047 0)"/>
       <use xlink:href="#DejaVuSans-30" transform="translate(95.410156 0)"/>
      </g>
     </g>
    </g>
    <g id="text_12">
     <!-- y -->
     <g transform="translate(14.798438 160.135375) rotate(-90) scale(0.1 -0.1)">
      <defs>
       <path id="DejaVuSans-79" d="M 2059 -325 
Q 1816 -950 1584 -1140 
Q 1353 -1331 966 -1331 
L 506 -1331 
L 506 -850 
L 844 -850 
Q 1081 -850 1212 -737 
Q 1344 -625 1503 -206 
L 1606 56 
L 191 3500 
L 800 3500 
L 1894 763 
L 2988 3500 
L 3597 3500 
L 2059 -325 
z
" transform="scale(0.015625)"/>
      </defs>
      <use xlink:href="#DejaVuSans-79"/>
     </g>
    </g>
   </g>
   <g id="line2d_21">
    <path d="M 60.013977 269.997243 
L 384.668523 36.216 
" clip-path="url(#pa8f2e88e8a)" style="fill: none; stroke: #ffffff; stroke-width: 0.8; stroke-linecap: square"/>
   </g>
   <g id="line2d_22">
    <path d="M 60.013977 260.032314 
L 384.668523 46.180929 
" clip-path="url(#pa8f2e88e8a)" style="fill: none; stroke: #e5e5ff; stroke-width: 0.8; stroke-linecap: square"/>
   </g>
   <g id="line2d_23">
    <path d="M 60.013977 252.71218 
L 384.668523 53.501063 
" clip-path="url(#pa8f2e88e8a)" style="fill: none; stroke: #c6c6ff; stroke-width: 0.8; stroke-linecap: square"/>
   </g>
   <g id="line2d_24">
    <path d="M 60.013977 247.023128 
L 384.668523 59.190114 
" clip-path="url(#pa8f2e88e8a)" style="fill: none; stroke: #acacff; stroke-width: 0.8; stroke-linecap: square"/>
   </g>
   <g id="line2d_25">
    <path d="M 60.013977 242.454241 
L 384.668523 63.759002 
" clip-path="url(#pa8f2e88e8a)" style="fill: none; stroke: #9797ff; stroke-width: 0.8; stroke-linecap: square"/>
   </g>
   <g id="line2d_26">
    <path d="M 60.013977 238.708245 
L 384.668523 67.504998 
" clip-path="url(#pa8f2e88e8a)" style="fill: none; stroke: #8282ff; stroke-width: 0.8; stroke-linecap: square"/>
   </g>
   <g id="line2d_27">
    <path d="M 60.013977 235.595404 
L 384.668523 70.617839 
" clip-path="url(#pa8f2e88e8a)" style="fill: none; stroke: #6d6dff; stroke-width: 0.8; stroke-linecap: square"/>
   </g>
   <g id="line2d_28">
    <path d="M 60.013977 232.986424 
L 384.668523 73.226819 
" clip-path="url(#pa8f2e88e8a)" style="fill: none; stroke: #5e5eff; stroke-width: 0.8; stroke-linecap: square"/>
   </g>
   <g id="line2d_29">
    <path d="M 60.013977 230.788742 
L 384.668523 75.424501 
" clip-path="url(#pa8f2e88e8a)" style="fill: none; stroke: #4e4eff; stroke-width: 0.8; stroke-linecap: square"/>
   </g>
   <g id="line2d_30">
    <path d="M 60.013977 228.93345 
L 384.668523 77.279793 
" clip-path="url(#pa8f2e88e8a)" style="fill: none; stroke: #3e3eff; stroke-width: 0.8; stroke-linecap: square"/>
   </g>
   <g id="line2d_31">
    <path d="M 60.013977 227.367574 
L 384.668523 78.845669 
" clip-path="url(#pa8f2e88e8a)" style="fill: none; stroke: #3434ff; stroke-width: 0.8; stroke-linecap: square"/>
   </g>
   <g id="line2d_32">
    <path d="M 60.013977 226.049256 
L 384.668523 80.163987 
" clip-path="url(#pa8f2e88e8a)" style="fill: none; stroke: #2a2aff; stroke-width: 0.8; stroke-linecap: square"/>
   </g>
   <g id="line2d_33">
    <path d="M 60.013977 224.9446 
L 384.668523 81.268643 
" clip-path="url(#pa8f2e88e8a)" style="fill: none; stroke: #1f1fff; stroke-width: 0.8; stroke-linecap: square"/>
   </g>
   <g id="line2d_34">
    <path d="M 60.013977 224.025544 
L 384.668523 82.187699 
" clip-path="url(#pa8f2e88e8a)" style="fill: none; stroke: #1a1aff; stroke-width: 0.8; stroke-linecap: square"/>
   </g>
   <g id="line2d_35">
    <path d="M 60.013977 223.26836 
L 384.668523 82.944883 
" clip-path="url(#pa8f2e88e8a)" style="fill: none; stroke: #1010ff; stroke-width: 0.8; stroke-linecap: square"/>
   </g>
   <g id="line2d_36">
    <path d="M 60.013977 222.652581 
L 384.668523 83.560662 
" clip-path="url(#pa8f2e88e8a)" style="fill: none; stroke: #0a0aff; stroke-width: 0.8; stroke-linecap: square"/>
   </g>
   <g id="line2d_37">
    <path d="M 60.013977 222.160201 
L 384.668523 84.053042 
" clip-path="url(#pa8f2e88e8a)" style="fill: none; stroke: #0a0aff; stroke-width: 0.8; stroke-linecap: square"/>
   </g>
   <g id="line2d_38">
    <path d="M 60.013977 221.775073 
L 384.668523 84.43817 
" clip-path="url(#pa8f2e88e8a)" style="fill: none; stroke: #0505ff; stroke-width: 0.8; stroke-linecap: square"/>
   </g>
   <g id="line2d_39">
    <path d="M 60.013977 221.482449 
L 384.668523 84.730794 
" clip-path="url(#pa8f2e88e8a)" style="fill: none; stroke: #0000ff; stroke-width: 0.8; stroke-linecap: square"/>
   </g>
   <g id="line2d_40">
    <path d="M 60.013977 221.268614 
L 384.668523 84.944629 
" clip-path="url(#pa8f2e88e8a)" style="fill: none; stroke: #0000ff; stroke-width: 0.8; stroke-linecap: square"/>
   </g>
   <g id="line2d_41">
    <path d="M 60.013977 221.120602 
L 384.668523 85.092641 
" clip-path="url(#pa8f2e88e8a)" style="fill: none; stroke: #0000ff; stroke-width: 0.8; stroke-linecap: square"/>
   </g>
   <g id="line2d_42">
    <path d="M 60.013977 221.025969 
L 384.668523 85.187274 
" clip-path="url(#pa8f2e88e8a)" style="fill: none; stroke: #0000ff; stroke-width: 0.8; stroke-linecap: square"/>
   </g>
   <g id="line2d_43">
    <path d="M 60.013977 220.972618 
L 384.668523 85.240625 
" clip-path="url(#pa8f2e88e8a)" style="fill: none; stroke: #0000ff; stroke-width: 0.8; stroke-linecap: square"/>
   </g>
   <g id="line2d_44">
    <path d="M 60.013977 220.948656 
L 384.668523 85.264587 
" clip-path="url(#pa8f2e88e8a)" style="fill: none; stroke: #0000ff; stroke-width: 0.8; stroke-linecap: square"/>
   </g>
   <g id="line2d_45">
    <path d="M 60.013977 220.942301 
L 384.668523 85.270942 
" clip-path="url(#pa8f2e88e8a)" style="fill: none; stroke: #0000ff; stroke-width: 0.8; stroke-linecap: square"/>
   </g>
   <g id="line2d_46">
    <path d="M 60.013977 220.941812 
L 384.668523 85.271431 
" clip-path="url(#pa8f2e88e8a)" style="fill: none; stroke: #0000ff; stroke-width: 0.8; stroke-linecap: square"/>
   </g>
   <g id="line2d_47">
    <path d="M 60.013977 220.935458 
L 384.668523 85.277785 
" clip-path="url(#pa8f2e88e8a)" style="fill: none; stroke: #0000ff; stroke-width: 0.8; stroke-linecap: square"/>
   </g>
   <g id="line2d_48">
    <path d="M 60.013977 220.911517 
L 384.668523 85.301726 
" clip-path="url(#pa8f2e88e8a)" style="fill: none; stroke: #0000ff; stroke-width: 0.8; stroke-linecap: square"/>
   </g>
   <g id="line2d_49">
    <path d="M 60.013977 220.85831 
L 384.668523 85.354933 
" clip-path="url(#pa8f2e88e8a)" style="fill: none; stroke: #0000ff; stroke-width: 0.8; stroke-linecap: square"/>
   </g>
   <g id="line2d_50">
    <path d="M 60.013977 220.764263 
L 384.668523 85.44898 
" clip-path="url(#pa8f2e88e8a)" style="fill: none; stroke: #0000ff; stroke-width: 0.8; stroke-linecap: square"/>
   </g>
   <g id="line2d_51">
    <path d="M 60.013977 220.618005 
L 384.668523 85.595238 
" clip-path="url(#pa8f2e88e8a)" style="fill: none; stroke: #0000ff; stroke-width: 0.8; stroke-linecap: square"/>
   </g>
   <g id="line2d_52">
    <path d="M 60.013977 220.408493 
L 384.668523 85.80475 
" clip-path="url(#pa8f2e88e8a)" style="fill: none; stroke: #0000ff; stroke-width: 0.8; stroke-linecap: square"/>
   </g>
   <g id="line2d_53">
    <path d="M 60.013977 220.125158 
L 384.668523 86.088085 
" clip-path="url(#pa8f2e88e8a)" style="fill: none; stroke: #0505ff; stroke-width: 0.8; stroke-linecap: square"/>
   </g>
   <g id="line2d_54">
    <path d="M 60.013977 219.758075 
L 384.668523 86.455168 
" clip-path="url(#pa8f2e88e8a)" style="fill: none; stroke: #0a0aff; stroke-width: 0.8; stroke-linecap: square"/>
   </g>
   <g id="line2d_55">
    <path d="M 60.013977 219.298144 
L 384.668523 86.915099 
" clip-path="url(#pa8f2e88e8a)" style="fill: none; stroke: #0a0aff; stroke-width: 0.8; stroke-linecap: square"/>
   </g>
   <g id="line2d_56">
    <path d="M 60.013977 218.737271 
L 384.668523 87.475972 
" clip-path="url(#pa8f2e88e8a)" style="fill: none; stroke: #1010ff; stroke-width: 0.8; stroke-linecap: square"/>
   </g>
   <g id="line2d_57">
    <path d="M 60.013977 218.068544 
L 384.668523 88.144699 
" clip-path="url(#pa8f2e88e8a)" style="fill: none; stroke: #1a1aff; stroke-width: 0.8; stroke-linecap: square"/>
   </g>
   <g id="line2d_58">
    <path d="M 60.013977 217.286386 
L 384.668523 88.926857 
" clip-path="url(#pa8f2e88e8a)" style="fill: none; stroke: #1f1fff; stroke-width: 0.8; stroke-linecap: square"/>
   </g>
   <g id="line2d_59">
    <path d="M 60.013977 216.386691 
L 384.668523 89.826552 
" clip-path="url(#pa8f2e88e8a)" style="fill: none; stroke: #2a2aff; stroke-width: 0.8; stroke-linecap: square"/>
   </g>
   <g id="line2d_60">
    <path d="M 60.013977 215.366909 
L 384.668523 90.846334 
" clip-path="url(#pa8f2e88e8a)" style="fill: none; stroke: #3434ff; stroke-width: 0.8; stroke-linecap: square"/>
   </g>
   <g id="line2d_61">
    <path d="M 60.013977 214.226102 
L 384.668523 91.987141 
" clip-path="url(#pa8f2e88e8a)" style="fill: none; stroke: #3e3eff; stroke-width: 0.8; stroke-linecap: square"/>
   </g>
   <g id="line2d_62">
    <path d="M 60.013977 212.964947 
L 384.668523 93.248296 
" clip-path="url(#pa8f2e88e8a)" style="fill: none; stroke: #4e4eff; stroke-width: 0.8; stroke-linecap: square"/>
   </g>
   <g id="line2d_63">
    <path d="M 60.013977 211.585698 
L 384.668523 94.627544 
" clip-path="url(#pa8f2e88e8a)" style="fill: none; stroke: #5e5eff; stroke-width: 0.8; stroke-linecap: square"/>
   </g>
   <g id="line2d_64">
    <path d="M 60.013977 210.092114 
L 384.668523 96.121129 
" clip-path="url(#pa8f2e88e8a)" style="fill: none; stroke: #6d6dff; stroke-width: 0.8; stroke-linecap: square"/>
   </g>
   <g id="line2d_65">
    <path d="M 60.013977 208.489343 
L 384.668523 97.7239 
" clip-path="url(#pa8f2e88e8a)" style="fill: none; stroke: #8282ff; stroke-width: 0.8; stroke-linecap: square"/>
   </g>
   <g id="line2d_66">
    <path d="M 60.013977 206.783797 
L 384.668523 99.429446 
" clip-path="url(#pa8f2e88e8a)" style="fill: none; stroke: #9797ff; stroke-width: 0.8; stroke-linecap: square"/>
   </g>
   <g id="line2d_67">
    <path d="M 60.013977 204.983007 
L 384.668523 101.230236 
" clip-path="url(#pa8f2e88e8a)" style="fill: none; stroke: #acacff; stroke-width: 0.8; stroke-linecap: square"/>
   </g>
   <g id="line2d_68">
    <path d="M 60.013977 203.095479 
L 384.668523 103.117763 
" clip-path="url(#pa8f2e88e8a)" style="fill: none; stroke: #c6c6ff; stroke-width: 0.8; stroke-linecap: square"/>
   </g>
   <g id="line2d_69">
    <path d="M 60.013977 201.130564 
L 384.668523 105.082679 
" clip-path="url(#pa8f2e88e8a)" style="fill: none; stroke: #e5e5ff; stroke-width: 0.8; stroke-linecap: square"/>
   </g>
   <g id="line2d_70">
    <path d="M 60.013977 199.098339 
L 384.668523 107.114904 
" clip-path="url(#pa8f2e88e8a)" style="fill: none; stroke: #ffffff; stroke-width: 0.8; stroke-linecap: square"/>
   </g>
   <g id="line2d_71">
    <path d="M 60.013977 278.136 
L 63.913732 272.188456 
L 68.138465 266.160537 
L 72.688179 260.079663 
L 77.237892 254.364624 
L 82.112585 248.593207 
L 87.312257 242.787591 
L 92.836909 236.967196 
L 98.361561 231.463774 
L 104.211193 225.943922 
L 110.385804 220.424193 
L 116.885394 214.919499 
L 123.709964 209.443339 
L 130.534534 204.248781 
L 137.684084 199.081401 
L 145.158613 193.95328 
L 152.958121 188.875555 
L 161.08261 183.858517 
L 169.532077 178.911711 
L 177.981545 174.219652 
L 186.755992 169.596542 
L 195.855419 165.051179 
L 205.279825 160.591784 
L 215.029211 156.226047 
L 225.103576 151.96116 
L 235.502921 147.803852 
L 246.227245 143.760412 
L 257.276549 139.83671 
L 268.650832 136.038211 
L 280.350095 132.369987 
L 292.374338 128.836724 
L 304.72356 125.442721 
L 317.397761 122.191894 
L 330.396942 119.087764 
L 343.721103 116.133457 
L 357.370243 113.331685 
L 371.669342 110.625736 
L 384.668523 108.357495 
L 384.668523 108.357495 
" clip-path="url(#pa8f2e88e8a)" style="fill: none; stroke: #000000; stroke-width: 1.5; stroke-linecap: square"/>
   </g>
   <g id="line2d_72">
    <defs>
     <path id="m94bc99cf96" d="M 0 1.5 
C 0.397805 1.5 0.77937 1.341951 1.06066 1.06066 
C 1.341951 0.77937 1.5 0.397805 1.5 0 
C 1.5 -0.397805 1.341951 -0.77937 1.06066 -1.06066 
C 0.77937 -1.341951 0.397805 -1.5 0 -1.5 
C -0.397805 -1.5 -0.77937 -1.341951 -1.06066 -1.06066 
C -1.341951 -0.77937 -1.5 -0.397805 -1.5 0 
C -1.5 0.397805 -1.341951 0.77937 -1.06066 1.06066 
C -0.77937 1.341951 -0.397805 1.5 0 1.5 
z
" style="stroke: #000000"/>
    </defs>
    <g clip-path="url(#pa8f2e88e8a)">
     <use xlink:href="#m94bc99cf96" x="222.34125" y="153.106621" style="stroke: #000000"/>
    </g>
   </g>
   <g id="line2d_73">
    <path d="M 71.339136 261.842083 
" clip-path="url(#pa8f2e88e8a)" style="fill: none; stroke: #ffffff; stroke-width: 1.5; stroke-linecap: square"/>
    <defs>
     <path id="m958fd188b5" d="M 0 0.5 
C 0.132602 0.5 0.25979 0.447317 0.353553 0.353553 
C 0.447317 0.25979 0.5 0.132602 0.5 0 
C 0.5 -0.132602 0.447317 -0.25979 0.353553 -0.353553 
C 0.25979 -0.447317 0.132602 -0.5 0 -0.5 
C -0.132602 -0.5 -0.25979 -0.447317 -0.353553 -0.353553 
C -0.447317 -0.25979 -0.5 -0.132602 -0.5 0 
C -0.5 0.132602 -0.447317 0.25979 -0.353553 0.353553 
C -0.25979 0.447317 -0.132602 0.5 0 0.5 
z
" style="stroke: #ffffff"/>
    </defs>
    <g clip-path="url(#pa8f2e88e8a)">
     <use xlink:href="#m958fd188b5" x="71.339136" y="261.842083" style="fill: #ffffff; stroke: #ffffff"/>
    </g>
   </g>
   <g id="line2d_74">
    <path d="M 89.084762 240.883259 
" clip-path="url(#pa8f2e88e8a)" style="fill: none; stroke: #e5e5ff; stroke-width: 1.5; stroke-linecap: square"/>
    <defs>
     <path id="m03f89340e1" d="M 0 0.5 
C 0.132602 0.5 0.25979 0.447317 0.353553 0.353553 
C 0.447317 0.25979 0.5 0.132602 0.5 0 
C 0.5 -0.132602 0.447317 -0.25979 0.353553 -0.353553 
C 0.25979 -0.447317 0.132602 -0.5 0 -0.5 
C -0.132602 -0.5 -0.25979 -0.447317 -0.353553 -0.353553 
C -0.447317 -0.25979 -0.5 -0.132602 -0.5 0 
C -0.5 0.132602 -0.447317 0.25979 -0.353553 0.353553 
C -0.25979 0.447317 -0.132602 0.5 0 0.5 
z
" style="stroke: #e5e5ff"/>
    </defs>
    <g clip-path="url(#pa8f2e88e8a)">
     <use xlink:href="#m03f89340e1" x="89.084762" y="240.883259" style="fill: #e5e5ff; stroke: #e5e5ff"/>
    </g>
   </g>
   <g id="line2d_75">
    <path d="M 105.382605 224.873559 
" clip-path="url(#pa8f2e88e8a)" style="fill: none; stroke: #c6c6ff; stroke-width: 1.5; stroke-linecap: square"/>
    <defs>
     <path id="mdf3fbd3be0" d="M 0 0.5 
C 0.132602 0.5 0.25979 0.447317 0.353553 0.353553 
C 0.447317 0.25979 0.5 0.132602 0.5 0 
C 0.5 -0.132602 0.447317 -0.25979 0.353553 -0.353553 
C 0.25979 -0.447317 0.132602 -0.5 0 -0.5 
C -0.132602 -0.5 -0.25979 -0.447317 -0.353553 -0.353553 
C -0.447317 -0.25979 -0.5 -0.132602 -0.5 0 
C -0.5 0.132602 -0.447317 0.25979 -0.353553 0.353553 
C -0.25979 0.447317 -0.132602 0.5 0 0.5 
z
" style="stroke: #c6c6ff"/>
    </defs>
    <g clip-path="url(#pa8f2e88e8a)">
     <use xlink:href="#mdf3fbd3be0" x="105.382605" y="224.873559" style="fill: #c6c6ff; stroke: #c6c6ff"/>
    </g>
   </g>
   <g id="line2d_76">
    <path d="M 120.294271 212.147199 
" clip-path="url(#pa8f2e88e8a)" style="fill: none; stroke: #acacff; stroke-width: 1.5; stroke-linecap: square"/>
    <defs>
     <path id="m16505dca70" d="M 0 0.5 
C 0.132602 0.5 0.25979 0.447317 0.353553 0.353553 
C 0.447317 0.25979 0.5 0.132602 0.5 0 
C 0.5 -0.132602 0.447317 -0.25979 0.353553 -0.353553 
C 0.25979 -0.447317 0.132602 -0.5 0 -0.5 
C -0.132602 -0.5 -0.25979 -0.447317 -0.353553 -0.353553 
C -0.447317 -0.25979 -0.5 -0.132602 -0.5 0 
C -0.5 0.132602 -0.447317 0.25979 -0.353553 0.353553 
C -0.25979 0.447317 -0.132602 0.5 0 0.5 
z
" style="stroke: #acacff"/>
    </defs>
    <g clip-path="url(#pa8f2e88e8a)">
     <use xlink:href="#m16505dca70" x="120.294271" y="212.147199" style="fill: #acacff; stroke: #acacff"/>
    </g>
   </g>
   <g id="line2d_77">
    <path d="M 133.881368 201.796406 
" clip-path="url(#pa8f2e88e8a)" style="fill: none; stroke: #9797ff; stroke-width: 1.5; stroke-linecap: square"/>
    <defs>
     <path id="mc1a631b5ef" d="M 0 0.5 
C 0.132602 0.5 0.25979 0.447317 0.353553 0.353553 
C 0.447317 0.25979 0.5 0.132602 0.5 0 
C 0.5 -0.132602 0.447317 -0.25979 0.353553 -0.353553 
C 0.25979 -0.447317 0.132602 -0.5 0 -0.5 
C -0.132602 -0.5 -0.25979 -0.447317 -0.353553 -0.353553 
C -0.447317 -0.25979 -0.5 -0.132602 -0.5 0 
C -0.5 0.132602 -0.447317 0.25979 -0.353553 0.353553 
C -0.25979 0.447317 -0.132602 0.5 0 0.5 
z
" style="stroke: #9797ff"/>
    </defs>
    <g clip-path="url(#pa8f2e88e8a)">
     <use xlink:href="#mc1a631b5ef" x="133.881368" y="201.796406" style="fill: #9797ff; stroke: #9797ff"/>
    </g>
   </g>
   <g id="line2d_78">
    <path d="M 146.205504 193.256027 
" clip-path="url(#pa8f2e88e8a)" style="fill: none; stroke: #8282ff; stroke-width: 1.5; stroke-linecap: square"/>
    <defs>
     <path id="m50b416b58e" d="M 0 0.5 
C 0.132602 0.5 0.25979 0.447317 0.353553 0.353553 
C 0.447317 0.25979 0.5 0.132602 0.5 0 
C 0.5 -0.132602 0.447317 -0.25979 0.353553 -0.353553 
C 0.25979 -0.447317 0.132602 -0.5 0 -0.5 
C -0.132602 -0.5 -0.25979 -0.447317 -0.353553 -0.353553 
C -0.447317 -0.25979 -0.5 -0.132602 -0.5 0 
C -0.5 0.132602 -0.447317 0.25979 -0.353553 0.353553 
C -0.25979 0.447317 -0.132602 0.5 0 0.5 
z
" style="stroke: #8282ff"/>
    </defs>
    <g clip-path="url(#pa8f2e88e8a)">
     <use xlink:href="#m50b416b58e" x="146.205504" y="193.256027" style="fill: #8282ff; stroke: #8282ff"/>
    </g>
   </g>
   <g id="line2d_79">
    <path d="M 157.328287 186.143831 
" clip-path="url(#pa8f2e88e8a)" style="fill: none; stroke: #6d6dff; stroke-width: 1.5; stroke-linecap: square"/>
    <defs>
     <path id="mcd5b02af91" d="M 0 0.5 
C 0.132602 0.5 0.25979 0.447317 0.353553 0.353553 
C 0.447317 0.25979 0.5 0.132602 0.5 0 
C 0.5 -0.132602 0.447317 -0.25979 0.353553 -0.353553 
C 0.25979 -0.447317 0.132602 -0.5 0 -0.5 
C -0.132602 -0.5 -0.25979 -0.447317 -0.353553 -0.353553 
C -0.447317 -0.25979 -0.5 -0.132602 -0.5 0 
C -0.5 0.132602 -0.447317 0.25979 -0.353553 0.353553 
C -0.25979 0.447317 -0.132602 0.5 0 0.5 
z
" style="stroke: #6d6dff"/>
    </defs>
    <g clip-path="url(#pa8f2e88e8a)">
     <use xlink:href="#mcd5b02af91" x="157.328287" y="186.143831" style="fill: #6d6dff; stroke: #6d6dff"/>
    </g>
   </g>
   <g id="line2d_80">
    <path d="M 167.311325 180.186357 
" clip-path="url(#pa8f2e88e8a)" style="fill: none; stroke: #5e5eff; stroke-width: 1.5; stroke-linecap: square"/>
    <defs>
     <path id="mf8d343bc40" d="M 0 0.5 
C 0.132602 0.5 0.25979 0.447317 0.353553 0.353553 
C 0.447317 0.25979 0.5 0.132602 0.5 0 
C 0.5 -0.132602 0.447317 -0.25979 0.353553 -0.353553 
C 0.25979 -0.447317 0.132602 -0.5 0 -0.5 
C -0.132602 -0.5 -0.25979 -0.447317 -0.353553 -0.353553 
C -0.447317 -0.25979 -0.5 -0.132602 -0.5 0 
C -0.5 0.132602 -0.447317 0.25979 -0.353553 0.353553 
C -0.25979 0.447317 -0.132602 0.5 0 0.5 
z
" style="stroke: #5e5eff"/>
    </defs>
    <g clip-path="url(#pa8f2e88e8a)">
     <use xlink:href="#mf8d343bc40" x="167.311325" y="180.186357" style="fill: #5e5eff; stroke: #5e5eff"/>
    </g>
   </g>
   <g id="line2d_81">
    <path d="M 176.216226 175.179867 
" clip-path="url(#pa8f2e88e8a)" style="fill: none; stroke: #4e4eff; stroke-width: 1.5; stroke-linecap: square"/>
    <defs>
     <path id="md94dba4a4d" d="M 0 0.5 
C 0.132602 0.5 0.25979 0.447317 0.353553 0.353553 
C 0.447317 0.25979 0.5 0.132602 0.5 0 
C 0.5 -0.132602 0.447317 -0.25979 0.353553 -0.353553 
C 0.25979 -0.447317 0.132602 -0.5 0 -0.5 
C -0.132602 -0.5 -0.25979 -0.447317 -0.353553 -0.353553 
C -0.447317 -0.25979 -0.5 -0.132602 -0.5 0 
C -0.5 0.132602 -0.447317 0.25979 -0.353553 0.353553 
C -0.25979 0.447317 -0.132602 0.5 0 0.5 
z
" style="stroke: #4e4eff"/>
    </defs>
    <g clip-path="url(#pa8f2e88e8a)">
     <use xlink:href="#md94dba4a4d" x="176.216226" y="175.179867" style="fill: #4e4eff; stroke: #4e4eff"/>
    </g>
   </g>
   <g id="line2d_82">
    <path d="M 184.104597 170.967847 
" clip-path="url(#pa8f2e88e8a)" style="fill: none; stroke: #3e3eff; stroke-width: 1.5; stroke-linecap: square"/>
    <defs>
     <path id="m24e4601c12" d="M 0 0.5 
C 0.132602 0.5 0.25979 0.447317 0.353553 0.353553 
C 0.447317 0.25979 0.5 0.132602 0.5 0 
C 0.5 -0.132602 0.447317 -0.25979 0.353553 -0.353553 
C 0.25979 -0.447317 0.132602 -0.5 0 -0.5 
C -0.132602 -0.5 -0.25979 -0.447317 -0.353553 -0.353553 
C -0.447317 -0.25979 -0.5 -0.132602 -0.5 0 
C -0.5 0.132602 -0.447317 0.25979 -0.353553 0.353553 
C -0.25979 0.447317 -0.132602 0.5 0 0.5 
z
" style="stroke: #3e3eff"/>
    </defs>
    <g clip-path="url(#pa8f2e88e8a)">
     <use xlink:href="#m24e4601c12" x="184.104597" y="170.967847" style="fill: #3e3eff; stroke: #3e3eff"/>
    </g>
   </g>
   <g id="line2d_83">
    <path d="M 191.038047 167.427109 
" clip-path="url(#pa8f2e88e8a)" style="fill: none; stroke: #3434ff; stroke-width: 1.5; stroke-linecap: square"/>
    <defs>
     <path id="mba82b5645a" d="M 0 0.5 
C 0.132602 0.5 0.25979 0.447317 0.353553 0.353553 
C 0.447317 0.25979 0.5 0.132602 0.5 0 
C 0.5 -0.132602 0.447317 -0.25979 0.353553 -0.353553 
C 0.25979 -0.447317 0.132602 -0.5 0 -0.5 
C -0.132602 -0.5 -0.25979 -0.447317 -0.353553 -0.353553 
C -0.447317 -0.25979 -0.5 -0.132602 -0.5 0 
C -0.5 0.132602 -0.447317 0.25979 -0.353553 0.353553 
C -0.25979 0.447317 -0.132602 0.5 0 0.5 
z
" style="stroke: #3434ff"/>
    </defs>
    <g clip-path="url(#pa8f2e88e8a)">
     <use xlink:href="#mba82b5645a" x="191.038047" y="167.427109" style="fill: #3434ff; stroke: #3434ff"/>
    </g>
   </g>
   <g id="line2d_84">
    <path d="M 197.078183 164.458717 
" clip-path="url(#pa8f2e88e8a)" style="fill: none; stroke: #2a2aff; stroke-width: 1.5; stroke-linecap: square"/>
    <defs>
     <path id="m825171be3b" d="M 0 0.5 
C 0.132602 0.5 0.25979 0.447317 0.353553 0.353553 
C 0.447317 0.25979 0.5 0.132602 0.5 0 
C 0.5 -0.132602 0.447317 -0.25979 0.353553 -0.353553 
C 0.25979 -0.447317 0.132602 -0.5 0 -0.5 
C -0.132602 -0.5 -0.25979 -0.447317 -0.353553 -0.353553 
C -0.447317 -0.25979 -0.5 -0.132602 -0.5 0 
C -0.5 0.132602 -0.447317 0.25979 -0.353553 0.353553 
C -0.25979 0.447317 -0.132602 0.5 0 0.5 
z
" style="stroke: #2a2aff"/>
    </defs>
    <g clip-path="url(#pa8f2e88e8a)">
     <use xlink:href="#m825171be3b" x="197.078183" y="164.458717" style="fill: #2a2aff; stroke: #2a2aff"/>
    </g>
   </g>
   <g id="line2d_85">
    <path d="M 202.286613 161.981807 
" clip-path="url(#pa8f2e88e8a)" style="fill: none; stroke: #1f1fff; stroke-width: 1.5; stroke-linecap: square"/>
    <defs>
     <path id="m87278269ef" d="M 0 0.5 
C 0.132602 0.5 0.25979 0.447317 0.353553 0.353553 
C 0.447317 0.25979 0.5 0.132602 0.5 0 
C 0.5 -0.132602 0.447317 -0.25979 0.353553 -0.353553 
C 0.25979 -0.447317 0.132602 -0.5 0 -0.5 
C -0.132602 -0.5 -0.25979 -0.447317 -0.353553 -0.353553 
C -0.447317 -0.25979 -0.5 -0.132602 -0.5 0 
C -0.5 0.132602 -0.447317 0.25979 -0.353553 0.353553 
C -0.25979 0.447317 -0.132602 0.5 0 0.5 
z
" style="stroke: #1f1fff"/>
    </defs>
    <g clip-path="url(#pa8f2e88e8a)">
     <use xlink:href="#m87278269ef" x="202.286613" y="161.981807" style="fill: #1f1fff; stroke: #1f1fff"/>
    </g>
   </g>
   <g id="line2d_86">
    <path d="M 206.724945 159.929206 
" clip-path="url(#pa8f2e88e8a)" style="fill: none; stroke: #1a1aff; stroke-width: 1.5; stroke-linecap: square"/>
    <defs>
     <path id="m6f73b830c2" d="M 0 0.5 
C 0.132602 0.5 0.25979 0.447317 0.353553 0.353553 
C 0.447317 0.25979 0.5 0.132602 0.5 0 
C 0.5 -0.132602 0.447317 -0.25979 0.353553 -0.353553 
C 0.25979 -0.447317 0.132602 -0.5 0 -0.5 
C -0.132602 -0.5 -0.25979 -0.447317 -0.353553 -0.353553 
C -0.447317 -0.25979 -0.5 -0.132602 -0.5 0 
C -0.5 0.132602 -0.447317 0.25979 -0.353553 0.353553 
C -0.25979 0.447317 -0.132602 0.5 0 0.5 
z
" style="stroke: #1a1aff"/>
    </defs>
    <g clip-path="url(#pa8f2e88e8a)">
     <use xlink:href="#m6f73b830c2" x="206.724945" y="159.929206" style="fill: #1a1aff; stroke: #1a1aff"/>
    </g>
   </g>
   <g id="line2d_87">
    <path d="M 210.454786 158.244236 
" clip-path="url(#pa8f2e88e8a)" style="fill: none; stroke: #1010ff; stroke-width: 1.5; stroke-linecap: square"/>
    <defs>
     <path id="mdf5c9d9c52" d="M 0 0.5 
C 0.132602 0.5 0.25979 0.447317 0.353553 0.353553 
C 0.447317 0.25979 0.5 0.132602 0.5 0 
C 0.5 -0.132602 0.447317 -0.25979 0.353553 -0.353553 
C 0.25979 -0.447317 0.132602 -0.5 0 -0.5 
C -0.132602 -0.5 -0.25979 -0.447317 -0.353553 -0.353553 
C -0.447317 -0.25979 -0.5 -0.132602 -0.5 0 
C -0.5 0.132602 -0.447317 0.25979 -0.353553 0.353553 
C -0.25979 0.447317 -0.132602 0.5 0 0.5 
z
" style="stroke: #1010ff"/>
    </defs>
    <g clip-path="url(#pa8f2e88e8a)">
     <use xlink:href="#mdf5c9d9c52" x="210.454786" y="158.244236" style="fill: #1010ff; stroke: #1010ff"/>
    </g>
   </g>
   <g id="line2d_88">
    <path d="M 213.537745 156.878312 
" clip-path="url(#pa8f2e88e8a)" style="fill: none; stroke: #0a0aff; stroke-width: 1.5; stroke-linecap: square"/>
    <defs>
     <path id="mab2131c09d" d="M 0 0.5 
C 0.132602 0.5 0.25979 0.447317 0.353553 0.353553 
C 0.447317 0.25979 0.5 0.132602 0.5 0 
C 0.5 -0.132602 0.447317 -0.25979 0.353553 -0.353553 
C 0.25979 -0.447317 0.132602 -0.5 0 -0.5 
C -0.132602 -0.5 -0.25979 -0.447317 -0.353553 -0.353553 
C -0.447317 -0.25979 -0.5 -0.132602 -0.5 0 
C -0.5 0.132602 -0.447317 0.25979 -0.353553 0.353553 
C -0.25979 0.447317 -0.132602 0.5 0 0.5 
z
" style="stroke: #0a0aff"/>
    </defs>
    <g clip-path="url(#pa8f2e88e8a)">
     <use xlink:href="#mab2131c09d" x="213.537745" y="156.878312" style="fill: #0a0aff; stroke: #0a0aff"/>
    </g>
   </g>
   <g id="line2d_89">
    <path d="M 216.03543 155.7891 
" clip-path="url(#pa8f2e88e8a)" style="fill: none; stroke: #0a0aff; stroke-width: 1.5; stroke-linecap: square"/>
    <g clip-path="url(#pa8f2e88e8a)">
     <use xlink:href="#mab2131c09d" x="216.03543" y="155.7891" style="fill: #0a0aff; stroke: #0a0aff"/>
    </g>
   </g>
   <g id="line2d_90">
    <path d="M 218.009448 154.939081 
" clip-path="url(#pa8f2e88e8a)" style="fill: none; stroke: #0505ff; stroke-width: 1.5; stroke-linecap: square"/>
    <defs>
     <path id="mb820b37190" d="M 0 0.5 
C 0.132602 0.5 0.25979 0.447317 0.353553 0.353553 
C 0.447317 0.25979 0.5 0.132602 0.5 0 
C 0.5 -0.132602 0.447317 -0.25979 0.353553 -0.353553 
C 0.25979 -0.447317 0.132602 -0.5 0 -0.5 
C -0.132602 -0.5 -0.25979 -0.447317 -0.353553 -0.353553 
C -0.447317 -0.25979 -0.5 -0.132602 -0.5 0 
C -0.5 0.132602 -0.447317 0.25979 -0.353553 0.353553 
C -0.25979 0.447317 -0.132602 0.5 0 0.5 
z
" style="stroke: #0505ff"/>
    </defs>
    <g clip-path="url(#pa8f2e88e8a)">
     <use xlink:href="#mb820b37190" x="218.009448" y="154.939081" style="fill: #0505ff; stroke: #0505ff"/>
    </g>
   </g>
   <g id="line2d_91">
    <path d="M 219.521408 154.294401 
" clip-path="url(#pa8f2e88e8a)" style="fill: none; stroke: #0000ff; stroke-width: 1.5; stroke-linecap: square"/>
    <defs>
     <path id="m59c7c0e742" d="M 0 0.5 
C 0.132602 0.5 0.25979 0.447317 0.353553 0.353553 
C 0.447317 0.25979 0.5 0.132602 0.5 0 
C 0.5 -0.132602 0.447317 -0.25979 0.353553 -0.353553 
C 0.25979 -0.447317 0.132602 -0.5 0 -0.5 
C -0.132602 -0.5 -0.25979 -0.447317 -0.353553 -0.353553 
C -0.447317 -0.25979 -0.5 -0.132602 -0.5 0 
C -0.5 0.132602 -0.447317 0.25979 -0.353553 0.353553 
C -0.25979 0.447317 -0.132602 0.5 0 0.5 
z
" style="stroke: #0000ff"/>
    </defs>
    <g clip-path="url(#pa8f2e88e8a)">
     <use xlink:href="#m59c7c0e742" x="219.521408" y="154.294401" style="fill: #0000ff; stroke: #0000ff"/>
    </g>
   </g>
   <g id="line2d_92">
    <path d="M 220.632916 153.823959 
" clip-path="url(#pa8f2e88e8a)" style="fill: none; stroke: #0000ff; stroke-width: 1.5; stroke-linecap: square"/>
    <g clip-path="url(#pa8f2e88e8a)">
     <use xlink:href="#m59c7c0e742" x="220.632916" y="153.823959" style="fill: #0000ff; stroke: #0000ff"/>
    </g>
   </g>
   <g id="line2d_93">
    <path d="M 221.405581 153.49866 
" clip-path="url(#pa8f2e88e8a)" style="fill: none; stroke: #0000ff; stroke-width: 1.5; stroke-linecap: square"/>
    <g clip-path="url(#pa8f2e88e8a)">
     <use xlink:href="#m59c7c0e742" x="221.405581" y="153.49866" style="fill: #0000ff; stroke: #0000ff"/>
    </g>
   </g>
   <g id="line2d_94">
    <path d="M 221.901011 153.290822 
" clip-path="url(#pa8f2e88e8a)" style="fill: none; stroke: #0000ff; stroke-width: 1.5; stroke-linecap: square"/>
    <g clip-path="url(#pa8f2e88e8a)">
     <use xlink:href="#m59c7c0e742" x="221.901011" y="153.290822" style="fill: #0000ff; stroke: #0000ff"/>
    </g>
   </g>
   <g id="line2d_95">
    <path d="M 222.180813 153.173697 
" clip-path="url(#pa8f2e88e8a)" style="fill: none; stroke: #0000ff; stroke-width: 1.5; stroke-linecap: square"/>
    <g clip-path="url(#pa8f2e88e8a)">
     <use xlink:href="#m59c7c0e742" x="222.180813" y="153.173697" style="fill: #0000ff; stroke: #0000ff"/>
    </g>
   </g>
   <g id="line2d_96">
    <path d="M 222.306596 153.121105 
" clip-path="url(#pa8f2e88e8a)" style="fill: none; stroke: #0000ff; stroke-width: 1.5; stroke-linecap: square"/>
    <g clip-path="url(#pa8f2e88e8a)">
     <use xlink:href="#m59c7c0e742" x="222.306596" y="153.121105" style="fill: #0000ff; stroke: #0000ff"/>
    </g>
   </g>
   <g id="line2d_97">
    <path d="M 222.339967 153.107158 
" clip-path="url(#pa8f2e88e8a)" style="fill: none; stroke: #0000ff; stroke-width: 1.5; stroke-linecap: square"/>
    <g clip-path="url(#pa8f2e88e8a)">
     <use xlink:href="#m59c7c0e742" x="222.339967" y="153.107158" style="fill: #0000ff; stroke: #0000ff"/>
    </g>
   </g>
   <g id="line2d_98">
    <path d="M 222.342533 153.106085 
" clip-path="url(#pa8f2e88e8a)" style="fill: none; stroke: #0000ff; stroke-width: 1.5; stroke-linecap: square"/>
    <g clip-path="url(#pa8f2e88e8a)">
     <use xlink:href="#m59c7c0e742" x="222.342533" y="153.106085" style="fill: #0000ff; stroke: #0000ff"/>
    </g>
   </g>
   <g id="line2d_99">
    <path d="M 222.375904 153.092141 
" clip-path="url(#pa8f2e88e8a)" style="fill: none; stroke: #0000ff; stroke-width: 1.5; stroke-linecap: square"/>
    <g clip-path="url(#pa8f2e88e8a)">
     <use xlink:href="#m59c7c0e742" x="222.375904" y="153.092141" style="fill: #0000ff; stroke: #0000ff"/>
    </g>
   </g>
   <g id="line2d_100">
    <path d="M 222.501687 153.039606 
" clip-path="url(#pa8f2e88e8a)" style="fill: none; stroke: #0000ff; stroke-width: 1.5; stroke-linecap: square"/>
    <g clip-path="url(#pa8f2e88e8a)">
     <use xlink:href="#m59c7c0e742" x="222.501687" y="153.039606" style="fill: #0000ff; stroke: #0000ff"/>
    </g>
   </g>
   <g id="line2d_101">
    <path d="M 222.781489 152.922876 
" clip-path="url(#pa8f2e88e8a)" style="fill: none; stroke: #0000ff; stroke-width: 1.5; stroke-linecap: square"/>
    <g clip-path="url(#pa8f2e88e8a)">
     <use xlink:href="#m59c7c0e742" x="222.781489" y="152.922876" style="fill: #0000ff; stroke: #0000ff"/>
    </g>
   </g>
   <g id="line2d_102">
    <path d="M 223.276919 152.716637 
" clip-path="url(#pa8f2e88e8a)" style="fill: none; stroke: #0000ff; stroke-width: 1.5; stroke-linecap: square"/>
    <g clip-path="url(#pa8f2e88e8a)">
     <use xlink:href="#m59c7c0e742" x="223.276919" y="152.716637" style="fill: #0000ff; stroke: #0000ff"/>
    </g>
   </g>
   <g id="line2d_103">
    <path d="M 224.049584 152.396131 
" clip-path="url(#pa8f2e88e8a)" style="fill: none; stroke: #0000ff; stroke-width: 1.5; stroke-linecap: square"/>
    <g clip-path="url(#pa8f2e88e8a)">
     <use xlink:href="#m59c7c0e742" x="224.049584" y="152.396131" style="fill: #0000ff; stroke: #0000ff"/>
    </g>
   </g>
   <g id="line2d_104">
    <path d="M 225.161092 151.937498 
" clip-path="url(#pa8f2e88e8a)" style="fill: none; stroke: #0000ff; stroke-width: 1.5; stroke-linecap: square"/>
    <g clip-path="url(#pa8f2e88e8a)">
     <use xlink:href="#m59c7c0e742" x="225.161092" y="151.937498" style="fill: #0000ff; stroke: #0000ff"/>
    </g>
   </g>
   <g id="line2d_105">
    <path d="M 226.673052 151.318191 
" clip-path="url(#pa8f2e88e8a)" style="fill: none; stroke: #0505ff; stroke-width: 1.5; stroke-linecap: square"/>
    <g clip-path="url(#pa8f2e88e8a)">
     <use xlink:href="#mb820b37190" x="226.673052" y="151.318191" style="fill: #0505ff; stroke: #0505ff"/>
    </g>
   </g>
   <g id="line2d_106">
    <path d="M 228.64707 150.517457 
" clip-path="url(#pa8f2e88e8a)" style="fill: none; stroke: #0a0aff; stroke-width: 1.5; stroke-linecap: square"/>
    <g clip-path="url(#pa8f2e88e8a)">
     <use xlink:href="#mab2131c09d" x="228.64707" y="150.517457" style="fill: #0a0aff; stroke: #0a0aff"/>
    </g>
   </g>
   <g id="line2d_107">
    <path d="M 231.144755 149.516853 
" clip-path="url(#pa8f2e88e8a)" style="fill: none; stroke: #0a0aff; stroke-width: 1.5; stroke-linecap: square"/>
    <g clip-path="url(#pa8f2e88e8a)">
     <use xlink:href="#mab2131c09d" x="231.144755" y="149.516853" style="fill: #0a0aff; stroke: #0a0aff"/>
    </g>
   </g>
   <g id="line2d_108">
    <path d="M 234.227714 148.300797 
" clip-path="url(#pa8f2e88e8a)" style="fill: none; stroke: #1010ff; stroke-width: 1.5; stroke-linecap: square"/>
    <g clip-path="url(#pa8f2e88e8a)">
     <use xlink:href="#mdf5c9d9c52" x="234.227714" y="148.300797" style="fill: #1010ff; stroke: #1010ff"/>
    </g>
   </g>
   <g id="line2d_109">
    <path d="M 237.957555 146.857116 
" clip-path="url(#pa8f2e88e8a)" style="fill: none; stroke: #1a1aff; stroke-width: 1.5; stroke-linecap: square"/>
    <g clip-path="url(#pa8f2e88e8a)">
     <use xlink:href="#m6f73b830c2" x="237.957555" y="146.857116" style="fill: #1a1aff; stroke: #1a1aff"/>
    </g>
   </g>
   <g id="line2d_110">
    <path d="M 242.395887 145.177566 
" clip-path="url(#pa8f2e88e8a)" style="fill: none; stroke: #1f1fff; stroke-width: 1.5; stroke-linecap: square"/>
    <g clip-path="url(#pa8f2e88e8a)">
     <use xlink:href="#m87278269ef" x="242.395887" y="145.177566" style="fill: #1f1fff; stroke: #1f1fff"/>
    </g>
   </g>
   <g id="line2d_111">
    <path d="M 247.604317 143.258315 
" clip-path="url(#pa8f2e88e8a)" style="fill: none; stroke: #2a2aff; stroke-width: 1.5; stroke-linecap: square"/>
    <g clip-path="url(#pa8f2e88e8a)">
     <use xlink:href="#m825171be3b" x="247.604317" y="143.258315" style="fill: #2a2aff; stroke: #2a2aff"/>
    </g>
   </g>
   <g id="line2d_112">
    <path d="M 253.644453 141.100343 
" clip-path="url(#pa8f2e88e8a)" style="fill: none; stroke: #3434ff; stroke-width: 1.5; stroke-linecap: square"/>
    <g clip-path="url(#pa8f2e88e8a)">
     <use xlink:href="#mba82b5645a" x="253.644453" y="141.100343" style="fill: #3434ff; stroke: #3434ff"/>
    </g>
   </g>
   <g id="line2d_113">
    <path d="M 260.577903 138.709753 
" clip-path="url(#pa8f2e88e8a)" style="fill: none; stroke: #3e3eff; stroke-width: 1.5; stroke-linecap: square"/>
    <g clip-path="url(#pa8f2e88e8a)">
     <use xlink:href="#m24e4601c12" x="260.577903" y="138.709753" style="fill: #3e3eff; stroke: #3e3eff"/>
    </g>
   </g>
   <g id="line2d_114">
    <path d="M 268.466274 136.097978 
" clip-path="url(#pa8f2e88e8a)" style="fill: none; stroke: #4e4eff; stroke-width: 1.5; stroke-linecap: square"/>
    <g clip-path="url(#pa8f2e88e8a)">
     <use xlink:href="#md94dba4a4d" x="268.466274" y="136.097978" style="fill: #4e4eff; stroke: #4e4eff"/>
    </g>
   </g>
   <g id="line2d_115">
    <path d="M 277.371175 133.281861 
" clip-path="url(#pa8f2e88e8a)" style="fill: none; stroke: #5e5eff; stroke-width: 1.5; stroke-linecap: square"/>
    <g clip-path="url(#pa8f2e88e8a)">
     <use xlink:href="#mf8d343bc40" x="277.371175" y="133.281861" style="fill: #5e5eff; stroke: #5e5eff"/>
    </g>
   </g>
   <g id="line2d_116">
    <path d="M 287.354213 130.283619 
" clip-path="url(#pa8f2e88e8a)" style="fill: none; stroke: #6d6dff; stroke-width: 1.5; stroke-linecap: square"/>
    <g clip-path="url(#pa8f2e88e8a)">
     <use xlink:href="#mcd5b02af91" x="287.354213" y="130.283619" style="fill: #6d6dff; stroke: #6d6dff"/>
    </g>
   </g>
   <g id="line2d_117">
    <path d="M 298.476996 127.130673 
" clip-path="url(#pa8f2e88e8a)" style="fill: none; stroke: #8282ff; stroke-width: 1.5; stroke-linecap: square"/>
    <g clip-path="url(#pa8f2e88e8a)">
     <use xlink:href="#m50b416b58e" x="298.476996" y="127.130673" style="fill: #8282ff; stroke: #8282ff"/>
    </g>
   </g>
   <g id="line2d_118">
    <path d="M 310.801132 123.855365 
" clip-path="url(#pa8f2e88e8a)" style="fill: none; stroke: #9797ff; stroke-width: 1.5; stroke-linecap: square"/>
    <g clip-path="url(#pa8f2e88e8a)">
     <use xlink:href="#mc1a631b5ef" x="310.801132" y="123.855365" style="fill: #9797ff; stroke: #9797ff"/>
    </g>
   </g>
   <g id="line2d_119">
    <path d="M 324.388229 120.494551 
" clip-path="url(#pa8f2e88e8a)" style="fill: none; stroke: #acacff; stroke-width: 1.5; stroke-linecap: square"/>
    <g clip-path="url(#pa8f2e88e8a)">
     <use xlink:href="#m16505dca70" x="324.388229" y="120.494551" style="fill: #acacff; stroke: #acacff"/>
    </g>
   </g>
   <g id="line2d_120">
    <path d="M 339.299895 117.089081 
" clip-path="url(#pa8f2e88e8a)" style="fill: none; stroke: #c6c6ff; stroke-width: 1.5; stroke-linecap: square"/>
    <g clip-path="url(#pa8f2e88e8a)">
     <use xlink:href="#mdf3fbd3be0" x="339.299895" y="117.089081" style="fill: #c6c6ff; stroke: #c6c6ff"/>
    </g>
   </g>
   <g id="line2d_121">
    <path d="M 355.597738 113.683166 
" clip-path="url(#pa8f2e88e8a)" style="fill: none; stroke: #e5e5ff; stroke-width: 1.5; stroke-linecap: square"/>
    <g clip-path="url(#pa8f2e88e8a)">
     <use xlink:href="#m03f89340e1" x="355.597738" y="113.683166" style="fill: #e5e5ff; stroke: #e5e5ff"/>
    </g>
   </g>
   <g id="line2d_122">
    <path d="M 373.343364 110.323628 
" clip-path="url(#pa8f2e88e8a)" style="fill: none; stroke: #ffffff; stroke-width: 1.5; stroke-linecap: square"/>
    <g clip-path="url(#pa8f2e88e8a)">
     <use xlink:href="#m958fd188b5" x="373.343364" y="110.323628" style="fill: #ffffff; stroke: #ffffff"/>
    </g>
   </g>
   <g id="line2d_123">
    <path d="M 60.013977 220.942056 
L 384.668523 85.271186 
" clip-path="url(#pa8f2e88e8a)" style="fill: none; stroke: #800080; stroke-linecap: square"/>
   </g>
   <g id="patch_3">
    <path d="M 43.78125 290.232 
L 43.78125 24.12 
" style="fill: none; stroke: #000000; stroke-width: 0.8; stroke-linejoin: miter; stroke-linecap: square"/>
   </g>
   <g id="patch_4">
    <path d="M 400.90125 290.232 
L 400.90125 24.12 
" style="fill: none; stroke: #000000; stroke-width: 0.8; stroke-linejoin: miter; stroke-linecap: square"/>
   </g>
   <g id="patch_5">
    <path d="M 43.78125 290.232 
L 400.90125 290.232 
" style="fill: none; stroke: #000000; stroke-width: 0.8; stroke-linejoin: miter; stroke-linecap: square"/>
   </g>
   <g id="patch_6">
    <path d="M 43.78125 24.12 
L 400.90125 24.12 
" style="fill: none; stroke: #000000; stroke-width: 0.8; stroke-linejoin: miter; stroke-linecap: square"/>
   </g>
   <g id="text_13">
    <!-- P -->
    <g transform="translate(219.34125 169.106621) scale(0.12 -0.12)">
     <defs>
      <path id="DejaVuSans-50" d="M 1259 4147 
L 1259 2394 
L 2053 2394 
Q 2494 2394 2734 2622 
Q 2975 2850 2975 3272 
Q 2975 3691 2734 3919 
Q 2494 4147 2053 4147 
L 1259 4147 
z
M 628 4666 
L 2053 4666 
Q 2838 4666 3239 4311 
Q 3641 3956 3641 3272 
Q 3641 2581 3239 2228 
Q 2838 1875 2053 1875 
L 1259 1875 
L 1259 0 
L 628 0 
L 628 4666 
z
" transform="scale(0.015625)"/>
     </defs>
     <use xlink:href="#DejaVuSans-50"/>
    </g>
   </g>
   <g id="text_14">
    <!-- Elliptic Curve $y^2 = x^3 + 7$ and secants -->
    <g transform="translate(110.86125 18.12) scale(0.12 -0.12)">
     <defs>
      <path id="DejaVuSans-45" d="M 628 4666 
L 3578 4666 
L 3578 4134 
L 1259 4134 
L 1259 2753 
L 3481 2753 
L 3481 2222 
L 1259 2222 
L 1259 531 
L 3634 531 
L 3634 0 
L 628 0 
L 628 4666 
z
" transform="scale(0.015625)"/>
      <path id="DejaVuSans-6c" d="M 603 4863 
L 1178 4863 
L 1178 0 
L 603 0 
L 603 4863 
z
" transform="scale(0.015625)"/>
      <path id="DejaVuSans-69" d="M 603 3500 
L 1178 3500 
L 1178 0 
L 603 0 
L 603 3500 
z
M 603 4863 
L 1178 4863 
L 1178 4134 
L 603 4134 
L 603 4863 
z
" transform="scale(0.015625)"/>
      <path id="DejaVuSans-70" d="M 1159 525 
L 1159 -1331 
L 581 -1331 
L 581 3500 
L 1159 3500 
L 1159 2969 
Q 1341 3281 1617 3432 
Q 1894 3584 2278 3584 
Q 2916 3584 3314 3078 
Q 3713 2572 3713 1747 
Q 3713 922 3314 415 
Q 2916 -91 2278 -91 
Q 1894 -91 1617 61 
Q 1341 213 1159 525 
z
M 3116 1747 
Q 3116 2381 2855 2742 
Q 2594 3103 2138 3103 
Q 1681 3103 1420 2742 
Q 1159 2381 1159 1747 
Q 1159 1113 1420 752 
Q 1681 391 2138 391 
Q 2594 391 2855 752 
Q 3116 1113 3116 1747 
z
" transform="scale(0.015625)"/>
      <path id="DejaVuSans-74" d="M 1172 4494 
L 1172 3500 
L 2356 3500 
L 2356 3053 
L 1172 3053 
L 1172 1153 
Q 1172 725 1289 603 
Q 1406 481 1766 481 
L 2356 481 
L 2356 0 
L 1766 0 
Q 1100 0 847 248 
Q 594 497 594 1153 
L 594 3053 
L 172 3053 
L 172 3500 
L 594 3500 
L 594 4494 
L 1172 4494 
z
" transform="scale(0.015625)"/>
      <path id="DejaVuSans-63" d="M 3122 3366 
L 3122 2828 
Q 2878 2963 2633 3030 
Q 2388 3097 2138 3097 
Q 1578 3097 1268 2742 
Q 959 2388 959 1747 
Q 959 1106 1268 751 
Q 1578 397 2138 397 
Q 2388 397 2633 464 
Q 2878 531 3122 666 
L 3122 134 
Q 2881 22 2623 -34 
Q 2366 -91 2075 -91 
Q 1284 -91 818 406 
Q 353 903 353 1747 
Q 353 2603 823 3093 
Q 1294 3584 2113 3584 
Q 2378 3584 2631 3529 
Q 2884 3475 3122 3366 
z
" transform="scale(0.015625)"/>
      <path id="DejaVuSans-20" transform="scale(0.015625)"/>
      <path id="DejaVuSans-43" d="M 4122 4306 
L 4122 3641 
Q 3803 3938 3442 4084 
Q 3081 4231 2675 4231 
Q 1875 4231 1450 3742 
Q 1025 3253 1025 2328 
Q 1025 1406 1450 917 
Q 1875 428 2675 428 
Q 3081 428 3442 575 
Q 3803 722 4122 1019 
L 4122 359 
Q 3791 134 3420 21 
Q 3050 -91 2638 -91 
Q 1578 -91 968 557 
Q 359 1206 359 2328 
Q 359 3453 968 4101 
Q 1578 4750 2638 4750 
Q 3056 4750 3426 4639 
Q 3797 4528 4122 4306 
z
" transform="scale(0.015625)"/>
      <path id="DejaVuSans-75" d="M 544 1381 
L 544 3500 
L 1119 3500 
L 1119 1403 
Q 1119 906 1312 657 
Q 1506 409 1894 409 
Q 2359 409 2629 706 
Q 2900 1003 2900 1516 
L 2900 3500 
L 3475 3500 
L 3475 0 
L 2900 0 
L 2900 538 
Q 2691 219 2414 64 
Q 2138 -91 1772 -91 
Q 1169 -91 856 284 
Q 544 659 544 1381 
z
M 1991 3584 
L 1991 3584 
z
" transform="scale(0.015625)"/>
      <path id="DejaVuSans-72" d="M 2631 2963 
Q 2534 3019 2420 3045 
Q 2306 3072 2169 3072 
Q 1681 3072 1420 2755 
Q 1159 2438 1159 1844 
L 1159 0 
L 581 0 
L 581 3500 
L 1159 3500 
L 1159 2956 
Q 1341 3275 1631 3429 
Q 1922 3584 2338 3584 
Q 2397 3584 2469 3576 
Q 2541 3569 2628 3553 
L 2631 2963 
z
" transform="scale(0.015625)"/>
      <path id="DejaVuSans-76" d="M 191 3500 
L 800 3500 
L 1894 563 
L 2988 3500 
L 3597 3500 
L 2284 0 
L 1503 0 
L 191 3500 
z
" transform="scale(0.015625)"/>
      <path id="DejaVuSans-65" d="M 3597 1894 
L 3597 1613 
L 953 1613 
Q 991 1019 1311 708 
Q 1631 397 2203 397 
Q 2534 397 2845 478 
Q 3156 559 3463 722 
L 3463 178 
Q 3153 47 2828 -22 
Q 2503 -91 2169 -91 
Q 1331 -91 842 396 
Q 353 884 353 1716 
Q 353 2575 817 3079 
Q 1281 3584 2069 3584 
Q 2775 3584 3186 3129 
Q 3597 2675 3597 1894 
z
M 3022 2063 
Q 3016 2534 2758 2815 
Q 2500 3097 2075 3097 
Q 1594 3097 1305 2825 
Q 1016 2553 972 2059 
L 3022 2063 
z
" transform="scale(0.015625)"/>
      <path id="DejaVuSans-Oblique-79" d="M 1588 -325 
Q 1188 -997 936 -1164 
Q 684 -1331 294 -1331 
L -159 -1331 
L -63 -850 
L 269 -850 
Q 509 -850 678 -719 
Q 847 -588 1056 -206 
L 1234 128 
L 459 3500 
L 1069 3500 
L 1650 819 
L 3256 3500 
L 3859 3500 
L 1588 -325 
z
" transform="scale(0.015625)"/>
      <path id="DejaVuSans-3d" d="M 678 2906 
L 4684 2906 
L 4684 2381 
L 678 2381 
L 678 2906 
z
M 678 1631 
L 4684 1631 
L 4684 1100 
L 678 1100 
L 678 1631 
z
" transform="scale(0.015625)"/>
      <path id="DejaVuSans-Oblique-78" d="M 3841 3500 
L 2234 1784 
L 3219 0 
L 2559 0 
L 1819 1388 
L 531 0 
L -166 0 
L 1556 1844 
L 641 3500 
L 1300 3500 
L 1972 2234 
L 3144 3500 
L 3841 3500 
z
" transform="scale(0.015625)"/>
      <path id="DejaVuSans-2b" d="M 2944 4013 
L 2944 2272 
L 4684 2272 
L 4684 1741 
L 2944 1741 
L 2944 0 
L 2419 0 
L 2419 1741 
L 678 1741 
L 678 2272 
L 2419 2272 
L 2419 4013 
L 2944 4013 
z
" transform="scale(0.015625)"/>
      <path id="DejaVuSans-37" d="M 525 4666 
L 3525 4666 
L 3525 4397 
L 1831 0 
L 1172 0 
L 2766 4134 
L 525 4134 
L 525 4666 
z
" transform="scale(0.015625)"/>
      <path id="DejaVuSans-61" d="M 2194 1759 
Q 1497 1759 1228 1600 
Q 959 1441 959 1056 
Q 959 750 1161 570 
Q 1363 391 1709 391 
Q 2188 391 2477 730 
Q 2766 1069 2766 1631 
L 2766 1759 
L 2194 1759 
z
M 3341 1997 
L 3341 0 
L 2766 0 
L 2766 531 
Q 2569 213 2275 61 
Q 1981 -91 1556 -91 
Q 1019 -91 701 211 
Q 384 513 384 1019 
Q 384 1609 779 1909 
Q 1175 2209 1959 2209 
L 2766 2209 
L 2766 2266 
Q 2766 2663 2505 2880 
Q 2244 3097 1772 3097 
Q 1472 3097 1187 3025 
Q 903 2953 641 2809 
L 641 3341 
Q 956 3463 1253 3523 
Q 1550 3584 1831 3584 
Q 2591 3584 2966 3190 
Q 3341 2797 3341 1997 
z
" transform="scale(0.015625)"/>
      <path id="DejaVuSans-6e" d="M 3513 2113 
L 3513 0 
L 2938 0 
L 2938 2094 
Q 2938 2591 2744 2837 
Q 2550 3084 2163 3084 
Q 1697 3084 1428 2787 
Q 1159 2491 1159 1978 
L 1159 0 
L 581 0 
L 581 3500 
L 1159 3500 
L 1159 2956 
Q 1366 3272 1645 3428 
Q 1925 3584 2291 3584 
Q 2894 3584 3203 3211 
Q 3513 2838 3513 2113 
z
" transform="scale(0.015625)"/>
      <path id="DejaVuSans-64" d="M 2906 2969 
L 2906 4863 
L 3481 4863 
L 3481 0 
L 2906 0 
L 2906 525 
Q 2725 213 2448 61 
Q 2172 -91 1784 -91 
Q 1150 -91 751 415 
Q 353 922 353 1747 
Q 353 2572 751 3078 
Q 1150 3584 1784 3584 
Q 2172 3584 2448 3432 
Q 2725 3281 2906 2969 
z
M 947 1747 
Q 947 1113 1208 752 
Q 1469 391 1925 391 
Q 2381 391 2643 752 
Q 2906 1113 2906 1747 
Q 2906 2381 2643 2742 
Q 2381 3103 1925 3103 
Q 1469 3103 1208 2742 
Q 947 2381 947 1747 
z
" transform="scale(0.015625)"/>
      <path id="DejaVuSans-73" d="M 2834 3397 
L 2834 2853 
Q 2591 2978 2328 3040 
Q 2066 3103 1784 3103 
Q 1356 3103 1142 2972 
Q 928 2841 928 2578 
Q 928 2378 1081 2264 
Q 1234 2150 1697 2047 
L 1894 2003 
Q 2506 1872 2764 1633 
Q 3022 1394 3022 966 
Q 3022 478 2636 193 
Q 2250 -91 1575 -91 
Q 1294 -91 989 -36 
Q 684 19 347 128 
L 347 722 
Q 666 556 975 473 
Q 1284 391 1588 391 
Q 1994 391 2212 530 
Q 2431 669 2431 922 
Q 2431 1156 2273 1281 
Q 2116 1406 1581 1522 
L 1381 1569 
Q 847 1681 609 1914 
Q 372 2147 372 2553 
Q 372 3047 722 3315 
Q 1072 3584 1716 3584 
Q 2034 3584 2315 3537 
Q 2597 3491 2834 3397 
z
" transform="scale(0.015625)"/>
     </defs>
     <use xlink:href="#DejaVuSans-45" transform="translate(0 0.765625)"/>
     <use xlink:href="#DejaVuSans-6c" transform="translate(63.183594 0.765625)"/>
     <use xlink:href="#DejaVuSans-6c" transform="translate(90.966797 0.765625)"/>
     <use xlink:href="#DejaVuSans-69" transform="translate(118.75 0.765625)"/>
     <use xlink:href="#DejaVuSans-70" transform="translate(146.533203 0.765625)"/>
     <use xlink:href="#DejaVuSans-74" transform="translate(210.009766 0.765625)"/>
     <use xlink:href="#DejaVuSans-69" transform="translate(249.21875 0.765625)"/>
     <use xlink:href="#DejaVuSans-63" transform="translate(277.001953 0.765625)"/>
     <use xlink:href="#DejaVuSans-20" transform="translate(331.982422 0.765625)"/>
     <use xlink:href="#DejaVuSans-43" transform="translate(363.769531 0.765625)"/>
     <use xlink:href="#DejaVuSans-75" transform="translate(433.59375 0.765625)"/>
     <use xlink:href="#DejaVuSans-72" transform="translate(496.972656 0.765625)"/>
     <use xlink:href="#DejaVuSans-76" transform="translate(538.085938 0.765625)"/>
     <use xlink:href="#DejaVuSans-65" transform="translate(597.265625 0.765625)"/>
     <use xlink:href="#DejaVuSans-20" transform="translate(658.789062 0.765625)"/>
     <use xlink:href="#DejaVuSans-Oblique-79" transform="translate(690.576172 0.765625)"/>
     <use xlink:href="#DejaVuSans-32" transform="translate(754.222005 39.046875) scale(0.7)"/>
     <use xlink:href="#DejaVuSans-3d" transform="translate(820.974935 0.765625)"/>
     <use xlink:href="#DejaVuSans-Oblique-78" transform="translate(924.246419 0.765625)"/>
     <use xlink:href="#DejaVuSans-33" transform="translate(987.892253 39.046875) scale(0.7)"/>
     <use xlink:href="#DejaVuSans-2b" transform="translate(1054.645182 0.765625)"/>
     <use xlink:href="#DejaVuSans-37" transform="translate(1157.916667 0.765625)"/>
     <use xlink:href="#DejaVuSans-20" transform="translate(1221.539714 0.765625)"/>
     <use xlink:href="#DejaVuSans-61" transform="translate(1253.326823 0.765625)"/>
     <use xlink:href="#DejaVuSans-6e" transform="translate(1314.60612 0.765625)"/>
     <use xlink:href="#DejaVuSans-64" transform="translate(1377.985026 0.765625)"/>
     <use xlink:href="#DejaVuSans-20" transform="translate(1441.461589 0.765625)"/>
     <use xlink:href="#DejaVuSans-73" transform="translate(1473.248698 0.765625)"/>
     <use xlink:href="#DejaVuSans-65" transform="translate(1525.348307 0.765625)"/>
     <use xlink:href="#DejaVuSans-63" transform="translate(1586.871745 0.765625)"/>
     <use xlink:href="#DejaVuSans-61" transform="translate(1641.852214 0.765625)"/>
     <use xlink:href="#DejaVuSans-6e" transform="translate(1703.13151 0.765625)"/>
     <use xlink:href="#DejaVuSans-74" transform="translate(1766.510417 0.765625)"/>
     <use xlink:href="#DejaVuSans-73" transform="translate(1805.719401 0.765625)"/>
    </g>
   </g>
   <g id="legend_1">
    <g id="patch_7">
     <path d="M 50.78125 62.998125 
L 143.151563 62.998125 
Q 145.151563 62.998125 145.151563 60.998125 
L 145.151563 31.12 
Q 145.151563 29.12 143.151563 29.12 
L 50.78125 29.12 
Q 48.78125 29.12 48.78125 31.12 
L 48.78125 60.998125 
Q 48.78125 62.998125 50.78125 62.998125 
z
" style="fill: #ffffff; opacity: 0.8; stroke: #cccccc; stroke-linejoin: miter"/>
    </g>
    <g id="line2d_124">
     <path d="M 52.78125 38.72 
L 62.78125 38.72 
L 72.78125 38.72 
" style="fill: none; stroke: #000000; stroke-width: 1.5; stroke-linecap: square"/>
    </g>
    <g id="text_15">
     <!-- $y^2 = x^3+7$ -->
     <g transform="translate(80.78125 42.22) scale(0.1 -0.1)">
      <use xlink:href="#DejaVuSans-Oblique-79" transform="translate(0 0.765625)"/>
      <use xlink:href="#DejaVuSans-32" transform="translate(63.645833 39.046875) scale(0.7)"/>
      <use xlink:href="#DejaVuSans-3d" transform="translate(130.398763 0.765625)"/>
      <use xlink:href="#DejaVuSans-Oblique-78" transform="translate(233.670247 0.765625)"/>
      <use xlink:href="#DejaVuSans-33" transform="translate(297.316081 39.046875) scale(0.7)"/>
      <use xlink:href="#DejaVuSans-2b" transform="translate(364.06901 0.765625)"/>
      <use xlink:href="#DejaVuSans-37" transform="translate(467.340495 0.765625)"/>
     </g>
    </g>
    <g id="line2d_125">
     <path d="M 52.78125 53.418437 
L 62.78125 53.418437 
L 72.78125 53.418437 
" style="fill: none; stroke: #800080; stroke-linecap: square"/>
    </g>
    <g id="text_16">
     <!-- tangent line -->
     <g transform="translate(80.78125 56.918437) scale(0.1 -0.1)">
      <defs>
       <path id="DejaVuSans-67" d="M 2906 1791 
Q 2906 2416 2648 2759 
Q 2391 3103 1925 3103 
Q 1463 3103 1205 2759 
Q 947 2416 947 1791 
Q 947 1169 1205 825 
Q 1463 481 1925 481 
Q 2391 481 2648 825 
Q 2906 1169 2906 1791 
z
M 3481 434 
Q 3481 -459 3084 -895 
Q 2688 -1331 1869 -1331 
Q 1566 -1331 1297 -1286 
Q 1028 -1241 775 -1147 
L 775 -588 
Q 1028 -725 1275 -790 
Q 1522 -856 1778 -856 
Q 2344 -856 2625 -561 
Q 2906 -266 2906 331 
L 2906 616 
Q 2728 306 2450 153 
Q 2172 0 1784 0 
Q 1141 0 747 490 
Q 353 981 353 1791 
Q 353 2603 747 3093 
Q 1141 3584 1784 3584 
Q 2172 3584 2450 3431 
Q 2728 3278 2906 2969 
L 2906 3500 
L 3481 3500 
L 3481 434 
z
" transform="scale(0.015625)"/>
      </defs>
      <use xlink:href="#DejaVuSans-74"/>
      <use xlink:href="#DejaVuSans-61" transform="translate(39.208984 0)"/>
      <use xlink:href="#DejaVuSans-6e" transform="translate(100.488281 0)"/>
      <use xlink:href="#DejaVuSans-67" transform="translate(163.867188 0)"/>
      <use xlink:href="#DejaVuSans-65" transform="translate(227.34375 0)"/>
      <use xlink:href="#DejaVuSans-6e" transform="translate(288.867188 0)"/>
      <use xlink:href="#DejaVuSans-74" transform="translate(352.246094 0)"/>
      <use xlink:href="#DejaVuSans-20" transform="translate(391.455078 0)"/>
      <use xlink:href="#DejaVuSans-6c" transform="translate(423.242188 0)"/>
      <use xlink:href="#DejaVuSans-69" transform="translate(451.025391 0)"/>
      <use xlink:href="#DejaVuSans-6e" transform="translate(478.808594 0)"/>
      <use xlink:href="#DejaVuSans-65" transform="translate(542.1875 0)"/>
     </g>
    </g>
   </g>
  </g>
 </g>
 <defs>
  <clipPath id="pa8f2e88e8a">
   <rect x="43.78125" y="24.12" width="357.12" height="266.112"/>
  </clipPath>
 </defs>
</svg>
